<?xml version="1.0" encoding="UTF-8"?>
<svg id="_レイヤー_2" data-name="レイヤー 2" xmlns="http://www.w3.org/2000/svg" viewBox="0 0 536 536">
  <defs>
    <style>
      .cls-1 {
        fill: none;
      }

      .cls-2 {
        fill: #fff;
      }

      .cls-3 {
        fill: #333225;
      }
    </style>
  </defs>
  <g id="_レイヤー_1" data-name="レイヤー 1">
    <g>
      <rect class="cls-2" x=".24" y=".24" width="535.52" height="535.52"/>
      <g>
        <path class="cls-1" d="M536,252.11v-3c-.79.97-1.55,1.94-2.26,2.88.82.15,1.57.18,2.26.12Z"/>
        <path class="cls-1" d="M20.73,277.55c-14.01,36.01,1.12,75.34,24.04,103.92l9.99,10.02c-4.55-10.59-12.33-20.22-17.21-30.79-11.74-25.45-19.6-58.49-7.84-85.1-.14-.5-7.89-4.24-9.25-4.8-8.97-3.74-13.76-4.76-20.45-8.28v13.3c2.06,1.22,4.1,2.15,5.98,2.55,4.73,1.01,10.37-5.11,14.75-.81Z"/>
        <path class="cls-1" d="M8.72,258.33c-.95-5.6-.47-2.52-2.29-5.56-1.22-2.03-1.83-4.26-2.69-5.77-1.03-1.8-2.38-3.64-3.74-5.52v14.64c3.23,1.88,6.66,3.5,10.22,4.9,2.22-2.22-1.35-1.77-1.5-2.69Z"/>
        <path class="cls-1" d="M535.24,246.98c.27-.27.51-.57.76-.86v-9.64c-.27.78-.58,1.51-.95,2.15l.19,8.35Z"/>
        <path class="cls-1" d="M3.74,290l-3.74-.4v2.01c2.3.58,4.24.52,3.74-1.6Z"/>
        <path class="cls-1" d="M13.73,350.99c-.05-1.99-1.07-3.86-1.83-5.66-3.4-8.03-4.94-6.59-11.9-10.04v7.64c6.35,4.59,12.77,9.04,13.73,8.06Z"/>
        <path class="cls-1" d="M3.73,313.99l-1.5-13.99c-.61-.95-1.37-1.69-2.23-2.29v14.94c1.83,1.27,3.23,1.89,3.73,1.34Z"/>
        <polygon class="cls-1" points="536 521.18 536 509.88 528.75 517.5 536 521.18"/>
        <path class="cls-1" d="M4.24,324.99c-1.15-1.15-2.62-2.28-4.24-3.42v6.33c2.22.9,4.48,1.61,6.73,2.09.15-1.92-1.22-3.73-2.49-5Z"/>
        <path class="cls-1" d="M497.22,253.01c-1.28-.38-2,.25-1.47,1.47.6,1.4,15.31,15.65,17.99,18.51l1,5.99c-6.28.48-12.42-2.12-18.24-4.25-2.27-.83-11.6-5.79-12.75-4.74.05,2.33,1.9,4.47,3.16,6.33,15.15,22.19,31.98,42.02,49.09,61.32v-11.35c-12.37-15.12-25.31-30.48-38.26-45.81.64-1.19,2.94-.34,3.94.06,3.98,1.6,24.78,16.59,27.05,14.44-.43-1.57-.57-3.52-1-4.99,3.6,2.06,5.8,5.55,8.26,8.68v-10.94c-11.82-13.74-28.94-31.78-38.78-34.73Z"/>
        <path class="cls-1" d="M436.34,11.9c1.04.15,3.65.84,3.39-.89-12.61-3.47-25.16-7.17-37.67-11.01h-15.03c13.12,3.5,26.32,6.69,39.49,9.71,3.07.71,6.83,1.74,9.82,2.19Z"/>
        <path class="cls-1" d="M293.21,0h-49.34c16.58,9.56,35.2,8.49,49.34,0Z"/>
        <path class="cls-1" d="M314.03,3.21c5.12,3.3,13.1,5.11,18.44,8.63l1.67.22.8-1.79,1.79.73-.11-2.89c-5.76-1.91-10.72-6.64-16.86-7.72-2.81-.49-5.25.69-8.01-.39-.41,2,.95,2.35,2.28,3.21Z"/>
        <path class="cls-1" d="M11.54,0H3.1c2.14,2.17,3.77,4.65,4.61,7.52.45,1.53-.08,1.62-1.44,1.46-1.05-.13-3.39-.75-6.27-1.56v6.38l17.23,1.22c2.17-.27-2.55-9.49-5.69-15Z"/>
        <path class="cls-1" d="M105.55,9.32c4.43-1.04,19.69-4.81,36.94-9.32h-14.24l-46.51,13.99c7.89-.45,16.02-2.85,23.81-4.67Z"/>
        <path class="cls-1" d="M514.73,15l21.27-1.52v-7.18c-3.64,1.13-7.27,2.11-10.87,2.6-1.07.15-3.15.65-2.38-1.39.88-2.3,3.05-5.02,5.58-7.51h-8.46c-3.11,5.31-6.99,13.25-5.14,15Z"/>
        <path class="cls-1" d="M488.84,33.9c10.49,2.16,21.2,2.31,31.89,2.1v170.5l-18.5,18.48c-8.41-6.91-16.06-14.99-25.5-20.5,4.61-6.24,8.4-13.11,11-20.49.12-.08-.07-.67,0-1,1.34-1.48,1.66-4.06,2-6,.52-2.91.91-6.03.99-9-.78-.85-7.68,6.15-7.99,7l-8,4.99c7.05-13.75,8-30.1,4.5-44.99l-14.56,15.46c-.74,1.03-3.4,1.13-3.8,1.68-.86,1.19.16,25.12-.11,29.4-.2,3.17-1.51,6.2-1.05,9.46-13.58-6.34-5.82-19.41-7-31-1.9-2.11-15.01,13.28-17.86,5.5,1.93-6.74,15.73-9.14,16.84-15.03,1.03-5.49-1.24-16.75-2.29-22.66-1.75-9.83-4.69-19.35-7.7-28.81-3.24-.17-4.84,2.98-7.05,4.43-2.87,1.89-19.83,11.53-20.47,12.55-1.37,2.18,2.21,16.54,2.52,20.53.1,1.33.84,6.19-.98,6.48-.56-3.35-3.84-4.35-5.09-7.42-1.68-4.12-1.52-12.37-3.41-15.59-1.05-1.78-1.23-.39-2.02,0-3.91,1.9-7.57,6.28-11.48,1.52l11.85-8.19c.56-2.23-8-24.18-9.7-27.99-3.01-6.74-9.38-19.72-13.72-25.28-.74-.95-1.31-2.01-2.76-1.86-6.4,2.59-12.88,4.97-19.69,6.32-4.43.88-12.16,3.99-13.01-2.51,8.86-2.14,21.75-2.32,27.04-10.46,0-8.61-29.93-25.82-37.1-31.01-5.1-1.82-10.99,3.62-16,5.05l13.06,32.4-5.05-1.71-13.62-28.18c-15.23,3.6-30.58,7.78-46.34,7.89v11s-2-5.01-2-5.01l-2.99,3-.15-8.36-1.5-1.5c-6.95-.01-13.85-.33-20.73-1.27-6.13-.84-17.08-4.91-22.08-4.8-1.35.03-2.73.54-3.61,1.64-4.24,5.29-7.04,17.83-10.56,24.18-1.23,2.23-3.2,5.52-5.88,6.12-2.39-5.53,13.16-33.16,11.49-35-4.43.76-11.14-5.84-14.5-5.96-2.46-.09-25.05,14.35-27.98,16.98-2.29,2.05-11.54,13.2-11.57,15.5-.02,1.29.59,1.88,1.73,2.29l32.3,10.18c-11.49,5.17-26.24-2.35-37.68-5.86l-1.33.29c-5.77,10.27-11.98,21.15-15.7,32.36-1.88,5.65-5.29,26.65-9.27,28.76-4.19.72-10.05-2.97-14.03-5.01-4.97-2.55-11.07-6.16-15.71-9.29-3.18-2.14-5.26-5.92-9.26-6.23-4.9,15.21-8.3,30.58-9.74,46.53-.55,6.13-.34,8.41,5.72,10.96l-3,4.08-3.99-.57c-.26,6.31-4.28,13.12-7.01,19h-1l.08-26.57c.3-2.02-1.89-1.25-2.08-1.43-.14-.13.22-1.31-.23-1.76-.61-.6-1.64-.13-1.77-.24-3.95-3.54-8.03-9.47-11.99-12.51-1-.77-1.27-1.94-3-1.49-2.18,15.99-.4,32.51,7.97,46.51l-7.3-3.69c-2.65-1.07-4.45-4.27-6.31-5.65-1.02-.76-1.97-1.56-2.9-.2-1.99,8.28,1.81,15.68,6.53,22.03-.09,2.98,2.28,4.09,4,6,.74.82,1.35,1.33,2,2,.33.34.67.67,1,1,.33.33.69.65,1,1,.59.65.85,1.72,2,2,1.54,2.03,2.21,2.45,4,4,2.81,2.44,5.43,3.71,7.91,5.59,2.6,1.98,5.37,7.05,10.09,7.4-1.21-7.94-6.97-15.45,2.5-19.98,2.13,0,4.77,21.87,7.96,25.02,2.49,2.47,17.42,8.75,21.57,10.43,2.3.93,16.11,6.4,16.97,5.52-1.46-8.69-4.29-17.08-5.68-25.81-1.05-6.54-3.78-23.38-.21-28.58,1.19-1.74,1.82-1.85,3.89-1.6.22,10.13,1.46,20.25,3.32,30.18,1.32,7.04,4.22,20.7,7.17,26.83,2.77,5.75,11.73,4.22,16.56,7.64l-.05,4.34-11.99-2c-1.06,1.11,10.08,23.73,11.72,26.73,13.73,25.25,32.74,57.95,30.27,53.26-1.66-10.81-5.54-21.09-7.68-31.81-3.8-19.07-4.62-36.53-.33-55.7-1.47-.7-2.4,2.2-2.84,3.15-3.74,7.97-6.34,17.57-7.14,26.37-1.94,2.54-2.92-5.57-2.98-6.51-1.53-21.82,9.34-36.32,17.16-54.82,1.61-3.81,3.82-9.32,4.78-13.23.3-1.24-.24-2.06-1.44-1.43-1.2.63-6.81,8.78-8.51,10.49l-5.98,4.01c1.14-5.02,7.52-13.66,7.97-18.1.19-1.9-2.36-11.02-3.5-12.41-1.73-2.12-3.57,2.58-5.14,3.85-2.89,2.33-6.77,4.05-9.86,6.13-.51-7.05,12.38-14.14,1.98-17.95-8.92-3.26-26.3,1.84-35.69,4.25-18.38,4.73-37.27,10.43-53.27,20.73.31-30.77,29.46-54.02,52.17-70.83,4.12-3.05,14.12-8.42,16.86-11.14,2.25-2.23,3.16-8.67,6.8-12.7,28.45-31.41,57.63-47.42,99.44-56.06,30.82-6.37,58.84.82,87.19,13.22,19.26,8.43,40.72,20.19,53.01,37.48-6.64-2.29-12.91-5.53-19.5-7.99-.95-.36-2.85-1.87-3.5-.5l16,14.5-23.98-8.5c26.78,19.22,54.67,42.14,73.36,69.63.63.93,3.43,4.09,2.62,4.87-22.25-8.71-44.6-18.76-68.62-21.88-1.07-.14-4.54-.97-4.37.87,15.5,6.27,31.69,11.18,47.24,17.26,26.18,10.23,42.53,20.32,64.65,37.35,22.99,17.71,44.88,37.41,65.36,58.2v-6.81c-3.36-3.88-6.75-7.74-10.11-11.64,3.11-7.86,8.21-15.57,7.85-24.36-2.62-.66-1.75.94-2.58,1.89-1.87,2.13-11.68,14.77-12.9,14.86l-9.52-9.23c9.46-7.78,18.61-16.31,27.26-25.37v-10.77l-8.77,9.61,2.03-177.04c-2.7-2.86-26.14,1.63-31.51.04l6-20.99c-13.82-.07-27.62-3.21-41.15-7h-24.04c16.92,5.09,33.96,9.81,51.09,14.09l-.79,19.8Z"/>
        <path class="cls-1" d="M0,536h4.65c-1.52-1.73-3.08-3.43-4.65-5.11v5.11Z"/>
        <path class="cls-1" d="M17.26,227.97c13.65,11.7,29.85,18.61,31.46,39.54.94,12.26-5.09,16.88-8.98,27.48,20.32-3.63,18.38-30.92,12.17-45.67-7.45-17.7-23.54-22.83-36.19-34.81-8.38-7.94-3.35-13.79-6.03-23.97l.04-154.55c10.67.25,21.38-.27,31.9-2.1l-.31-20.01C57.84,9.43,74.36,4.82,90.81,0h-25.07c-12.57,3.12-25.23,5.83-38.01,8l4.01,19.99c-10.42.29-20.77-.02-31-2l3.5,178.99c-1.11-1.25-2.6-2.72-4.24-4.34v10.78c6.17,6.45,12.07,12.08,17.26,16.53Z"/>
        <path class="cls-1" d="M5.36,247.34c6.05,8.15,14.82,15.96,25.38,16.65-8.26-6.59-14.01-15.01-19.81-23.68-3.62-5.42-5.28-11.52-10.93-15.75v10.4c1.17,4.05,2.91,8.03,3.74,12.04.5,0,1.36-.02,1.62.34Z"/>
        <path class="cls-1" d="M389.21,367.02c1.46,1.33,11.34,10.16,12.52,8.97l-23.01-62.99c-2.43-1.69-9.09,7.48-12.34,6.85l-16.15-17.85c-1.18.63-.31,2.96,0,4,6.7,22.66,21.67,45.2,38.98,61.02Z"/>
        <path class="cls-1" d="M293.52,116.28c-5.04,1.38-11.88,3.29-15.78,6.71,25.88-1.63,50.26,7.21,75,13l-10.99-7.98c4.55-1.41,10.36,1.99,15.01,3.48.72.23,3.87,1.45,2.5-.49-3.83-2.58-8.35-3.96-12.71-5.3-3.38-1.04-9.44.04-9.8-4.69l14,1.99-1.01-1.98,10.49,1.01.51-2c-20.46-9.94-45.47-9.68-67.21-3.74Z"/>
        <path class="cls-1" d="M241.74,72.99c14.77,1.68,28.57-3.79,42.99-4.99.56,2.89-.83,1.6-2.19,2.25-1.79.86-3.79,1.31-5.3,2.75l-10,9c20.83-6.2,43.32-4.83,64.49-1.02-2.7-4.19-10.39-6.81-15.2-8.29-6.58-2.04-14.97-3.67-21.8-3.71,3.84-3.93,11.44-2.82,16.51-2.99,1.21-.04,3.72.74,3.48-.99-24.77-11.64-53.8-9.99-79-.51l25-1.49-18.99,9.98Z"/>
        <path class="cls-1" d="M330.24,301.99c1.76-6.53-1.98-12.99-3.84-19.03-.84-2.72-1.32-5.61-2.33-8.8-1.7-5.36-9.36-4.85-14.34-8.16-1.15-.76-3.1-5.11-5.98-4.51l8.98,15.51c2.95,9.04,10.91,17.98,17.5,25Z"/>
        <path class="cls-1" d="M274.91,310.32c-3.7-4.55-5.98-10.2-8.67-15.32-4.09,8.22-8.48,16.36-15.5,22.5,3.58,1.81,7.79,1.04,11.52,1.49,1.17.14,2-.4,1.45,1.47-2.12,7.33-7.06,8.98-13.97,10.03,4.56,7.05,23.67,6.72,29.33,2.34,1.12-.86,2.06-1.03,1.66-2.83-8.26.39-10.39-4.24-12.99-11l13.99-1.01c.95-.85-5.68-6.27-6.82-7.67Z"/>
        <path class="cls-1" d="M241.74,259l-.95,17.44,6.94,16.56v-24c2.24,2.61,5.03,2.54,7.54,3.96.5.28,5.14,5.81,4.48,1.53-1.21-7.8-9.59-15.54-8.03-24.49-3.61,1.64-2.65,5.83-5,8.52l1.99.49c.28,2.93-3.33,1.53-1.99,5.99-1.69.51-2.88-8.64-4.99-6Z"/>
        <path class="cls-1" d="M275.74,147c-.33-.01-.67,0-1,0-.42-.01-1.48-.89-2.54-.92-10.87-.29-18.96,3.16-29.46,3.92-.23,1.75,2.27.94,3.48.99,5.98.27,8.7.48,14.51,2l26,13c.77.67.92,1.76,2.25,2.32,2.19.93,4.41-.29,5.24,2.7l3.04-2.05.31-2.26-12.85-13.71c6.7,2.13,13.87,2.36,20.42,5.07,1.63-3.83,3.77-3.26,7.58-3.07.31-1.5-.3-2.35-.93-3.56-1.25-2.4-3.01-2.59-4.06-4.42l14.99.98-13.99-7.98c4.93-.67,9.63.76,14.45,1.04,1.07.06,4.73.66,4.54-1.04-13.44-4.39-27.18-6.44-41.41-4.92-.96.1-3.76.44-3.58,1.9,7.47,2.68,15.17,6.56,19.99,13-8.61-2.77-16.28-2.49-25-2.99-.66-.04-1.34.02-2,0Z"/>
        <path class="cls-1" d="M254.74,189.49c6.3,3.97,9.81,6.66,14.71,12.22.59.67-.07,1.92,2.28,1.28.85-7.7-1.1-14.41-4.14-21.35l-5.85-9.64c.41-.38,9.4,3.56,10.35,4.14,1.88,1.13,3.92,4.32,5.16,4.85,3.28,1.41-.29-5.01-1.08-5.92-5.98-6.9-31.62-14.11-40.95-15.06-1.07-.11-3.74-.72-3.47.98,5.95,1.82,10.77,5.83,15.99,9.01.72,3.57,4.3,5.35,6.43,8.07,1.08,1.38,5.35,6.52,5.57,6.93.18.35-.32,1.54,0,2.2.82,1.66,4.01,1.36,2.98,4.8-2.42-1.87-4.58-4.38-7.99-2.5Z"/>
        <path class="cls-1" d="M313.73,84.99c-2.71-2.87-9.47-5.33-13.38-4.95-1.35.13-15.06,4.37-15.61,4.97-2.35,2.55,3.62,1.33,2.99,2.98l-8.99,2,24,3.02c1.64,1.34-.13,1.81-1.5,1.99-5.03.64-10.04.87-15.01,2.02-1.54.36-1.74-.68-1.5,1.98,4.56-.03,10.13,2.09,14.5,2.09,4.01,0,8.46-1.94,12.96-2.12,7.07-.29,13.6,1.69,20.55,2.03-7.67-5.81-17.16-12.58-27-13,1.27-2.35,5.62-3.01,8-3Z"/>
        <path class="cls-1" d="M231.75,311.49l-8.02-26.49h-2.98c-3.62,12.61-4.41,24.18-.32,36.81.74,2.29,4.11,10.68,4.33,3.68.13-4.03-1.37-7.49-1.02-11.48l3.99,3-1.99-8.99c3.16-.85,2.72,5.54,6.01,3.48Z"/>
        <path class="cls-1" d="M224.75,363.49c-.21-5.18-3.18-9.98-5.49-14.51-6.37-12.52-12.94-20.84-18.57-34.43-2.98-7.2-6.83-15.32-9.41-22.59-1.19-3.36-2.32-7.39-2.55-10.96-.24-.3-1.89,1.11-1.99,1.5-.72,2.71,0,11.39,0,15,0,13.49,31.05,45.93,34.18,61.82l3.83,4.17Z"/>
        <path class="cls-1" d="M197.74,348c1.44,9.42,4.91,22.36,15.99,22.99,1.76-1.74-10.78-18.38-12.78-20.71-.97-1.13-1.09-2.77-3.21-2.28Z"/>
        <path class="cls-1" d="M211.93,191.3c.83,2.04,4.8,12.07,4.8,13.2v15.5c-2.33.56-1.65-.46-2.29-1.27-2.52-3.18-2.5-7.6-5.7-9.73l-3.25,10.26-5.75,9.73-1.24-10.27-2.76-5.72c-6.87,14.11-6.66,26.83-4.01,41.99,2.21.35,1.6,0,2.23-1.28,3.17-6.45,5.72-14.25,10.76-19.72l-.99,41.99c2.81.46,1.7-.55,2.13-2.31,4.17-16.99,9.52-32.06,14.41-48.64.49-1.66.51-3.34.45-5.05,1.9-2.37,3.54,6.39,4,7,.21,11.34.53,23.16,2.12,34.38.18,1.26.42,5.44,1.87,5.62.9-11.34,4.99-22.14,8.05-32.98l4.01.53c5.88-8.3,2.22-19.09,1.06-28.19-.23-1.84-1.03-8.06-1.12-10.35-.05-1.33.04-2.67,0-4,.06-.01.2-1.21.97-.57,1.5,2.95,3.62,4.53,6.03,6.57.9.77,4.36,3.77,5.21,5.18,3.15,5.22,4.37,6.29,5.19,13.77,1.69-.51.65-8.43.84-8.97.41-1.18-1.65-7.25-6.55-12.94-1.37-1.59-9.38-5.66-9.68-7.54-.33-2.15.56-1.61,2.11-1.11,2.28.74,4.27,2.13,6.88,1.61.47-1.98-.23-2.21-1.1-3.38-5.11-6.95-17.39-13.46-25.89-14.61-.67,4.7,6.11,6.47,7.01,10.49.63,2.81-4.05-.16-5.02-.49-1.83-.62-4.03-1.62-5.98-1.51,7.55,10.31,14.27,20.27,16.99,33,0,0-3.03-3.23-4.34-4.92-.96-1.23-4.18-2.55-4.18-2.55-.6.04-.42.62-.5.98-.25,1.13.19,2.76,0,4-.35,2.34-.84,4.89-1.26,7.25-.16.92-.4,3-1.73,2.74,2.47-6.54-11.11-33.21-15.52-34.99-4.04-1.63,1.42,6.58,1.71,7.3Z"/>
        <path class="cls-1" d="M243.73,138.01c-5.91.09-11.59,1.69-17.22,3.27l-8.77,4.71c7.03-2.18,16.5-2.79,23.18-5.09.19-.07,2.85-2.21,2.81-2.89Z"/>
        <path class="cls-1" d="M224.74,124.5l21-4.49-13,10.98,29-5c.58-1.7-5.23-.34-2.99-2.97,1.24-1.45,6.98-2.05,8.96-2.55l8.03-5.46-13.39-1.07c-.81,2.89-9.26,1.26-13.13,1.07-1.13-.06-2.74.65-2.47-.99,4.59-.66,9.42-3.54,12.5-7.01l.99,1.99c2.03-.68,2.11-4.18,2.76-4.8.99-.96,3.7,1.32,2.75-3.19-4.32-1.31-6.13,1.5-9,2.56-2.03.75-6.7,1-9.28,1.66-2.81.72-5.4,2.1-8.22,2.78-1.7-1.88,1.87-3.93,3.48-4.03l-.51-1.99c-6.17-.45-18.8,13.65-23.49,18l13-2.98-7,7.5Z"/>
        <polygon class="cls-1" points="478.73 249.51 476.74 248 476.74 250.99 478.73 250.99 478.73 249.51"/>
        <path class="cls-1" d="M329.05,159.81c-6.27,2.76-16.47,9.94-20.73,15.27-7.44,9.29-6.46,18.71-5.59,29.91-2.87.55-1.6-.78-2.26-2.19-1.49-3.2-2.01-7.8-4.73-9.81-1.21,5.4-5.47,9.61-7.5,15.01-5.78,15.38-.49,30.14,3.49,44.99,2.7.9,2.32-3.07,2.5-4.99.57-5.87.37-12.08.5-18.01,2.34-.5,1.6.29,2.24,1.28,2.31,3.63,4.37,8.47,6.93,12.04,1.04,1.45,6.34,8.75,7.82,7.67,6.33-16.74-5.47-33.01-3.98-49.99,2.21-.37,1.6,0,2.23,1.27,1.62,3.25,2.26,7.54,3.91,11.08,5.79,12.48,12.23,15.61,19.86,24.64.23.28,3.12,4.55,3.86,5.64,1.96,2.88,5.06,9.06,6.14,12.36l-5.39-1.1-14.59-9.41c1.62,2.8,2.33,6.16,4.11,8.88,4.17,6.35,9.44,12.69,14.87,18.63,2.63,2.87,5.31,5.27,8,8l1,1c.33.34.67.67,1,1l1,1c4.28,4.19,9.98,11.2,13.98,14.52,1.21,1,2.53,1.94,4.01,2.48,1.14-1.36-5.72-23.1-6.97-26.51-1.72-4.71-4.18-8.38-5.93-12.27-1.35-3-2.8-9.51-4.03-11.53-1.52-2.49-7.96-3.68-9.76-4.99-3.23-2.37-1.28-2.88-7.3-5.7l-.25-2.77c-.47-.48-1.67-.12-1.75-.23-.13-.16-.09-2.44-.78-3.68-6.44-11.43-13.95-22.39-17.21-35.32.99-1.11,5.79,4.15,6.51,4.98,3.7,4.28,6.77,10.04,10.52,14.48,9.48,11.26,19.9,22.28,33.48,28.51-2.55-12-12.6-20.95-15.5-32.97l32.5,32.99c2.11.39,1.63-.79,1.29-2.29-3.15-13.81-10.94-26.29-14.8-39.7,1.88-.43,2.37,1.06,3.5,1.99,4.81,3.97,9.93,8.27,14.5,12,1.61,1.31,3.4,4.14,4.48,4.98,7.82,6.02,17.26,11.45,26.51,15.02l-8.97-10.52c-4.89-5.43-10.36-9.94-16.03-14.47-4.56-3.65-9.61-6.7-14.12-10.4-1.04-.85-2.51,0-1.87-2.59,11.18,3.04,22.17,6.62,31.98,13,1.61-1.88-8.71-22.35-10.99-25.29-.64-.83-5.33-2.13,0-2.71,1.46,1.19,3.96,1.35,5.32,2.22,13.25,8.49,19.5,17.02,30.66,27.3,7.39,6.81,17.09,12.39,24.04,18.96,4.43,4.19,7.61,10.5,13.48,13.52l-.46-3.54c-8.17-7.85-15.97-16.06-23.93-24.11-.66-.67-4-3.36-3.1-4.34,2.31.3,4.22,3.98,5.31,4.67,1.42.9,3.57,1.04,5.37,2.14,13.22,8.12,25.65,17.59,40.3,23.18l-10.52-9.97c-23.64-20.46-53.04-34.03-77.8-50.7-.59-.4-2.9-1.17-3.67-1.32-22.01-11.02-51.04-34.46-76.68-23.18ZM315.74,173l13.78,20.71,1.21,3.28c-12.17,2.09-15.42-14.93-14.99-23.99ZM362.74,211.52c-4.87,2.44-18.73-6.49-24.01-8.01l-.98-7.51,3.97.51-11.97-20.51,30.71,17.28c.53.61,4.05,8.21,4.21,9.27.45,2.9.71,7.22-1.93,8.96ZM358.22,168.02c6.48,2.92,13.48,4.6,19.42,8.57,1.41.95,5.22,3.29,5.79,3.73,3.74,2.89,7.57,7.16,8.18,12.07-.95,4.17-11.17,1.89-14.07,1.31-12.24-2.45-25.78-8.59-30.79-20.7l21.29,9.2,4.7.79-14.51-14.97Z"/>
        <path class="cls-1" d="M201.73,108c-10.74,1.62-18.45,7.05-21,17.99,15.62,6.35,20.7-3.86,21-17.99Z"/>
        <path class="cls-1" d="M318.63,322.6c-4.13-9.9-6.79-19.77-11.9-29.6-.13-9.27-9.66-11.37-14.65-16.35-6.89-6.88-13.35-26.56-13.35-36.15v-19.5c-2.07.35-1.56,2.21-2.01,3.49-4.96,14.07-4.6,15.3-.71,29.72,4.06,15.07,11.27,29.71,18.54,43.46,1.58,2.98,3.72,7.06,6.17,9.33,7.65,16.15,17.22,30.42,27.53,44.99l5.45,4.52c-6.15-10.78-10.33-22.5-15.08-33.91Z"/>
        <path class="cls-1" d="M479.17,363.49c-.48-.52-1.12-3.39-1.29-.17l18.84,34.67c.91-9.95-2.54-19.05-9.01-26.48-2.43-2.79-5.8-5.1-8.54-8.02Z"/>
        <path class="cls-1" d="M449.63,264.6c-2.55-1.79-9.06-6.65-11.41-7.6-1.26-.51-1.85.18-1.47,1.47.52,1.77,4.82,8.62,6.14,10.86,1.72,2.91,5.98,7.95,7.15,10.87.75,1.86.78,3.83.68,5.79-1.89.43-2.37-1.07-3.5-1.99-10.18-8.34-24.62-27.52-38.97-27.04-1.51.05-2.93-.67-2.52,1.52l25.99,30.5c-14.49-4.33-26.95-13.79-39.51-21.98l1.5,3.5-2.01,1.1.52,2.38c-7-.8-11.04-6.79-17.51-6.97-.16,1.14,0,1.95.52,2.97,4.87,9.62,27.18,32.85,36,40,1.68,1.36,4.27,3.3,6.46,3.53l-12.98-17.51c2.77,1.17,7.07,5.48,9.8,8.21l-1.31-5.21,44.01,37.98-3.68-7.31-17.83-25.17c.71-1.39,2.62-.05,3.56.44,4.19,2.21,16.9,15.79,20.95,20.05,10.68,11.22,20.74,24.32,31.46,35.54,1,1.05,6.94,7.58,8.02,6.47-3.13-10.84-10.78-17.89-16.81-26.68-8.68-12.64-17.16-25.41-26.2-37.81-.72-3.81,5.87,1.27,6.93,2.07,9.42,7.07,18.88,16.42,27.59,24.4l-31.49-43.49,9.31,5.68,23.18,19.81c-.4-5.82-4.16-10.94-7.53-15.46-8.16-10.98-23.77-22.96-35.09-30.91Z"/>
        <path class="cls-1" d="M250.74,396.01c.18,1.11,2.72,2.83,3.5,2.99,5.49,1.16,19.4,0,26,0,.42,0,2.19-1.59.52-2.52-.69-.39-14.56-3.33-15.5-3.34-3.87-.05-10.09,3.37-14.52,2.87Z"/>
        <polygon class="cls-1" points="330.22 382.99 331.73 381.01 328.74 381 328.74 382.99 330.22 382.99"/>
        <path class="cls-1" d="M258.74,374.99c5.08,2.09,9.13.57,13.99-1-1.22-4.37-16.6-2.59-13.99,1Z"/>
        <path class="cls-1" d="M270.6,388.86l-.8-9.42-11.07.57c2.18,3.12,2.25,6.28,1.99,10l9.87-1.15Z"/>
        <path class="cls-1" d="M270.73,368.99c-1.01-5.75-7.88-3.8-12-2.99-.54,6.94,7.63,3.01,12,2.99Z"/>
        <polygon class="cls-1" points="326.22 384.99 327.73 383.01 324.74 383 324.74 384.99 326.22 384.99"/>
        <path class="cls-1" d="M343.72,344c-.9-.71-2.24-.33-1.98,1.47.24,1.68,3.67,10.63,4.59,12.42,2.97,5.77,9.11,11.97,15.4,14.09-2.71-9.18-10.07-16.09-15.82-23.68-.95-1.25-2.01-4.16-2.2-4.31Z"/>
        <path class="cls-1" d="M270.73,339c-5.39-1.38-19.46,1.67-6.99,4,.97,3.53-3.08,1.32-4.01,2,.77,3.81-.62,8.59,2.02,11.52l-1.86.58,1.86,3.89-3,2c4.36,1.47,8.63,1.45,12.99,0,.87-2.65-2.72-2.63-2.98-3.02-.64-.93,3.83-4.7,1.1-8.39l-4.1-.59c.17-1.88,4.57-1.69,4.99-3.5.69-2.94-4.91-1.55-4-3.98.17-.45,5.04-.69,4-4.5Z"/>
        <path class="cls-1" d="M306.71,358.47c-2.72,1.53-11.11,22.19-9.96,23.53,7.28-2.52,11.92-9.92,19.99-10l-7.01-13.99c-1.09-.12-2.02-.09-3.01.47Z"/>
        <path class="cls-1" d="M298.18,406.06c-12.67-1.94-55.18-2.81-66.67.21-7.04,1.85-5.82,5.07-7.79,11.21-.06,2.36,12.06-3.46,13.21-3.79,8.28-2.38,12.65-1.42,19.28,4.33,2.61,2.26,6.03,8.79,9.92,7.85,1-.24,10.13-12.88,15.3-13.69l23.29,5.82c-.44-4.94-.69-11.04-6.55-11.94Z"/>
        <path class="cls-1" d="M296.8,518.35c.16,3.26,2.25,7.13,1.94,10.65,3.09.24,3.34-3.59,4.99-5.5,2.52-2.91,14.22-13.14,14.84-15.21,1.07-3.63-4.68-13.23-7.44-16.21-6.27-1.5-14.57,21.42-14.33,26.28Z"/>
        <path class="cls-1" d="M212.1,408.02c1.05-.24.02-3.07,2.63-2.02.08,2.15-.1,4.34,0,6.51.06,1.22-.76,3.72.99,3.48,1.39-11.72,5.49-21.42-7.1-28.38-8.5-4.7-14.42-.81-21.19-2.81-7.26-2.15-14.81-25.14-19.88-31.12l-6.82-15.68v21.5c0,8.84,9.91,26.98,18.08,30.88,3.07,1.46,17.33,4.71,17.92,7.14.63,2.61-10.45,4.57-12.5,4.57-1.93,0-5.6-.84-7.22-1.77-2.03-1.16-1.73-4-4.76-3.3l-1.5,1.98,1.87.44c-2.89,4.73,3.99,5.68,7.4,7.6.8.45.61,2.49,2.19,2.08,4.3-.25,13.7-8.58,16.78-7.94,4.55.95,6.21,8.45,13.11,6.85Z"/>
        <rect class="cls-1" x="213.74" y="417" width=".98" height="2.99"/>
        <path class="cls-1" d="M15.65,362.58c-4.1-3.61-10.47-5.95-15.65-9.5v6.89c5.4,3.35,11.64,5.47,17.73,6.02.39-1.88-.94-2.41-2.08-3.41Z"/>
        <path class="cls-1" d="M210.74,90.01c-7.81.8-29.87,7.23-33.06,14.43-.57,1.28-2.5,8.87-1.93,9.56l34.99-23.99Z"/>
        <path class="cls-1" d="M320.94,410.7c.88-2.93,14.67-12.35,17.81-15.19,5.33-4.83,9.66-10.67,14.99-15.5-7.9,3.15-17.15,8.41-23.94,13.55-4.3,3.25-10.08,8.05-11.07,13.43-1.49-.31-2.58-4.55-2.77-5.74-.58-3.65.06-5.54,1.95-8.58.83-1.33,7.02-6.61,5.83-7.66-21.9,5.74-8.67,32.6-11.05,47.44-.8,4.97-7.14,8.08-9.78,12.22-4.22,6.6-7.55,24.27-6.16,31.83,1.14,6.21,8.29-1.21,11.08-2.91,12.77-7.75,21.31-9.75,22.8-27.21.83-9.74-7.64-19.21-9.43-28.33-.46-2.36-.95-5-.25-7.35ZM306.83,455.91c-.99-1.14,1.23-14.14,5.91-11.92-1.31,4.08,2.39,3.86,2.84,6.72.85,5.46-4.3,7.26-8.74,5.2Z"/>
        <rect class="cls-1" x="413.74" y="533.01" width="1.99" height=".98"/>
        <path class="cls-1" d="M517.75,523.51c.58-.85,1.4-.98.98-2.51-2.81.98-15.59-3.71-14.99-6.49.21-.98,13.75-10.07,16.01-12.01,6.1-5.24,11.72-11.22,16.25-17.89v-10.17c-2.55,6.33-7.14,12.18-11.29,17.03-6.28,7.34-14.6,14.66-22.97,19.52-.28-1.74.22-3.12.77-4.72,4.18-12.1,15.08-24.01,19.73-38.27.97-2.97,2.02-11.51,2.97-13.04,1.03-1.67,7.66-.08,10.78,3.14v-11.39l-7.26.27c1.08-3.65,2.64-7.1,3.71-10.78,1.35-4.63,2.53-9.34,3.55-14.1v-68.38l-5.26-3.73c.16,8.88,1.32,17.6,1.04,26.54-.78,25.39-8.5,53.13-17.01,76.99-1.94,5.43-12.48,31.7-16.01,33.98-2.67,1.72-4.33-2.39-7.13-3.92-2.37-1.29-5.37-1.06-6.85-3.22-.46-1.61,12.92-25.75,14.8-30.02,9.24-21.02,15.97-45.97,18.13-68.87.75-7.97,2.01-22.54,1.06-30.04-.14-1.1.11-2.25-1.03-2.97l-6.01-1.48c.8,33.94-4.8,68.72-18.83,99.67-4.7,10.36-10.88,19.99-15.71,30.29-3.03,3.68-10.35,1.58-14.96,2.04-15.77,1.57-32.09,5.18-44.49,15.49l26.98,11.52-1.05,2.42c-24.94,10.8-50.37,20.37-76.72,27.28-.37.1-.74.19-1.11.28h26.42l55.47-24,1.8,24h5.92c-.5-5.28-.76-10.58-.58-15.86,13.82-3.91,26.02-11.31,37.85-19.14l1.91,35h10c5.45-4.56,11.76-10.54,13.1-12.49ZM489.59,495.28c-1.56,5.27-33.61,22.05-35.85,19.71-.3-2.85.4-6.26,0-9l4.07-1.6c.4-3.63-2.48-6.51-6.06-6.41l3.99-2.49-3.99-2.5,3-2.98c-4.24.25-8.84-.35-13,0,12.39-3,28.44-4.93,40.78-1.28,3.34.99,8.42,2.04,7.08,6.56Z"/>
        <path class="cls-1" d="M398.72,495.48c2.23-1.86,9.48-7.09,11.84-8.38,17.95-9.77,52.67-11.7,54.22-37.64.38-6.4-5.13-10.26.41-16.52,1.08-1.22,6.9-4.1,5.54-5.95-1.66-2.25-11.91,1.84-14.2,3.07-2.72,1.47-6.44,6.74-9.8,7.48-11.78,2.6-17.08-22.27-18.06-30.5-8.03.67-12.22-6.24-17.44-11.06-.08,15.75,13.72,26.88,20.03,39.97,2.76,5.71,4.45,12.04,6.48,18.03,3.15-1.4,3.05-6.24,7.34-4.89,4.02,1.29,3.64,13.1-.98,14.76l-22.36,10.13,8.77-13.72c.28-4.41,1.39-9.88-2.28-13.26-1.69.01-4.26,10.52-5.32,12.66-2.29,4.64-8.72,10.78-12.71,14.29-2.98,2.62-9,4.35-8.48,8.02-1.61.27-1.06-1.3-.79-2.28,1.2-4.28,4.24-8.77,3.79-13.72l-18.43,15.05c-2.99,3.6.74,12.09-1.01,17.99-1.77,5.96-11.58,12.25-15.55,16.95,3.91-.88,11.32-2.98,14.53-4.96,4.72-2.9,9.67-11.56,14.45-15.55Z"/>
        <path class="cls-1" d="M527.76,536h8.24v-9.75c-2.71,3.28-5.46,6.53-8.24,9.75Z"/>
        <path class="cls-1" d="M412.73,534.01c-2.42.53-4.88,1.22-7.36,1.99h5.56c.82-.47,1.52-1.07,1.8-1.99Z"/>
        <path class="cls-1" d="M368.24,516v1c.65-.33.65-.67,0-1Z"/>
        <path class="cls-1" d="M221.78,485.73c.17-.75,2.37-1.2,1.97-2.72l1,2.99c1.04,1.25,7.87-14.5,8.04-16.5.77-9.07-5.06-18.6-6.06-27.5-5.02-.72,1.03,10.72-3.98,10-1.46-6.4-6.34-11.82-8.55-17.97-.59-1.64-.13-3.15-.42-4.41-.23-1.04-1.89-.35-2.73-.93-.71-.49.27-2.09-1.31-1.68-.22,6.3-4.62,11.61-6.81,17.34,4.91,8.63,16.59,15.06,15.88,26.2-.56,8.78-11.83,6-8.64,19.53,1.37,5.81,18.67,20.45,24.06,24.93,1.13.94,1.62,2.42,3.5,1.99-2.08-9.68-18.18-21.32-15.95-31.27ZM225.24,453c.65.33.65.67,0,1v-1Z"/>
        <path class="cls-1" d="M189.74,149c-.41-3.06-7.06-9.41-10.37-9.08l-1.63,4.07c3.41.07,6.95,2.29,9,5.01-31.28,7.45-62.25,17.9-92.51,29-2.75.59-.63-2.16.26-3.03,4.3-4.14,11.98-6.18,17.24-9.98l63-19.99c-5.37.46-10.07-1.36-15.48-.99-3.72.25-23.64,5.89-24.51,4.98-1.24-1.99,2.67-8.53-.51-8.01-4.49.73-19.22,11.68-23.5,15.01-7.16,5.57-19.74,17.09-22.99,25.52-.49,1.27.18,1.86,1.47,1.47,3.96-1.19,10.16-4.9,14.54-6.46,12.87-4.6,27.07-8.85,40.21-12.79,15.02-4.51,30.35-9.21,45.77-11.74-.03-.97.13-2.04,0-2.99Z"/>
        <path class="cls-1" d="M135.29,296.14c7.37,5.86,18.44,11.84,26.94,13.88-2.02-4.76-4.82-8.02-8.07-12.9-9.14-13.71-15.52-27.91-21.86-43.18l-38.56-13.93c-1.56,1.54,14.48,27.56,16.77,30.71,5.9,8.12,17.04,19.27,24.77,25.42Z"/>
        <path class="cls-1" d="M130.03,358.17c1.35.22,2.98,2.08,4.15,1.79.93-.23,1.24-2.23,2.29-3,2.2-1.61,6.09-3.68,8.65-4.9l.63-3.07-13.3-2.87-9.71,12.86c2.38.63,5.22-1.16,7.29-.82Z"/>
        <rect class="cls-1" x="85.74" y="184.01" width="1.99" height=".98"/>
        <path class="cls-1" d="M144.73,338.01c-8.58-1.33-12.51-9.29-18.98-14.01l-6.01,21.99c6.93-2.12,17.38-2.89,23.73-5.76,1.35-.61,1.58-.1,1.26-2.22Z"/>
        <path class="cls-1" d="M121.81,441.1c-.85,1.18,2.94,11.86,4.42,11.88,5.5-7.67,14.67-15.99,24.89-14.92,4.69.49,9.46,5.8,12.89,4.8,2.48-.73,8.12-9.34,11.24-11.83,1.91-1.53,6.77-4.66,8.98-5.02,4.25-.71,10.03.51,14.5,0l-3.02-12.99-73.9,28.09Z"/>
        <path class="cls-1" d="M155.57,132.84l.16-3.84c-5.45,1.82-11.23-.25-15.99,3.49,6.12,3.01,10.04,4.5,15.83.35Z"/>
        <path class="cls-1" d="M153.12,398.07l.61-3.07c-.79-.8-6.27,1.28-7.56,1.92-1.25.61-2.45-.11-1.42,2.57,1.34,3.48,6.18-1.24,8.37-1.42Z"/>
        <path class="cls-1" d="M146.29,504.94c-2.81-11.49-2.12-23.98-9.23-34.01l-12.3-5.45c3.07,5.75,11.03,9.03,9.97,16.51-1.27,1.27-27.29-12.23-30.31-14.18-7.63-4.91-17.11-17.69-12.1-26.74,1-1.81,9.23-11.61,10.9-13.1,3.78-3.39,9.48-2.98,11.05-8.96,2.23-8.5-5.27-15.13-9.56-21.49l-16.97-17.52c9.32,1.38,16.57,9.54,24.93,13.55l13.05,14.43c-.65-13.4-10.23-24.3-17.97-34.5l5.98,1.5c.45-1.74-.73-2-1.49-3-4.42-5.79-13.74-7.76-19.53-12.47-7.81-6.36-16.52-22.12-12.22-32.27,2.47-5.83,11.01-6.91,14.26-10.74,7.74-9.11-5.32-16.46-10.52-22.5,1.07,6.23,2.49,12.63,1.03,19-8.7,5.77-20.79,2.13-26.5,12.49,2.71-.69,5.66-4.42,8.51-1.53,1.83,1.86,2.49,13.51,5.3,16.7l14.17,25.32c-14.53-8.63-29.01-20.44-29-39-1.61-1.97-4.01,10.94-4.06,12.49-.26,9.22,6.41,21.85,12.09,28.99,6.44,8.09,24.9,20.3,26.75,29.24,1.03,4.97,1.1,11.4-5.12,12.07l-11.65-9.8c-2.66,3.2,14.48,23.32,13.72,30.38-.48,4.43-14.81,11.02-18.76,10.24-4.59-.91-13.91-13.11-15.44-17.64-1.91-5.64-1.95-10.19-.53-15.97-3.79.08-4.94,6.59-5.06,9.48-.52,12.25,10.23,31.07,20.77,37.32,6.78,4.02,15.32,5.76,20.3,12.19l-22-6.49-13.98-10.01c10.68,23.88,36.9,22.68,56.29,33.7,7.24,4.12,14.9,11.25,21.2,16.8,3.85,3.4,7.5,8.56,11.8,11.2,6.53,4,12.45,2.39,19.69,3.8-3.05-5.69-14.15-4.99-17.45-10.04Z"/>
        <path class="cls-1" d="M147.86,412.62c.72,7.38,8.72.87,12.75.26,1.66-10.64-8.6-4.27-12.75-.26Z"/>
        <path class="cls-1" d="M78.74,260c.11,3.09,2.67,2.71,3,3,.35.3.65.68,1,1,.61.56,1.27,1.31,2,2,.65.61,1.34,1.35,2,2,1.47,1.44,2.12,3.99,5,4,.3.37.7.65,1,1,4.29,5.09,6.22,3.9,9,6,.11.08.09,1.7,1.05,2.41,2.87,2.13,5.98,3.96,8.46,6.59,1.21-.39.33-2.11-.06-2.94-2.22-4.79-7.53-9.38-10.29-13.71-4.46-7-9.28-16.46-13.02-23.98-1.85-3.71-3.77-12.15-6.77-14.27-1.09-.78-2.36-.68-3.37-1.09-.53-.21-1.17-.67-2-1l-8-5-15.98-11.51c4.34,10.09,16.93,41.57,26.98,45.51Z"/>
        <path class="cls-1" d="M167.73,418.01c-2.57.99-3.07-1.69-3.25-1.78-1.89-.92-11.37,3.05-13.66,4.4-.75.44-.99,1.79-1.79,2.41-1.08.84-3.47.26-3.29,1.94,7.35.51,16.48-2.28,21.99-6.98Z"/>
        <path class="cls-1" d="M155.7,403.95l-1.56-3.92-7.41,1.97c.46,8.83,3.66,3.5,8.96,1.94Z"/>
        <path class="cls-1" d="M405.45,452.72c.59.66-.07,1.92,2.28,1.28-1.15-3.84,5.25-10.88,2.01-13.52l-74.98-26.46c-3.97,15.01,3.28,9.83,13.22,12.23,7.75,1.86,12.93,9.16,16.94,15.57,2.55,1.49,12-4.13,15.58-4.62,9.58-1.31,19.19,9.04,24.95,15.52Z"/>
        <path class="cls-1" d="M114.73,54.49c-6.06,6.7-13.82,17.4-17.97,25.24-1.49,2.8-6.38,11.43-4.82,14.07l31.79,21.19c.42-6.62,2.53-13.61,4.51-19.99,4.42-14.24,10.59-26.79,17.44-39.92-5.23-.69-13.98-10.12-17.69-10.92-3.44-.74-10.85,7.66-13.26,10.33Z"/>
        <path class="cls-1" d="M80.74,92c-.29-.37-.69-.65-1-1-1.15-1.29-1.87-1.89-3-3-1.06-1.04-1.63-1.83-3-3-1.39-1.19-1.67-3.84-5-3-.19.9.24,2.32,0,3-3.94,11-13.04,22.34-13.94,34.64-.45,6.17,1.83,9.04,4.94,13.36.25.34.1,1.11,1,2,.7.69,1.06,1.22,2,2-.35,1.98,7,9.16,8,8,.45-17.24,6.05-34.58,11.83-50.7.15-1.89-1.39-1.75-1.83-2.29Z"/>
        <polygon class="cls-1" points="201.74 17.98 213.67 21.97 220.73 8 203.01 15.75 201.74 17.98"/>
        <path class="cls-1" d="M312.74,23.99c.85-2.87-2.24-4.37-3-5.99-1.24-2.61-1.7-8.73-5.45-8.01-1.72.33-9.11,5.98-12.59,7.47-6.72,2.88-13.95,4.55-21.34,4.49-1.24.23-.43,1.53-.63,2.04-1,2.5-1.43,4.03-1,7,15.09.68,29.56-3.58,44.01-7.01Z"/>
        <path class="cls-1" d="M347.74,20c.27.03.74.07,1,0l2.85,3.65,9.15,6.35c1.09-1.13-6.78-8.39-7.97-9.56-1.11-1.09-2.77-1.2-3.02-1.43-.16-.15-.47-2.23-1.94-3.54-.89-.8-5.18-4.09-6.05-3.46l-.89,4.85c2.12.56,3.91,2.58,5.88,3.15.28.08.65-.04,1,0Z"/>
        <path class="cls-1" d="M197.74,12.53c3.03-.8,11.94-4.61,14.89-6.14,1.61-.83,4.41-2.14,4.1-4.39-6.28-.41-11.55,3.69-17.53,4.96l-6.46,4.52c1.5,2.11,2.89,1.61,5,1.05Z"/>
        <path class="cls-1" d="M320,20.86c1.08-.16,7.26-3.47,7.73-4.37,1.01-1.93-2.83-1.67-3.99-2.49-4.23-2.97-7.96-6.06-12.99-8-.19,3.96,3.14,6.78,4.99,10,1.07,1.86.32,5.44,4.27,4.86Z"/>
        <path class="cls-1" d="M67.74,62.99l16.99-21.99c-2.15-1.82-13.94,7.62-15.45,10.04-2.42,3.87-1.42,7.61-1.54,11.95Z"/>
        <path class="cls-1" d="M174.75,25.51l14.55-8.52c.62-.72-.45-3.84-.62-3.95-.65-.44-2.21-.25-3.01.63-3.6,3.98-6.84,8.49-10.92,11.84Z"/>
        <path class="cls-1" d="M27.73,88c-2.62-.56-1.55.57-2.09,1.44-1.76,2.9-3.25,6.19-3.91,9.56-6.55,11.73-5.78,19.77-3.99,33l13.78-22.76c.72-2.24-1.19-3.74-1.79-5.24l-2-16Z"/>
        <path class="cls-1" d="M74.91,72.75c-.78,3.08,2.63,6.32,4.83,8.25.35.31.64.7,1,1,.18,1.05,1.72,1.58,2,2,1,1.52.28,3.69,2.99,3,1.54-5.71,5.21-10.55,7.77-15.74.38-.77.05-1.86.25-2.25.53-.09,1.23.27,1.78-.2l12.22-17.8c.82-.57,1.63-.97,2-2l3-3c2.16-.76,3.59-3.39,5-5,.35-.39,2.58-1.33,2-1.99-.62-.13-1.58.18-2,0-2.37-1.05-3.11-5.72-7.26-4.83-3.84.83-16.54,13.74-19.74,17.33-1.97,2.21-6.42,7.2-8.02,9.26-1.09,1.4-7.59,11.14-7.81,12Z"/>
        <path class="cls-1" d="M367.41,27.38c.87,1.04,2.2,2.45,2.33,2.62,4.6,6.24,7.02,14.85,13.64,19.84l16.35-9.36c.34-1.39-6.18-6.26-7.66-7.33-3.36-2.43-9.13-6.34-12.67-8.34-1.48-.84-2.94-1.63-4.67-1.82-2.95-2.02-5.91-4.45-9.32-6.18-4.59-2.32-10.66-4.95-15.68-5.81,6.4,5.05,12.65,10.3,17.67,16.37Z"/>
        <path class="cls-1" d="M122.67,32.61c.9.92.98,2.3,1.08,2.38,2.02,1.47,2.08-1.7,2.93-2.49,7.21-6.7,20.08-13.86,28.74-19.3,3.17-1.99,7.39-2.25,8.3-6.19-3.21-2.69-24.94,8.23-29.02,10.47-2.95,1.62-12.43,6.8-14.04,8.95-2.94,3.93.24,4.38,2,6.18Z"/>
        <path class="cls-1" d="M135.74,37c-1.11,1.12-3.52,1.6-2.99,3.98l17.36,9.1,13.63-21.08c.36-.28.69-.67,1-1,.59-.62,1.06-1.04,1-2,5.56-5.26,11.48-10.18,16.98-15.51-10.06,1.98-21.41,8.25-30.29,13.7-5.8,3.56-11.96,8.03-16.69,12.81Z"/>
        <path class="cls-1" d="M55.04,66.69c.32.47,1.35.43,2.01,1.55.97,1.65-.39,4.54,2.68,3.76l.51-17.99c-5.9,3.74-10.14,9.22-14.98,14.02-2.25,2.23-5.65,3.74-7.53,6.47-5.31,7.69-2.36,17.89-1.98,26.5l4.47-10.02c5.75-8.35,9.59-17.68,13.53-26.97,1.76-.31.6,1.67,1.29,2.68Z"/>
        <path class="cls-1" d="M208.48,529.76c-2.03-13.19-7.12-31.07-10.8-44.2-1.04-3.71-3.56-7.08-3.94-11.56-.47-5.53-2.24-16.92-5.24-24.26-1.22-2.97-5.41-11.29-9.12-10.58-3.85.73-5.65,12.26-10.36,13.66-6.73,2-22.9-11.88-18.79,5.2,2.01,8.37,15.07,30.2,19.51,39.98,4.02,8.85,6.48,19.68,12.99,27-.24-4.93-2.49-9.67-4.24-14.25-1.92-5.05-5-9.63-6.75-13.75-2.45-5.75-4.24-11.91-6.82-17.68-1.55-3.46-12.22-22.31-10.17-24.32,4.9-.54,9.61,3.25,13.54,5.95l9.44,19.04c.54-6.68-4.32-14.07-4.06-20.49.06-1.47,4.85-16.08,7.06-13.5.55,12.94,3.87,25.55,7,38,1.05,14.4,12.72,33.59,16.82,47.68l2.46,4.32h1.74c.03-2.08.04-4.16-.28-6.24Z"/>
        <path class="cls-1" d="M85.74,506.99l11.31-7.17,17.19-5.82c.86-.85-.95-2-1.57-2.45-15.49-11.19-37.41-11.58-55.79-12.72-8.04-15.3-17.3-29.92-23.17-46.32-6.31-17.62-9.66-36.19-12.6-54.62l-7.39-1.39c.49,22.45,6.6,47.65,15.83,68.17,4.76,10.57,13.71,22.45,17.62,32.38.53,1.36.75,2.49.56,3.94-2.74-.15-5.24.74-7.69,1.82-3.5,1.54-4.94,4.25-8.3,5.18C13.05,453.03.4,413.89,1.75,373.7l-1.75-1.05v65.05c.98,3.41,1.91,6.84,2.73,10.29l-2.73-.28v6.52c.6-.13,1.07-.21,1.32-.2,2.97.07,2.98,6.23,3.95,8.93,2,5.53,5.53,13.56,8.28,18.72,4.13,7.75,13.45,17.87,16.42,24.58.68,1.54.91,3.08.75,4.74-2.9-2.34-6.52-3.83-9.48-6.01-7.34-5.39-15.55-13.1-21.24-21v6.54c8.64,9.58,19.6,17.71,29.74,23.48.93,1.36-13.74,9.04-16.43,7.99l-.55,1.97c5.14,2.94,9.19,7.94,13.8,12.02h10.49l1.7-33c1.43-.27,2.46.25,3.71.78,5.82,2.46,12.79,8.33,19.61,11.39,4.65,2.09,9.57,3.88,14.58,4.92l-1.13,15.9h6.55l1.68-24,57.26,24h24.06c-4.34-1.17-8.7-2.41-13.09-3.73-22.41-6.76-44.94-15.67-66.23-25.28ZM78.73,493.99l-5.99,1.02,6.99,2-5.99,1.99c-1.68,1.49,4.3,3.95,5,4-2,3.55-.52,7.82-1,11.52-.15,1.15.42,2.01-1.46,1.45-12.72-3.79-26.44-12.93-36.52-21.47,9.21-10.94,28.14-7.54,40.98-6.5l-4,3.01,2,2.98Z"/>
        <path class="cls-1" d="M277.43,425.1c-4.4,1.15-12.64,19.22-15.46,23.61-.63.97.11,1.79-2.22,1.29-2.56-7.5-5.72-15.08-9.53-22.02-.41-.76-.27-2.82-1.97-1.97-1.91.95-8.15,10.55-8.17,13.3-.14,15.19,2.94,35.6,4.78,51.07.6,5.06,4.31,34.69,6.65,45.62h3.27l.95-49.52,2-1.48c2.05,16.33.91,33.19,3.01,49.49.05.37.09.91.15,1.51h3.11c1.02-19.76,1.01-39.71.78-59.55-.06-5.26-1.44-10.19-1.09-15.99.64-10.63,6.49-24.42,13.54-32.43,7.56,6.23,6.96,16.44,6.49,25.47-1.19,22.91-4.18,45.98-5.04,68.96-.14,3.83-.41,9.74-.02,13.54h2.15c1.47-33.21,8.01-66.04,8.7-99.29-.65-2.93-8.72-11.27-12.09-11.6Z"/>
        <path class="cls-1" d="M119.75,535.48c.35.18.71.34,1.06.51h5.92c-3.27-1.2-6.57-2.31-9.99-2.99.25,1.54,1.86,1.89,3.01,2.48Z"/>
        <path class="cls-1" d="M327.61,531.38c9-17.51,12.73-38.51,17.12-57.38.06-.24,1.26-1.11,1-2v-2c3.45-7.71,4.54-15.54,4-24l3.07.62c1.18,4.39,4.72,9.4,4.97,13.91.42,7.46-5.91,16.8-6.03,24.46l4.45-9.03c1.76-3.35,1.93-11.45,4.07-13.93,1.16-1.35,14.5-8.1,15.47-7.03.71,7.76-4.48,15.01-7.52,22.02-.45,1.04-.23,2.4-.48,2.98-1.1,2.51-3.57,5.68-4.86,8.64-5.77,13.27-12,26.46-16.13,40.36,2-.74,2.97-2.86,3.87-4.62,7.19-14.01,12.68-29.2,19.12-43.38,4.66-10.25,14.08-20.32,9.96-31.96-1.64-1.39-12.79,5.11-17.25,3.81-3.78-1.11-5.66-12.62-9.41-13.72-3.18-.86-5.46,2.24-7.28,4.39-6.09,7.22-5.02,14.73-7.02,23.48-3.26,14.22-7.79,28.38-10.73,42.77-1.76,8.59-3.25,17.51-4.26,26.23,2-.74,2.97-2.86,3.87-4.62Z"/>
        <path class="cls-1" d="M3.7,516.55c-.06-.28-2.02-2.59-3.7-4.52v7.81c2.17-.91,4.02-1.86,3.7-3.28Z"/>
        <path class="cls-1" d="M413.18,53.05c-2.25-2.75-3.34-7.8-7.77-8.92l-18.57,11.34c10.32,16.96,19.17,35.19,23.91,54.52h2.98s.17-2.77.17-2.77c4.55.29,25.27-13.03,24.71-16.55-5.92-10.93-10.89-23.39-19.34-32.72-1.68-1.86-4.38-2.81-6.09-4.91Z"/>
        <path class="cls-1" d="M451.76,47.47c3.54,3.75,7.08,8.6,10.37,12.65.85,1.05.01,2.5,2.59,1.87,1.3-13.06-9.24-18.64-19.99-21.99-1.38,1.28,5.92,6.29,7.02,7.47Z"/>
        <path class="cls-1" d="M405.71,34.6c3.13,1.32,5.11-2.19,6.96-4.24.8-3.6-20.52-14.78-24.25-16.54-7.52-3.54-17.57-7.56-25.63-9.36-1.11-.25-5.02-1.54-5.04.53,1.58-.03,2.96.42,4.34,1.16,15.31,8.25,30.14,17.43,43.62,28.45Z"/>
        <path class="cls-1" d="M478.22,68.01l17.51,32.99v-17.5c0-7.65-15.5-21.88-21.51-26.49-.94-.72-3.39-2.97-4.5-1.5l4.03,19.48c2.09-.22,1.6-10.47,4.48-6.99Z"/>
        <path class="cls-1" d="M419.77,46.47c2.86,2.97,8.64,9.95,10.97,13.53.35.54.41,2.14,1.15,3.31,4.62,7.29,9.64,14.4,12.36,22.7l12.51-12.49c-2.15-5.35-6.56-9.29-10.02-13.52-.29-.35-.4-1.84-1.43-3.03-7.22-8.36-16.78-16.89-26.08-22.8l-6.47,6.33c1.66,2.65,5.11,3.99,7.01,5.97Z"/>
        <path class="cls-1" d="M460.73,81c-1.52-.41-1.66.39-2.5.98-2.32,1.61-10.52,9.96-10.55,12.47l12.57,49.52c5.5-5.52,14.16-13.26,14.58-21.46.44-8.58-6.7-27.4-10.79-35.27-.81-1.57-3.83-2.77-3.3-6.25Z"/>
        <path class="cls-1" d="M509.74,124c.18.47,1.82,8.35,4,6-.34-5.73,1.39-10.53.88-16.38-.53-6.08-5.28-18.14-8.64-23.33-.49-.77-.52-2.59-2.22-1.29-.82.63-3.23,19.04-3.02,20.42.29,1.86,7.16,14.09,9,14.57Z"/>
        <path class="cls-1" d="M220.78,23.96c.59.26,1.64-.15,1.95.03.85.48,1.2,1.23,2.7,1.75,4.59,1.59,36.41,7.02,38.3,5.25.54-2.71-.38-4.63-1-7-.21-.79.23-2.05-.01-2.97-5.14.37-10.08-1.2-14.99-2.53-3.66-.99-18.5-7.53-19.54-7.51-2.16.04-8.5,11.57-7.41,12.98Z"/>
        <path class="cls-1" d="M410.24,395c.65-.33.65-.67,0-1v1Z"/>
        <path class="cls-1" d="M364.74,417c-3.43,3.18,16.2,9.06,17.99,8.99-.76-7.64-11.59-9.81-17.99-8.99Z"/>
        <path class="cls-1" d="M482.51,400.72c-2.26-10.98-33.34-48.63-42.77-57.23-4.21-3.84-9.41-7-13.7-10.83-.62-.55-.91-3.11-2.29-2.16l13.96,23.02c-.67.62-2.26-.66-2.89-1.11-15.4-10.91-27.18-26.03-39.08-40.4,1.79,5.95,3.26,12.18,5.51,17.98,9.76,25.24,29.3,61.29,49.98,79.02,1.13.97,1.64,2.41,3.5,1.99l-33.99-53.51c-.06-3.56,2.87-.18,4.02.99,17.29,17.5,33.69,36.89,48.39,56.61,6.06,8.13,11.22,17.01,17.58,24.92.05-2.09.15-4.18-.23-6.26-1.97-10.85-5.74-22.12-7.98-33.02ZM420.24,355v-1c.65.33.65.67,0,1ZM449.24,365v-1c.65.33.65.67,0,1ZM471.73,395.99l-5.23-5.27-15.76-24.72c1.86-.31,2.89,1.3,4.02,2.47,4.29,4.44,15.49,16.85,16.75,22.25.4,1.74.25,3.52.22,5.27Z"/>
        <path class="cls-1" d="M384.56,401.16c-.33-.56-9.46-3.54-9.82-3.16-1.93,3.78,9.21,7.77,9.99,6.99-.13-1.19.39-2.87-.17-3.83Z"/>
        <path class="cls-1" d="M381.64,407.08l-8.9-2.09-1.96,7.37c.65,2.23,11.28,5.31,11.95,4.63l-1.09-9.91Z"/>
        <rect class="cls-1" x="455.74" y="412" width=".98" height="1.99"/>
        <path class="cls-1" d="M12.24,261v1c.65-.33.65-.67,0-1Z"/>
        <path class="cls-3" d="M278.69,522.45c.85-22.98,3.85-46.05,5.04-68.96.47-9.03,1.07-19.24-6.49-25.47-7.05,8.01-12.9,21.8-13.54,32.43-.35,5.81,1.03,10.73,1.09,15.99.23,19.84.23,39.79-.78,59.55h14.68c-.4-3.81-.13-9.71.02-13.54Z"/>
        <path class="cls-3" d="M257.73,485l-2,1.48-.95,49.52h6.11c-.06-.6-.1-1.14-.15-1.51-2.1-16.3-.96-33.16-3.01-49.49Z"/>
        <path class="cls-3" d="M443.68,508.44l1.05-2.42-26.98-11.52c12.4-10.31,28.72-13.92,44.49-15.49,4.6-.46,11.93,1.64,14.96-2.04,4.83-10.3,11.01-19.93,15.71-30.29,14.03-30.96,19.63-65.73,18.83-99.67l6.01,1.48c1.14.72.89,1.87,1.03,2.97.95,7.51-.31,22.07-1.06,30.04-2.17,22.9-8.89,47.85-18.13,68.87-1.88,4.28-15.27,28.41-14.8,30.02,1.48,2.16,4.48,1.93,6.85,3.22,2.79,1.52,4.45,5.64,7.13,3.92,3.54-2.28,14.08-28.55,16.01-33.98,8.51-23.87,16.23-51.6,17.01-76.99.27-8.94-.88-17.66-1.04-26.54l5.26,3.73v-16.09c-17.11-19.29-33.94-39.13-49.09-61.32-1.27-1.85-3.12-4-3.16-6.33,1.14-1.05,10.48,3.92,12.75,4.74,5.83,2.13,11.96,4.72,18.24,4.25l-1-5.99c-2.68-2.87-17.39-17.11-17.99-18.51-.53-1.22.19-1.86,1.47-1.47,9.84,2.94,26.96,20.99,38.78,34.73v-20.94c-20.49-20.79-42.37-40.49-65.36-58.2-22.11-17.03-38.47-27.12-64.65-37.35-15.56-6.08-31.74-10.99-47.24-17.26-.17-1.84,3.3-1.01,4.37-.87,24.02,3.12,46.37,13.17,68.62,21.88.81-.79-1.99-3.95-2.62-4.87-18.69-27.49-46.58-50.41-73.36-69.63l23.98,8.5-16-14.5c.65-1.37,2.55.14,3.5.5,6.58,2.46,12.86,5.7,19.5,7.99-12.3-17.29-33.76-29.05-53.01-37.48-28.35-12.41-56.38-19.59-87.19-13.22-41.82,8.64-70.99,24.65-99.44,56.06-3.65,4.03-4.55,10.47-6.8,12.7-2.74,2.72-12.74,8.09-16.86,11.14-22.72,16.81-51.86,40.06-52.17,70.83,16-10.29,34.89-16,53.27-20.73,9.38-2.41,26.77-7.52,35.69-4.25,10.4,3.81-2.49,10.9-1.98,17.95,3.1-2.08,6.97-3.79,9.86-6.13,1.57-1.27,3.42-5.97,5.14-3.85,1.14,1.39,3.69,10.51,3.5,12.41-.45,4.44-6.83,13.08-7.97,18.1l5.98-4.01c1.71-1.71,7.32-9.86,8.51-10.49,1.2-.63,1.74.19,1.44,1.43-.96,3.91-3.16,9.42-4.78,13.23-7.82,18.5-18.69,33-17.16,54.82.07.94,1.04,9.05,2.98,6.51.8-8.79,3.4-18.39,7.14-26.37.45-.95,1.38-3.85,2.84-3.15-4.29,19.17-3.47,36.63.33,55.7,2.14,10.72,6.02,20.99,7.68,31.81,2.47,4.69-16.54-28.01-30.27-53.26-1.63-3-12.77-25.62-11.72-26.73l11.99,2,.05-4.34c-4.83-3.42-13.8-1.89-16.56-7.64-2.95-6.14-5.85-19.8-7.17-26.83-1.86-9.93-3.09-20.06-3.32-30.18-2.07-.24-2.7-.13-3.89,1.6-3.57,5.2-.84,22.04.21,28.58,1.39,8.73,4.22,17.11,5.68,25.81-.85.88-14.67-4.6-16.97-5.52-4.15-1.68-19.08-7.96-21.57-10.43-3.18-3.16-5.82-25.02-7.96-25.02-9.47,4.52-3.72,12.04-2.5,19.98-4.72-.35-7.49-5.42-10.09-7.4-2.47-1.89-5.09-3.15-7.91-5.59-1.79-1.55-2.46-1.97-4-4-1.15-.28-1.41-1.35-2-2-.31-.35-.67-.67-1-1-.33-.33-.67-.66-1-1-.65-.67-1.26-1.18-2-2-1.72-1.91-4.09-3.02-4-6-4.72-6.35-8.52-13.75-6.53-22.03.92-1.36,1.88-.56,2.9.2,1.87,1.38,3.66,4.59,6.31,5.65l7.3,3.69c-8.37-14-10.16-30.52-7.97-46.51,1.74-.45,2,.72,3,1.49,3.97,3.03,8.04,8.97,11.99,12.51.12.11,1.16-.36,1.77.24.45.45.09,1.63.23,1.76.2.18,2.38-.59,2.08,1.43l-.08,26.57h1c2.73-5.88,6.75-12.69,7.01-19l3.99.57,3-4.08c-6.06-2.55-6.28-4.83-5.72-10.96,1.44-15.95,4.84-31.32,9.74-46.53,4,.31,6.08,4.09,9.26,6.23,4.64,3.13,10.74,6.74,15.71,9.29,3.98,2.04,9.84,5.73,14.03,5.01,3.98-2.11,7.39-23.11,9.27-28.76,3.73-11.21,9.93-22.09,15.7-32.36l1.33-.29c11.44,3.52,26.19,11.04,37.68,5.86l-32.3-10.18c-1.15-.4-1.75-.99-1.73-2.29.03-2.29,9.29-13.44,11.57-15.5,2.93-2.63,25.52-17.07,27.98-16.98,3.36.12,10.07,6.71,14.5,5.96,1.66,1.85-13.88,29.47-11.49,35,2.67-.6,4.64-3.9,5.88-6.12,3.52-6.35,6.32-18.89,10.56-24.18.88-1.1,2.25-1.61,3.61-1.64,5-.11,15.95,3.96,22.08,4.8,6.88.94,13.78,1.26,20.73,1.27l1.5,1.5.15,8.36,2.99-3,2,5.01v-11c15.76-.11,31.11-4.29,46.34-7.89l13.62,28.18,5.05,1.71-13.06-32.4c5.02-1.42,10.9-6.87,16-5.05,7.17,5.18,37.1,22.4,37.1,31.01-5.29,8.13-18.18,8.32-27.04,10.46.85,6.5,8.58,3.39,13.01,2.51,6.81-1.36,13.28-3.73,19.69-6.32,1.44-.15,2.02.91,2.76,1.86,4.34,5.56,10.71,18.54,13.72,25.28,1.7,3.81,10.26,25.76,9.7,27.99l-11.85,8.19c3.91,4.76,7.56.37,11.48-1.52.79-.38.98-1.77,2.02,0,1.89,3.22,1.73,11.47,3.41,15.59,1.25,3.07,4.52,4.07,5.09,7.42,1.82-.29,1.08-5.15.98-6.48-.31-3.98-3.89-18.35-2.52-20.53.64-1.02,17.59-10.66,20.47-12.55,2.21-1.46,3.81-4.6,7.05-4.43,3.01,9.47,5.95,18.99,7.7,28.81,1.05,5.91,3.32,17.17,2.29,22.66-1.11,5.89-14.92,8.29-16.84,15.03,2.85,7.78,15.96-7.61,17.86-5.5,1.18,11.58-6.58,24.65,7,31-.46-3.26.86-6.29,1.05-9.46.26-4.28-.75-28.2.11-29.4.4-.56,3.06-.66,3.8-1.68l14.56-15.46c3.49,14.89,2.55,31.23-4.5,44.99l8-4.99c.32-.85,7.22-7.85,7.99-7-.08,2.97-.48,6.09-.99,9-.34,1.94-.66,4.52-2,6-.07.33.12.92,0,1-2.59,7.38-6.38,14.25-11,20.49,9.43,5.51,17.08,13.58,25.5,20.5l18.5-18.48V36c-10.69.21-21.4.05-31.89-2.1l.79-19.8c-17.13-4.28-34.16-9-51.09-14.09h-36.48c12.51,3.84,25.06,7.54,37.67,11.01.26,1.73-2.34,1.04-3.39.89-2.99-.44-6.75-1.48-9.82-2.19-13.17-3.03-26.37-6.21-39.49-9.71h-75.29c2.76,1.09,5.2-.1,8.01.39,6.15,1.08,11.1,5.82,16.86,7.72l.11,2.89-1.79-.73-.8,1.79-1.67-.22c-5.34-3.52-13.32-5.33-18.44-8.63-1.34-.86-2.69-1.2-2.28-3.21h-18.53c-14.13,8.49-32.75,9.56-49.34,0h-101.39c-17.24,4.5-32.51,8.28-36.94,9.32-7.79,1.82-15.93,4.22-23.81,4.67L128.25,0h-37.44c-16.45,4.82-32.97,9.43-49.5,13.88l.31,20.01c-10.52,1.83-21.23,2.35-31.9,2.1l-.04,154.55c2.68,10.18-2.35,16.03,6.03,23.97,12.65,11.98,28.74,17.11,36.19,34.81,6.21,14.75,8.15,42.04-12.17,45.67,3.89-10.6,9.92-15.23,8.98-27.48-1.6-20.93-17.81-27.84-31.46-39.54-5.19-4.45-11.09-10.09-17.26-16.53v13.13c5.65,4.22,7.31,10.33,10.93,15.75,5.8,8.68,11.55,17.09,19.81,23.68-10.55-.69-19.33-8.5-25.38-16.65-.27-.36-1.12-.35-1.62-.34.86,1.51,1.47,3.74,2.69,5.77,1.82,3.04,1.34-.03,2.29,5.56.15.91,3.72.46,1.5,2.69-3.56-1.4-6.99-3.02-10.22-4.9v6.39c6.69,3.52,11.48,4.54,20.45,8.28,1.36.57,9.11,4.3,9.25,4.8-11.75,26.61-3.9,59.65,7.84,85.1,4.88,10.57,12.65,20.2,17.21,30.79l-9.99-10.02c-22.92-28.58-38.05-67.91-24.04-103.92-4.38-4.31-10.02,1.81-14.75.81-1.88-.4-3.92-1.33-5.98-2.55v13.79l3.74.4c.5,2.12-1.44,2.19-3.74,1.6v6.11c.85.61,1.62,1.35,2.23,2.29l1.5,13.99c-.5.55-1.9-.08-3.73-1.34v8.92c1.62,1.14,3.09,2.28,4.24,3.42,1.28,1.27,2.64,3.08,2.49,5-2.25-.48-4.51-1.19-6.73-2.09v7.39c6.96,3.45,8.5,2.02,11.9,10.04.76,1.8,1.78,3.67,1.83,5.66-.96.98-7.38-3.48-13.73-8.06v10.14c5.18,3.56,11.55,5.89,15.65,9.5,1.14,1,2.47,1.53,2.08,3.41-6.09-.55-12.33-2.67-17.73-6.02v12.68l1.75,1.05c-1.35,40.19,11.29,79.33,30,114.3,3.36-.94,4.8-3.64,8.3-5.18,2.45-1.08,4.95-1.97,7.69-1.82.19-1.45-.02-2.59-.56-3.94-3.92-9.93-12.87-21.8-17.62-32.38-9.23-20.52-15.34-45.72-15.83-68.17l7.39,1.39c2.93,18.43,6.29,37,12.6,54.62,5.87,16.4,15.13,31.02,23.17,46.32,18.38,1.13,40.3,1.52,55.79,12.72.62.45,2.44,1.6,1.57,2.45l-17.19,5.82-11.31,7.17c21.29,9.61,43.81,18.52,66.23,25.28,4.38,1.32,8.74,2.56,13.09,3.73h41.97l-2.46-4.32c-4.1-14.08-15.78-33.28-16.82-47.68-3.14-12.45-6.45-25.06-7-38-2.22-2.58-7,12.04-7.06,13.5-.27,6.42,4.6,13.81,4.06,20.49l-9.44-19.04c-3.93-2.7-8.65-6.49-13.54-5.95-2.05,2.01,8.63,20.86,10.17,24.32,2.58,5.77,4.37,11.93,6.82,17.68,1.76,4.12,4.83,8.7,6.75,13.75,1.75,4.59,4,9.32,4.24,14.25-6.51-7.32-8.97-18.15-12.99-27-4.44-9.79-17.49-31.61-19.51-39.98-4.11-17.08,12.06-3.21,18.79-5.2,4.7-1.4,6.51-12.93,10.36-13.66,3.71-.7,7.9,7.61,9.12,10.58,3,7.34,4.77,18.73,5.24,24.26.38,4.48,2.9,7.85,3.94,11.56,3.68,13.13,8.77,31.01,10.8,44.2.32,2.08.32,4.16.28,6.24h42.75c-2.34-10.93-6.05-40.56-6.65-45.62-1.85-15.47-4.93-35.88-4.78-51.07.03-2.75,6.26-12.35,8.17-13.3,1.69-.85,1.55,1.21,1.97,1.97,3.82,6.94,6.97,14.52,9.53,22.02,2.34.5,1.6-.31,2.22-1.29,2.82-4.38,11.07-22.46,15.46-23.61,3.37.34,11.44,8.67,12.09,11.6-.69,33.25-7.23,66.08-8.7,99.29h42.92c1.01-8.72,2.5-17.64,4.26-26.23,2.95-14.39,7.47-28.55,10.73-42.77,2-8.74.93-16.25,7.02-23.48,1.82-2.15,4.1-5.26,7.28-4.39,3.75,1.1,5.62,12.61,9.41,13.72,4.45,1.3,15.61-5.19,17.25-3.81,4.12,11.64-5.3,21.71-9.96,31.96-6.44,14.18-11.94,29.37-19.12,43.38-.9,1.76-1.87,3.88-3.87,4.62,4.13-13.9,10.36-27.09,16.13-40.36,1.29-2.96,3.76-6.13,4.86-8.64.25-.58.03-1.94.48-2.98,3.04-7.01,8.23-14.26,7.52-22.02-.97-1.07-14.31,5.68-15.47,7.03-2.14,2.49-2.31,10.58-4.07,13.93l-4.45,9.03c.12-7.67,6.46-17.01,6.03-24.46-.26-4.51-3.79-9.53-4.97-13.91l-3.07-.62c.53,8.46-.55,16.3-4,24v2c.26.89-.94,1.76-1,2-4.39,18.87-8.12,39.87-17.12,57.38-.9,1.76-1.86,3.88-3.87,4.62h42.09c.37-.1.74-.19,1.11-.28,26.35-6.91,51.78-16.48,76.72-27.28ZM413.9,107.23l-.17,2.77h-2.98c-4.74-19.33-13.6-37.56-23.91-54.52l18.57-11.34c4.44,1.12,5.53,6.17,7.77,8.92,1.71,2.09,4.41,3.05,6.09,4.91,8.45,9.33,13.42,21.79,19.34,32.72.56,3.52-20.16,16.84-24.71,16.55ZM474.81,122.52c-.42,8.2-9.08,15.94-14.58,21.46l-12.57-49.52c.03-2.51,8.23-10.86,10.55-12.47.85-.59.99-1.39,2.5-.98-.54,3.48,2.48,4.68,3.3,6.25,4.09,7.87,11.23,26.69,10.79,35.27ZM503.75,89c1.7-1.3,1.73.52,2.22,1.29,3.35,5.19,8.11,17.25,8.64,23.33.51,5.85-1.22,10.64-.88,16.38-2.17,2.36-3.82-5.52-4-6-1.84-.48-8.71-12.72-9-14.57-.22-1.39,2.2-19.79,3.02-20.42ZM474.22,57.01c6.01,4.61,21.51,18.84,21.51,26.49v17.5l-17.51-32.99c-2.87-3.49-2.39,6.77-4.48,6.99l-4.03-19.48c1.11-1.47,3.56.78,4.5,1.5ZM444.74,40c10.75,3.35,21.29,8.93,19.99,21.99-2.58.62-1.74-.82-2.59-1.87-3.29-4.05-6.84-8.9-10.37-12.65-1.11-1.17-8.4-6.18-7.02-7.47ZM419.23,34.17c9.3,5.92,18.86,14.44,26.08,22.8,1.03,1.19,1.14,2.67,1.43,3.03,3.46,4.23,7.87,8.16,10.02,13.52l-12.51,12.49c-2.72-8.3-7.74-15.41-12.36-22.7-.74-1.16-.8-2.76-1.15-3.31-2.33-3.58-8.11-10.56-10.97-13.53-1.91-1.98-5.35-3.32-7.01-5.97l6.47-6.33ZM362.78,4.45c8.06,1.81,18.11,5.82,25.63,9.36,3.73,1.76,25.05,12.94,24.25,16.54-1.85,2.05-3.83,5.57-6.96,4.24-13.49-11.02-28.31-20.2-43.62-28.45-1.38-.74-2.76-1.2-4.34-1.16.01-2.07,3.93-.78,5.04-.53ZM365.42,16.82c3.41,1.73,6.37,4.16,9.32,6.18,1.73.19,3.19.98,4.67,1.82,3.54,2,9.31,5.91,12.67,8.34,1.47,1.06,8,5.93,7.66,7.33l-16.35,9.36c-6.63-5-9.05-13.6-13.64-19.84-.12-.17-1.46-1.58-2.33-2.62-5.03-6.07-11.27-11.32-17.67-16.37,5.02.86,11.09,3.48,15.68,5.81ZM341.75,12c.87-.63,5.16,2.66,6.05,3.46,1.46,1.3,1.77,3.39,1.94,3.54.25.23,1.91.34,3.02,1.43,1.19,1.17,9.06,8.43,7.97,9.56l-9.15-6.35-2.85-3.65c-.26.07-.73.03-1,0-.35-.04-.72.08-1,0-1.97-.57-3.76-2.58-5.88-3.15l.89-4.85ZM323.74,14c1.17.82,5,.56,3.99,2.49-.47.9-6.64,4.21-7.73,4.37-3.94.58-3.2-3-4.27-4.86-1.85-3.22-5.18-6.04-4.99-10,5.03,1.94,8.76,5.03,12.99,8ZM269.74,24c.2-.51-.61-1.82.63-2.04,7.38.06,14.62-1.61,21.34-4.49,3.48-1.49,10.87-7.14,12.59-7.47,3.74-.72,4.21,5.39,5.45,8.01.77,1.62,3.85,3.12,3,5.99-14.45,3.44-28.91,7.69-44.01,7.01-.42-2.98,0-4.5,1-7ZM70.73,144.99c-1,1.16-8.35-6.02-8-8-.94-.78-1.3-1.31-2-2-.9-.89-.75-1.66-1-2-3.11-4.32-5.39-7.19-4.94-13.36.9-12.3,10-23.64,13.94-34.64.25-.69-.19-2.1,0-3,3.33-.84,3.6,1.81,5,3,1.37,1.17,1.94,1.96,3,3,1.13,1.11,1.85,1.71,3,3,.31.35.71.63,1,1,.43.54,1.97.4,1.83,2.29-5.79,16.12-11.38,33.46-11.83,50.7ZM128.24,95c-1.98,6.38-4.09,13.37-4.51,19.99l-31.79-21.19c-1.56-2.64,3.33-11.27,4.82-14.07,4.16-7.84,11.91-18.54,17.97-25.24,2.41-2.66,9.82-11.06,13.26-10.33,3.7.79,12.46,10.22,17.69,10.92-6.85,13.13-13.02,25.68-17.44,39.92ZM228.19,10.99c1.05-.02,15.89,6.52,19.54,7.51,4.91,1.33,9.84,2.9,14.99,2.53.24.93-.2,2.18.01,2.97.62,2.38,1.54,4.29,1,7-1.89,1.77-33.72-3.66-38.3-5.25-1.5-.52-1.85-1.27-2.7-1.75-.31-.18-1.36.23-1.95-.03-1.1-1.41,5.24-12.94,7.41-12.98ZM213.67,21.97l-11.93-3.99,1.27-2.23,17.72-7.75-7.06,13.97ZM199.2,6.96c5.98-1.27,11.25-5.37,17.53-4.96.31,2.26-2.49,3.56-4.1,4.39-2.95,1.53-11.86,5.34-14.89,6.14-2.11.56-3.5,1.06-5-1.05l6.46-4.52ZM188.68,13.04c.17.11,1.24,3.22.62,3.95l-14.55,8.52c4.08-3.35,7.32-7.85,10.92-11.84.8-.88,2.36-1.07,3.01-.63ZM165.74,26c.06.96-.41,1.38-1,2-.31.33-.64.72-1,1l-13.63,21.08-17.36-9.1c-.53-2.39,1.88-2.86,2.99-3.98,4.74-4.78,10.89-9.24,16.69-12.81,8.88-5.45,20.23-11.72,30.29-13.7-5.5,5.33-11.43,10.25-16.98,15.51ZM120.67,26.43c1.61-2.15,11.09-7.33,14.04-8.95,4.08-2.24,25.81-13.16,29.02-10.47-.92,3.94-5.14,4.2-8.3,6.19-8.66,5.44-21.54,12.6-28.74,19.3-.85.79-.91,3.96-2.93,2.49-.11-.08-.18-1.46-1.08-2.38-1.77-1.8-4.95-2.25-2-6.18ZM110.48,34.17c4.15-.9,4.89,3.78,7.26,4.83.42.18,1.38-.12,2,0,.59.66-1.65,1.6-2,1.99-1.41,1.61-2.84,4.24-5,5l-3,3c-.37,1.03-1.18,1.43-2,2l-12.22,17.8c-.55.47-1.25.11-1.78.2-.19.39.13,1.49-.25,2.25-2.56,5.2-6.23,10.03-7.77,15.74-2.7.69-1.99-1.48-2.99-3-.28-.42-1.82-.95-2-2-.36-.3-.65-.69-1-1-2.2-1.93-5.6-5.17-4.83-8.25.21-.85,6.72-10.6,7.81-12,1.6-2.06,6.04-7.05,8.02-9.26,3.21-3.58,15.91-16.5,19.74-17.33ZM69.28,51.04c1.51-2.42,13.3-11.86,15.45-10.04l-16.99,21.99c.11-4.34-.88-8.08,1.54-11.95ZM31.52,109.24l-13.78,22.76c-1.79-13.23-2.56-21.27,3.99-33,.65-3.36,2.15-6.66,3.91-9.56.53-.88-.53-2,2.09-1.44l2,16c.6,1.51,2.5,3,1.79,5.24ZM35.74,100.99c-.38-8.62-3.32-18.81,1.98-26.5,1.88-2.73,5.28-4.24,7.53-6.47,4.85-4.8,9.08-10.28,14.98-14.02l-.51,17.99c-3.07.78-1.71-2.12-2.68-3.76-.66-1.11-1.69-1.08-2.01-1.55-.69-1.02.47-3-1.29-2.68-3.94,9.29-7.78,18.62-13.53,26.97l-4.47,10.02ZM12.24,262v-1c.65.33.65.67,0,1ZM490.73,440c-6.35-7.91-11.52-16.79-17.58-24.92-14.7-19.72-31.1-39.11-48.39-56.61-1.15-1.16-4.07-4.55-4.02-.99l33.99,53.51c-1.86.41-2.37-1.03-3.5-1.99-20.68-17.73-40.22-53.78-49.98-79.02-2.24-5.8-3.72-12.03-5.51-17.98,11.9,14.38,23.69,29.5,39.08,40.4.63.45,2.22,1.73,2.89,1.11l-13.96-23.02c1.38-.95,1.67,1.61,2.29,2.16,4.29,3.83,9.5,6.99,13.7,10.83,9.43,8.61,40.51,46.26,42.77,57.23,2.24,10.9,6.01,22.17,7.98,33.02.38,2.08.28,4.17.23,6.26ZM456.73,412v1.99h-.98v-1.99h.98ZM410.24,395v-1c.65.33.65.67,0,1ZM384.73,404.99c-.78.78-11.92-3.21-9.99-6.99.36-.37,9.49,2.6,9.82,3.16.56.96.04,2.64.17,3.83ZM370.78,412.36l1.96-7.37,8.9,2.09,1.09,9.91c-.67.69-11.3-2.4-11.95-4.63ZM382.73,426c-1.78.07-21.42-5.82-17.99-8.99,6.39-.81,17.23,1.36,17.99,8.99ZM350.23,306.01c-.31-1.04-1.18-3.37,0-4l16.15,17.85c3.25.63,9.91-8.54,12.34-6.85l23.01,62.99c-1.19,1.19-11.07-7.64-12.52-8.97-17.32-15.82-32.28-38.36-38.98-61.02ZM361.73,371.99c-6.29-2.12-12.43-8.32-15.4-14.09-.93-1.8-4.35-10.75-4.59-12.42-.26-1.8,1.08-2.19,1.98-1.47.19.15,1.25,3.06,2.2,4.31,5.74,7.59,13.11,14.5,15.82,23.68ZM496.73,398l-18.84-34.67c.16-3.23.8-.35,1.29.17,2.74,2.93,6.11,5.23,8.54,8.02,6.47,7.43,9.92,16.53,9.01,26.48ZM484.72,295.52c3.36,4.52,7.13,9.65,7.53,15.46l-23.18-19.81-9.31-5.68,31.49,43.49c-8.71-7.97-18.17-17.32-27.59-24.4-1.06-.8-7.65-5.88-6.93-2.07,9.04,12.4,17.52,25.16,26.2,37.81,6.04,8.79,13.68,15.84,16.81,26.68-1.08,1.11-7.02-5.42-8.02-6.47-10.71-11.22-20.77-24.32-31.46-35.54-4.05-4.25-16.77-17.84-20.95-20.05-.94-.49-2.85-1.83-3.56-.44l17.83,25.17,3.68,7.31-44.01-37.98,1.31,5.21c-2.74-2.73-7.03-7.04-9.8-8.21l12.98,17.51c-2.18-.23-4.78-2.17-6.46-3.53-8.82-7.15-31.13-30.38-36-40-.52-1.03-.68-1.84-.52-2.97,6.47.19,10.51,6.18,17.51,6.97l-.52-2.38,2.01-1.1-1.5-3.5c12.56,8.19,25.02,17.65,39.51,21.98l-25.99-30.5c-.42-2.2,1.01-1.47,2.52-1.52,14.36-.48,28.79,18.69,38.97,27.04,1.13.93,1.61,2.43,3.5,1.99.1-1.96.07-3.93-.68-5.79-1.17-2.92-5.44-7.96-7.15-10.87-1.32-2.24-5.63-9.09-6.14-10.86-.38-1.29.21-1.98,1.47-1.47,2.35.94,8.86,5.81,11.41,7.6,11.32,7.95,26.93,19.93,35.09,30.91ZM476.74,250.99v-2.99s1.99,1.51,1.99,1.51v1.48s-1.99,0-1.99,0ZM405.74,183c.77.15,3.08.93,3.67,1.32,24.76,16.67,54.17,30.24,77.8,50.7l10.52,9.97c-14.65-5.6-27.08-15.06-40.3-23.18-1.8-1.11-3.95-1.24-5.37-2.14-1.09-.69-3-4.36-5.31-4.67-.89.98,2.44,3.67,3.1,4.34,7.97,8.05,15.76,16.26,23.93,24.11l.46,3.54c-5.87-3.01-9.05-9.32-13.48-13.52-6.95-6.57-16.65-12.15-24.04-18.96-11.16-10.28-17.41-18.8-30.66-27.3-1.36-.87-3.87-1.03-5.32-2.22-5.33.58-.64,1.88,0,2.71,2.28,2.94,12.61,23.41,10.99,25.29-9.82-6.38-20.8-9.95-31.98-13-.63,2.59.84,1.74,1.87,2.59,4.51,3.7,9.56,6.76,14.12,10.4,5.66,4.53,11.13,9.03,16.03,14.47l8.97,10.52c-9.25-3.57-18.69-8.99-26.51-15.02-1.08-.83-2.87-3.66-4.48-4.98-4.57-3.73-9.69-8.03-14.5-12-1.13-.93-1.62-2.42-3.5-1.99,3.86,13.41,11.65,25.88,14.8,39.7.34,1.5.82,2.68-1.29,2.29l-32.5-32.99c2.9,12.02,12.95,20.98,15.5,32.97-13.58-6.23-24.01-17.25-33.48-28.51-3.74-4.45-6.81-10.2-10.52-14.48-.72-.83-5.52-6.09-6.51-4.98,3.26,12.93,10.78,23.89,17.21,35.32.69,1.23.66,3.51.78,3.68.09.11,1.29-.25,1.75.23l.25,2.77c6.02,2.81,4.07,3.32,7.3,5.7,1.79,1.32,8.24,2.5,9.76,4.99,1.23,2.02,2.67,8.52,4.03,11.53,1.75,3.89,4.21,7.56,5.93,12.27,1.25,3.42,8.11,25.15,6.97,26.51-1.48-.54-2.8-1.47-4.01-2.48-4-3.33-9.7-10.33-13.98-14.52l-1-1c-.33-.33-.67-.66-1-1l-1-1c-2.69-2.73-5.37-5.13-8-8-5.43-5.94-10.7-12.28-14.87-18.63-1.79-2.72-2.49-6.07-4.11-8.88l14.59,9.41,5.39,1.1c-1.08-3.3-4.18-9.47-6.14-12.36-.74-1.09-3.62-5.36-3.86-5.64-7.63-9.03-14.06-12.17-19.86-24.64-1.64-3.54-2.29-7.83-3.91-11.08-.63-1.26-.02-1.64-2.23-1.27-1.49,16.98,10.32,33.25,3.98,49.99-1.47,1.09-6.78-6.22-7.82-7.67-2.56-3.57-4.62-8.41-6.93-12.04-.63-.99.1-1.79-2.24-1.28-.12,5.93.07,12.13-.5,18.01-.19,1.93.2,5.9-2.5,4.99-3.98-14.86-9.28-29.61-3.49-44.99,2.03-5.4,6.29-9.61,7.5-15.01,2.72,2,3.23,6.6,4.73,9.81.65,1.4-.61,2.73,2.26,2.19-.87-11.2-1.85-20.62,5.59-29.91,4.27-5.33,14.47-12.51,20.73-15.27,25.64-11.28,54.67,12.16,76.68,23.18ZM328.27,351.99c-10.31-14.57-19.89-28.84-27.53-44.99-2.46-2.26-4.6-6.35-6.17-9.33-7.28-13.74-14.48-28.39-18.54-43.46-3.89-14.43-4.25-15.65.71-29.72.45-1.28-.06-3.14,2.01-3.49v19.5c0,9.59,6.46,29.27,13.35,36.15,4.99,4.98,14.52,7.08,14.65,16.35,5.11,9.84,7.77,19.7,11.9,29.6,4.76,11.41,8.93,23.13,15.08,33.91l-5.45-4.52ZM331.73,381.01l-1.51,1.98h-1.48s0-1.99,0-1.99h2.99ZM327.73,383.01l-1.51,1.98h-1.48s0-1.99,0-1.99h2.99ZM316.73,371.99c-8.07.08-12.71,7.48-19.99,10-1.14-1.33,7.25-22,9.96-23.53.99-.56,1.93-.59,3.01-.47l7.01,13.99ZM270.73,347.48c-.42,1.81-4.83,1.62-4.99,3.5l4.1.59c2.73,3.7-1.74,7.46-1.1,8.39.26.39,3.86.37,2.98,3.02-4.36,1.45-8.63,1.46-12.99,0l3-2-1.86-3.89,1.86-.58c-2.63-2.94-1.25-7.71-2.02-11.52.93-.67,4.98,1.53,4.01-2-12.47-2.33,1.6-5.38,6.99-4,1.04,3.81-3.83,4.06-4,4.5-.91,2.42,4.69,1.03,4,3.98ZM270.73,368.99c-4.37.03-12.53,3.95-12-2.99,4.12-.81,10.99-2.76,12,2.99ZM272.73,373.99c-4.86,1.57-8.91,3.09-13.99,1-2.61-3.59,12.77-5.38,13.99-1ZM258.74,380.01l11.07-.57.8,9.42-9.87,1.15c.26-3.72.19-6.88-1.99-10ZM265.26,393.14c.94.01,14.8,2.96,15.5,3.34,1.67.93-.09,2.52-.52,2.52-6.6,0-20.51,1.16-26,0-.78-.17-3.32-1.88-3.5-2.99,4.43.5,10.65-2.92,14.52-2.87ZM267.74,319c2.6,6.76,4.73,11.39,12.99,11,.4,1.8-.54,1.97-1.66,2.83-5.66,4.38-24.77,4.71-29.33-2.34,6.91-1.05,11.85-2.7,13.97-10.03.54-1.87-.29-1.33-1.45-1.47-3.72-.45-7.93.32-11.52-1.49,7.02-6.14,11.41-14.28,15.5-22.5,2.69,5.12,4.97,10.77,8.67,15.32,1.14,1.4,7.77,6.81,6.82,7.67l-13.99,1.01ZM248.72,259.01l-1.99-.49c2.35-2.68,1.39-6.87,5-8.52-1.56,8.95,6.81,16.69,8.03,24.49.66,4.28-3.98-1.25-4.48-1.53-2.51-1.42-5.3-1.35-7.54-3.96v24l-6.94-16.56.95-17.44c2.11-2.64,3.3,6.51,4.99,6-1.33-4.46,2.28-3.05,1.99-5.99ZM259.74,187.2c-.33-.66.17-1.85,0-2.2-.21-.41-4.49-5.56-5.57-6.93-2.13-2.72-5.72-4.5-6.43-8.07-5.22-3.19-10.05-7.2-15.99-9.01-.26-1.7,2.41-1.08,3.47-.98,9.33.95,34.97,8.15,40.95,15.06.79.91,4.37,7.33,1.08,5.92-1.24-.53-3.27-3.71-5.16-4.85-.96-.58-9.95-4.52-10.35-4.14l5.85,9.64c3.04,6.94,4.99,13.65,4.14,21.35-2.34.65-1.68-.6-2.28-1.28-4.91-5.56-8.42-8.26-14.71-12.22,3.4-1.87,5.56.64,7.99,2.5,1.03-3.44-2.16-3.14-2.98-4.8ZM282.74,136.99c-.18-1.46,2.62-1.8,3.58-1.9,14.23-1.52,27.97.53,41.41,4.92.2,1.7-3.47,1.1-4.54,1.04-4.82-.28-9.52-1.71-14.45-1.04l13.99,7.98-14.99-.98c1.05,1.84,2.81,2.03,4.06,4.42.63,1.21,1.24,2.06.93,3.56-3.81-.19-5.94-.76-7.58,3.07-6.56-2.71-13.72-2.94-20.42-5.07l12.85,13.71-.31,2.26-3.04,2.05c-.83-3-3.05-1.77-5.24-2.7-1.33-.57-1.48-1.65-2.25-2.32l-26-13c-5.81-1.52-8.54-1.73-14.51-2-1.22-.05-3.71.75-3.48-.99,10.49-.77,18.59-4.21,29.46-3.92,1.05.03,2.12.91,2.54.92.33,0,.67-.01,1,0,.66.02,1.34-.04,2,0,8.72.5,16.39.22,25,2.99-4.82-6.44-12.52-10.33-19.99-13ZM303.76,261.49c2.88-.6,4.83,3.75,5.98,4.51,4.98,3.31,12.63,2.81,14.34,8.16,1.01,3.19,1.49,6.07,2.33,8.8,1.86,6.04,5.59,12.51,3.84,19.03-6.6-7.02-14.55-15.95-17.5-25l-8.98-15.51ZM360.73,120.02l-.51,2-10.49-1.01,1.01,1.98-14-1.99c.36,4.73,6.42,3.66,9.8,4.69,4.35,1.34,8.88,2.72,12.71,5.3,1.37,1.95-1.77.72-2.5.49-4.65-1.48-10.46-4.89-15.01-3.48l10.99,7.98c-24.74-5.79-49.12-14.63-75-13,3.9-3.42,10.74-5.33,15.78-6.71,21.74-5.95,46.75-6.21,67.21,3.74ZM312.19,98.96c-4.49.18-8.95,2.12-12.96,2.12-4.37,0-9.94-2.11-14.5-2.09-.24-2.66-.04-1.62,1.5-1.98,4.97-1.16,9.98-1.39,15.01-2.02,1.36-.17,3.13-.65,1.5-1.99l-24-3.02,8.99-2c.62-1.65-5.34-.42-2.99-2.98.55-.6,14.27-4.84,15.61-4.97,3.92-.38,10.67,2.07,13.38,4.95-2.38,0-6.72.65-8,3,9.84.42,19.33,7.19,27,13-6.95-.34-13.48-2.32-20.55-2.03ZM314.73,65.01c.24,1.73-2.28.95-3.48.99-5.07.17-12.67-.94-16.51,2.99,6.84.03,15.22,1.67,21.8,3.71,4.81,1.49,12.49,4.11,15.2,8.29-21.17-3.82-43.66-5.18-64.49,1.02l10-9c1.5-1.44,3.51-1.89,5.3-2.75,1.37-.66,2.75.64,2.19-2.25-14.42,1.19-28.23,6.66-42.99,4.99l18.99-9.98-25,1.49c25.2-9.48,54.23-11.13,79,.51ZM242.22,101.98l.51,1.99c-1.61.1-5.18,2.15-3.48,4.03,2.82-.68,5.41-2.06,8.22-2.78,2.58-.66,7.25-.91,9.28-1.66,2.87-1.06,4.68-3.87,9-2.56.95,4.51-1.76,2.23-2.75,3.19-.65.62-.73,4.13-2.76,4.8l-.99-1.99c-3.08,3.46-7.91,6.35-12.5,7.01-.27,1.64,1.35.94,2.47.99,3.87.19,12.32,1.83,13.13-1.07l13.39,1.07-8.03,5.46c-1.99.49-7.73,1.1-8.96,2.55-2.25,2.63,3.57,1.27,2.99,2.97l-29,5,13-10.98-21,4.49,7-7.5-13,2.98c4.69-4.36,17.32-18.45,23.49-18ZM226.51,141.28c5.62-1.58,11.31-3.18,17.22-3.27.04.68-2.62,2.82-2.81,2.89-6.69,2.3-16.15,2.92-23.18,5.09l8.77-4.71ZM225.74,218.99c1.33.26,1.57-1.82,1.73-2.74.42-2.36.91-4.92,1.26-7.25.19-1.24-.25-2.87,0-4,.08-.36-.1-.94.5-.98,0,0,3.22,1.32,4.18,2.55,1.31,1.68,4.34,4.92,4.34,4.92-2.72-12.73-9.45-22.69-16.99-33,1.95-.11,4.15.89,5.98,1.51.97.33,5.65,3.3,5.02.49-.9-4.01-7.68-5.79-7.01-10.49,8.5,1.15,20.78,7.66,25.89,14.61.86,1.17,1.57,1.41,1.1,3.38-2.62.51-4.6-.87-6.88-1.61-1.55-.5-2.44-1.04-2.11,1.11.29,1.88,8.3,5.95,9.68,7.54,4.9,5.69,6.95,11.75,6.55,12.94-.19.55.85,8.46-.84,8.97-.81-7.48-2.04-8.54-5.19-13.77-.85-1.41-4.3-4.41-5.21-5.18-2.41-2.04-4.53-3.62-6.03-6.57-.77-.64-.92.56-.97.57.04,1.33-.05,2.67,0,4,.09,2.29.88,8.51,1.12,10.35,1.16,9.1,4.82,19.89-1.06,28.19l-4.01-.53c-3.06,10.84-7.15,21.64-8.05,32.98-1.45-.17-1.69-4.36-1.87-5.62-1.59-11.22-1.91-23.04-2.12-34.38-.46-.61-2.1-9.37-4-7,.06,1.7.04,3.39-.45,5.05-4.89,16.58-10.24,31.65-14.41,48.64-.43,1.76.68,2.77-2.13,2.31l.99-41.99c-5.04,5.47-7.59,13.27-10.76,19.72-.63,1.27-.01,1.63-2.23,1.28-2.66-15.17-2.86-27.88,4.01-41.99l2.76,5.72,1.24,10.27,5.75-9.73,3.25-10.26c3.2,2.13,3.19,6.55,5.7,9.73.64.81-.05,1.83,2.29,1.27v-15.5c0-1.13-3.98-11.15-4.8-13.2-.29-.72-5.75-8.93-1.71-7.3,4.41,1.78,17.99,28.45,15.52,34.99ZM227.73,317l-3.99-3c-.35,3.99,1.15,7.45,1.02,11.48-.23,7-3.6-1.4-4.33-3.68-4.08-12.63-3.3-24.2.32-36.81h2.98s8.02,26.49,8.02,26.49c-3.29,2.06-2.85-4.34-6.01-3.48l1.99,8.99ZM186.74,297.5c0-3.61-.72-12.29,0-15,.1-.39,1.75-1.8,1.99-1.5.23,3.57,1.36,7.6,2.55,10.96,2.58,7.27,6.43,15.39,9.41,22.59,5.63,13.59,12.2,21.91,18.57,34.43,2.31,4.53,5.28,9.33,5.49,14.51l-3.83-4.17c-3.13-15.89-34.18-48.33-34.18-61.82ZM213.73,370.99c-11.08-.63-14.56-13.56-15.99-22.99,2.12-.49,2.24,1.15,3.21,2.28,2,2.33,14.54,18.96,12.78,20.71ZM180.73,125.99c2.54-10.94,10.26-16.37,21-17.99-.3,14.13-5.38,24.34-21,17.99ZM177.67,104.44c3.19-7.2,25.25-13.63,33.06-14.43l-34.99,23.99c-.57-.69,1.36-8.28,1.93-9.56ZM155.73,129l-.16,3.84c-5.79,4.15-9.71,2.66-15.83-.35,4.76-3.74,10.54-1.67,15.99-3.49ZM87.73,184.99h-1.99v-.98h1.99v.98ZM143.97,163.73c-13.14,3.94-27.34,8.19-40.21,12.79-4.38,1.56-10.58,5.27-14.54,6.46-1.29.39-1.96-.2-1.47-1.47,3.25-8.43,15.82-19.94,22.99-25.52,4.28-3.33,19.01-14.28,23.5-15.01,3.18-.52-.73,6.02.51,8.01.86.91,20.78-4.73,24.51-4.98,5.42-.37,10.11,1.46,15.48.99l-63,19.99c-5.26,3.8-12.95,5.84-17.24,9.98-.9.86-3.01,3.61-.26,3.03,30.26-11.1,61.23-21.55,92.51-29-2.05-2.71-5.6-4.94-9-5.01l1.63-4.07c3.31-.33,9.96,6.01,10.37,9.08.13.95-.03,2.02,0,2.99-15.41,2.53-30.74,7.23-45.77,11.74ZM93.74,240l38.56,13.93c6.34,15.27,12.72,29.47,21.86,43.18,3.25,4.88,6.05,8.14,8.07,12.9-8.5-2.03-19.57-8.01-26.94-13.88-7.73-6.15-18.88-17.31-24.77-25.42-2.29-3.15-18.33-29.17-16.77-30.71ZM132.44,346.13l13.3,2.87-.63,3.07c-2.56,1.22-6.45,3.29-8.65,4.9-1.05.77-1.36,2.77-2.29,3-1.17.29-2.79-1.58-4.15-1.79-2.08-.34-4.91,1.45-7.29.82l9.71-12.86ZM119.74,345.99l6.01-21.99c6.47,4.72,10.4,12.69,18.98,14.01.32,2.12.09,1.61-1.26,2.22-6.35,2.88-16.8,3.64-23.73,5.76ZM146.17,396.92c1.29-.63,6.77-2.72,7.56-1.92l-.61,3.07c-2.2.18-7.03,4.9-8.37,1.42-1.03-2.68.17-1.96,1.42-2.57ZM154.14,400.03l1.56,3.92c-5.31,1.56-8.5,6.89-8.96-1.94l7.41-1.97ZM149.03,423.04c.8-.62,1.04-1.97,1.79-2.41,2.29-1.36,11.77-5.33,13.66-4.4.18.09.68,2.76,3.25,1.78-5.51,4.7-14.65,7.49-21.99,6.98-.18-1.69,2.22-1.1,3.29-1.94ZM160.61,412.88c-4.03.61-12.03,7.12-12.75-.26,4.14-4.01,14.4-10.38,12.75.26ZM51.76,214.49l15.98,11.51,8,5c.83.33,1.47.79,2,1,1.02.41,2.28.31,3.37,1.09,2.99,2.12,4.92,10.56,6.77,14.27,3.74,7.52,8.56,16.99,13.02,23.98,2.76,4.33,8.07,8.92,10.29,13.71.39.83,1.26,2.56.06,2.94-2.48-2.62-5.59-4.46-8.46-6.59-.96-.71-.94-2.33-1.05-2.41-2.78-2.1-4.71-.91-9-6-.3-.35-.7-.63-1-1-2.88-.01-3.53-2.56-5-4-.66-.65-1.35-1.39-2-2-.73-.69-1.39-1.44-2-2-.35-.32-.65-.7-1-1-.33-.29-2.89.09-3-3-10.05-3.94-22.64-35.42-26.98-45.51ZM163.74,514.99c-7.24-1.41-13.17.2-19.69-3.8-4.31-2.64-7.95-7.79-11.8-11.2-6.29-5.56-13.95-12.69-21.2-16.8-19.39-11.02-45.61-9.83-56.29-33.7l13.98,10.01,22,6.49c-4.98-6.43-13.52-8.17-20.3-12.19-10.54-6.25-21.28-25.07-20.77-37.32.12-2.89,1.27-9.4,5.06-9.48-1.42,5.78-1.38,10.33.53,15.97,1.54,4.53,10.86,16.73,15.44,17.64,3.95.78,18.28-5.81,18.76-10.24.76-7.05-16.38-27.18-13.72-30.38l11.65,9.8c6.22-.68,6.15-7.1,5.12-12.07-1.86-8.95-20.32-21.16-26.75-29.24-5.68-7.13-12.35-19.77-12.09-28.99.04-1.55,2.45-14.46,4.06-12.49-.01,18.56,14.47,30.37,29,39l-14.17-25.32c-2.81-3.19-3.47-14.84-5.3-16.7-2.85-2.89-5.8.84-8.51,1.53,5.71-10.36,17.81-6.72,26.5-12.49,1.46-6.37.04-12.77-1.03-19,5.21,6.04,18.27,13.39,10.52,22.5-3.25,3.83-11.79,4.91-14.26,10.74-4.3,10.15,4.4,25.91,12.22,32.27,5.79,4.71,15.11,6.68,19.53,12.47.77,1,1.95,1.26,1.49,3l-5.98-1.5c7.74,10.2,17.32,21.11,17.97,34.5l-13.05-14.43c-8.36-4.01-15.61-12.17-24.93-13.55l16.97,17.52c4.29,6.36,11.79,13,9.56,21.49-1.57,5.98-7.27,5.57-11.05,8.96-1.66,1.49-9.89,11.29-10.9,13.1-5.01,9.05,4.47,21.83,12.1,26.74,3.03,1.95,29.04,15.45,30.31,14.18,1.06-7.48-6.91-10.75-9.97-16.51l12.3,5.45c7.12,10.03,6.43,22.52,9.23,34.01,3.3,5.05,14.4,4.36,17.45,10.04ZM184.24,426c-2.21.37-7.06,3.5-8.98,5.02-3.12,2.49-8.76,11.11-11.24,11.83-3.43,1.01-8.2-4.31-12.89-4.8-10.22-1.07-19.39,7.25-24.89,14.92-1.48-.02-5.28-10.7-4.42-11.88l73.9-28.09,3.02,12.99c-4.47.51-10.25-.71-14.5,0ZM198.99,401.17c-3.08-.64-12.48,7.68-16.78,7.94-1.58.41-1.4-1.63-2.19-2.08-3.4-1.92-10.29-2.87-7.4-7.6l-1.87-.44,1.5-1.98c3.03-.7,2.73,2.14,4.76,3.3,1.63.93,5.3,1.77,7.22,1.77,2.05,0,13.13-1.96,12.5-4.57-.59-2.43-14.85-5.68-17.92-7.14-8.17-3.89-18.08-22.03-18.08-30.88v-21.5l6.82,15.68c5.07,5.98,12.62,28.96,19.88,31.12,6.77,2.01,12.69-1.89,21.19,2.81,12.59,6.96,8.49,16.66,7.1,28.38-1.75.23-.93-2.27-.99-3.48-.1-2.16.08-4.35,0-6.51-2.62-1.05-1.59,1.77-2.63,2.02-6.9,1.6-8.56-5.9-13.11-6.85ZM214.73,417v2.99h-.98v-2.99h.98ZM234.23,515c-5.39-4.48-22.69-19.12-24.06-24.93-3.19-13.53,8.09-10.75,8.64-19.53.71-11.13-10.98-17.57-15.88-26.2,2.19-5.73,6.59-11.04,6.81-17.34,1.58-.41.59,1.19,1.31,1.68.83.58,2.5-.1,2.73.93.28,1.26-.17,2.77.42,4.41,2.21,6.15,7.09,11.57,8.55,17.97,5.01.71-1.04-10.72,3.98-10,1,8.9,6.83,18.43,6.06,27.5-.17,2-7,17.75-8.04,16.5l-1-2.99c.4,1.52-1.8,1.97-1.97,2.72-2.23,9.95,13.88,21.59,15.95,31.27-1.88.43-2.37-1.06-3.5-1.99ZM281.44,412.18c-5.17.8-14.29,13.44-15.3,13.69-3.9.95-7.31-5.58-9.92-7.85-6.63-5.75-11-6.7-19.28-4.33-1.15.33-13.28,6.15-13.21,3.79,1.97-6.15.75-9.36,7.79-11.21,11.49-3.02,53.99-2.15,66.67-.21,5.86.9,6.11,7,6.55,11.94l-23.29-5.82ZM318.57,508.28c-.61,2.07-12.32,12.3-14.84,15.21-1.65,1.91-1.9,5.74-4.99,5.5.31-3.51-1.78-7.38-1.94-10.65-.24-4.85,8.06-27.77,14.33-26.28,2.76,2.98,8.51,12.58,7.44,16.21ZM330.62,446.37c-1.49,17.46-10.03,19.45-22.8,27.21-2.8,1.7-9.94,9.12-11.08,2.91-1.39-7.57,1.94-25.23,6.16-31.83,2.64-4.13,8.98-7.25,9.78-12.22,2.38-14.84-10.85-41.7,11.05-47.44,1.19,1.06-5,6.33-5.83,7.66-1.89,3.05-2.53,4.93-1.95,8.58.19,1.2,1.28,5.44,2.77,5.74.99-5.38,6.77-10.18,11.07-13.43,6.79-5.14,16.03-10.41,23.94-13.55-5.33,4.83-9.65,10.67-14.99,15.5-3.14,2.84-16.93,12.26-17.81,15.19-.71,2.35-.21,4.99.25,7.35,1.79,9.12,10.26,18.59,9.43,28.33ZM380.5,437.19c-3.58.49-13.03,6.11-15.58,4.62-4.01-6.41-9.19-13.71-16.94-15.57-9.95-2.39-17.2,2.79-13.22-12.23l74.98,26.46c3.24,2.63-3.17,9.68-2.01,13.52-2.35.64-1.68-.62-2.28-1.28-5.77-6.49-15.38-16.83-24.95-15.52ZM385.28,499.04c1.75-5.9-1.98-14.39,1.01-17.99l18.43-15.05c.45,4.95-2.59,9.43-3.79,13.72-.27.97-.82,2.55.79,2.28-.51-3.67,5.5-5.4,8.48-8.02,3.99-3.51,10.42-9.66,12.71-14.29,1.06-2.14,3.63-12.65,5.32-12.66,3.67,3.37,2.55,8.85,2.28,13.26l-8.77,13.72,22.36-10.13c4.62-1.65,5-13.47.98-14.76-4.29-1.36-4.19,3.49-7.34,4.89-2.03-5.99-3.73-12.31-6.48-18.03-6.31-13.09-20.11-24.22-20.03-39.97,5.22,4.82,9.4,11.74,17.44,11.06.98,8.23,6.28,33.09,18.06,30.5,3.36-.74,7.08-6.01,9.8-7.48,2.29-1.23,12.54-5.33,14.2-3.07,1.36,1.84-4.46,4.73-5.54,5.95-5.54,6.26-.03,10.12-.41,16.52-1.54,25.93-36.27,27.87-54.22,37.64-2.36,1.29-9.61,6.52-11.84,8.38-4.78,3.99-9.73,12.65-14.45,15.55-3.22,1.98-10.62,4.08-14.53,4.96,3.97-4.7,13.78-10.98,15.55-16.95ZM368.24,516c.65.33.65.67,0,1v-1Z"/>
        <path class="cls-3" d="M4.24,204.99L.74,26c10.23,1.97,20.58,2.29,31,2l-4.01-19.99c12.78-2.17,25.44-4.88,38.01-8H11.54c3.14,5.51,7.86,14.74,5.69,15L0,13.79v186.86c1.64,1.62,3.13,3.09,4.24,4.34Z"/>
        <path class="cls-3" d="M508.73,231.53l9.52,9.23c1.23-.09,11.03-12.73,12.9-14.86.83-.95-.04-2.56,2.58-1.89.36,8.79-4.73,16.5-7.85,24.36,3.37,3.9,6.75,7.75,10.11,11.64v-7.88c-.69.06-1.44.03-2.26-.12.71-.95,1.48-1.91,2.26-2.88v-2.99c-.25.29-.49.59-.76.86l-.19-8.35c.37-.64.68-1.37.95-2.15v-30.33c-8.65,9.06-17.8,17.59-27.26,25.37Z"/>
        <path class="cls-3" d="M522.75,7.51c-.77,2.04,1.31,1.53,2.38,1.39,3.6-.49,7.23-1.48,10.87-2.6V0h-7.67c-2.53,2.49-4.71,5.21-5.58,7.51Z"/>
        <path class="cls-3" d="M0,437.7v10.01l2.73.28c-.82-3.46-1.75-6.88-2.73-10.29Z"/>
        <path class="cls-3" d="M7.72,7.52c-.84-2.87-2.47-5.35-4.61-7.52H0v7.41c2.89.82,5.23,1.43,6.27,1.56,1.36.17,1.89.08,1.44-1.46Z"/>
        <path class="cls-3" d="M0,234.96v6.51c1.35,1.89,2.71,3.73,3.74,5.52-.83-4-2.56-7.99-3.74-12.04Z"/>
        <path class="cls-3" d="M527.74,290c.42,1.47.56,3.43,1,4.99-2.27,2.15-23.07-12.84-27.05-14.44-1-.4-3.31-1.25-3.94-.06,12.94,15.33,25.89,30.69,38.26,45.81v-27.62c-2.47-3.13-4.66-6.62-8.26-8.68Z"/>
        <path class="cls-3" d="M528.74,446.99l7.26-.27v-24.6c-1.02,4.76-2.2,9.47-3.55,14.1-1.07,3.68-2.63,7.13-3.71,10.78Z"/>
        <path class="cls-3" d="M497.74,27.99c5.37,1.59,28.81-2.9,31.51-.04l-2.03,177.04,8.77-9.61V13.48l-21.27,1.52c-1.85-1.75,2.03-9.69,5.14-15h-57.29c13.53,3.79,27.34,6.93,41.15,7l-6,20.99Z"/>
        <path class="cls-3" d="M21.24,504.99c2.96,2.18,6.58,3.67,9.48,6.01.16-1.67-.07-3.2-.75-4.74-2.97-6.71-12.29-16.83-16.42-24.58-2.75-5.16-6.28-13.19-8.28-18.72-.98-2.7-.99-8.86-3.95-8.93-.25,0-.72.07-1.32.2v29.76c5.69,7.89,13.9,15.6,21.24,21Z"/>
        <path class="cls-3" d="M525.22,454.97c-.94,1.54-2,10.08-2.97,13.04-4.65,14.26-15.55,26.17-19.73,38.27-.55,1.59-1.05,2.98-.77,4.72,8.36-4.87,16.68-12.18,22.97-19.52,4.15-4.85,8.74-10.7,11.29-17.03v-16.34c-3.12-3.22-9.75-4.81-10.78-3.14Z"/>
        <path class="cls-3" d="M62.06,515.17c-6.82-3.06-13.79-8.93-19.61-11.39-1.25-.53-2.28-1.05-3.71-.78l-1.7,33h38.47l1.13-15.9c-5-1.04-9.93-2.83-14.58-4.92Z"/>
        <path class="cls-3" d="M13.31,522.01c2.68,1.05,17.36-6.63,16.43-7.99-10.14-5.77-21.1-13.9-29.74-23.48v21.49c1.68,1.93,3.64,4.24,3.7,4.52.32,1.43-1.53,2.38-3.7,3.28v11.05c1.57,1.68,3.13,3.38,4.65,5.11h21.9c-4.61-4.08-8.65-9.07-13.8-12.02l.55-1.97Z"/>
        <path class="cls-3" d="M82.06,536h38.75c-.35-.17-.71-.34-1.06-.51-1.15-.59-2.76-.93-3.01-2.48,3.42.68,6.72,1.79,9.99,2.99h14.27l-57.26-24-1.68,24Z"/>
        <path class="cls-3" d="M454.87,520.13c-.18,5.29.08,10.58.58,15.86h39.19l-1.91-35c-11.83,7.82-24.04,15.23-37.85,19.14Z"/>
        <path class="cls-3" d="M536,521.18l-7.24-3.68,7.24-7.62v-25.26c-4.53,6.68-10.15,12.66-16.25,17.89-2.25,1.94-15.79,11.03-16.01,12.01-.6,2.78,12.18,7.47,14.99,6.49.42,1.52-.4,1.66-.98,2.51-1.34,1.95-7.65,7.93-13.1,12.49h23.12c2.78-3.22,5.53-6.47,8.24-9.75v-5.07Z"/>
        <path class="cls-3" d="M392.26,536h13.11c2.48-.77,4.94-1.46,7.36-1.99-.28.92-.98,1.52-1.8,1.99h38.6l-1.8-24-55.47,24ZM415.73,533.99h-1.99v-.98h1.99v.98Z"/>
        <path class="cls-3" d="M482.51,488.72c-12.34-3.65-28.39-1.72-40.78,1.28,4.16-.34,8.76.26,13,0l-3,2.98,3.99,2.5-3.99,2.49c3.58-.1,6.46,2.78,6.06,6.41l-4.07,1.6c.41,2.73-.3,6.15,0,9,2.24,2.34,34.29-14.44,35.85-19.71,1.34-4.52-3.74-5.58-7.08-6.56Z"/>
        <path class="cls-3" d="M39.76,494.5c10.08,8.54,23.8,17.67,36.52,21.47,1.88.56,1.31-.3,1.46-1.45.48-3.7-1-7.97,1-11.52-.7-.04-6.67-2.5-5-4l5.99-1.99-6.99-2,5.99-1.02-2-2.98,4-3.01c-12.83-1.04-31.77-4.44-40.98,6.5Z"/>
        <path class="cls-3" d="M360.45,193.28l-30.71-17.28,11.97,20.51-3.97-.51.98,7.51c5.29,1.51,19.14,10.45,24.01,8.01,2.64-1.74,2.38-6.06,1.93-8.96-.17-1.06-3.69-8.66-4.21-9.27Z"/>
        <path class="cls-3" d="M346.74,173c5.01,12.11,18.55,18.26,30.79,20.7,2.91.58,13.12,2.86,14.07-1.31-.61-4.91-4.44-9.18-8.18-12.07-.57-.44-4.38-2.79-5.79-3.73-5.94-3.97-12.94-5.65-19.42-8.57l14.51,14.97-4.7-.79-21.29-9.2Z"/>
        <path class="cls-3" d="M315.74,173c-.43,9.06,2.82,26.08,14.99,23.99l-1.21-3.28-13.78-20.71Z"/>
        <path class="cls-3" d="M454.76,368.47c-1.13-1.17-2.16-2.78-4.02-2.47l15.76,24.72,5.23,5.27c.03-1.75.18-3.54-.22-5.27-1.26-5.4-12.46-17.81-16.75-22.25Z"/>
        <path class="cls-3" d="M420.24,354v1c.65-.33.65-.67,0-1Z"/>
        <path class="cls-3" d="M449.24,364v1c.65-.33.65-.67,0-1Z"/>
        <path class="cls-3" d="M312.73,443.99c-4.68-2.22-6.9,10.78-5.91,11.92,4.45,2.07,9.59.26,8.74-5.2-.45-2.87-4.15-2.65-2.84-6.72Z"/>
        <path class="cls-3" d="M225.24,453v1c.65-.33.65-.67,0-1Z"/>
      </g>
    </g>
  </g>
</svg>