<?xml version="1.0" encoding="UTF-8"?>
<svg id="_レイヤー_2" data-name="レイヤー 2" xmlns="http://www.w3.org/2000/svg" viewBox="0 0 743 958.14">
  <defs>
    <style>
      .cls-1 {
        fill: #030303;
      }
    </style>
  </defs>
  <g id="_レイヤー_1" data-name="レイヤー 1">
    <g>
      <path class="cls-1" d="M657,624.11c-1.33-.02-2.67.03-4,0l.5-13-6.5,12.51-13,.49c1.08-3.65,2.64-7.1,3.71-10.78,6.25-21.44,9.06-44.58,7.33-66.76-.37-4.68-.66-12.18-3.5-15.52l-5.54-3.93c.16,8.88,1.32,17.6,1.04,26.54-.78,25.39-8.5,53.13-17.01,76.99-1.94,5.43-12.48,31.7-16.01,33.98-2.67,1.72-4.33-2.39-7.13-3.92-2.37-1.29-5.37-1.06-6.85-3.22-.46-1.61,12.92-25.75,14.8-30.02,9.24-21.02,15.97-45.97,18.13-68.87.75-7.97,2.01-22.54,1.06-30.04-.14-1.1.11-2.25-1.03-2.97l-6.01-1.48c.8,33.94-4.8,68.72-18.83,99.67-4.7,10.36-10.88,19.99-15.71,30.29-3.03,3.68-10.35,1.58-14.96,2.04-15.77,1.57-32.09,5.18-44.49,15.49l26.98,11.52-1.05,2.42c-24.94,10.8-50.37,20.37-76.72,27.28-74.11,19.43-141.67,18.67-214.98-3.45-22.41-6.76-44.94-15.67-66.23-25.28l11.31-7.17,17.19-5.82c.86-.85-.95-2-1.57-2.45-15.49-11.19-37.41-11.58-55.79-12.72-8.04-15.3-17.3-29.92-23.17-46.32-6.31-17.62-9.66-36.19-12.6-54.62l-7.39-1.39c.49,22.45,6.6,47.65,15.83,68.17,4.76,10.57,13.71,22.45,17.62,32.38.53,1.36.75,2.49.56,3.94-2.74-.15-5.24.74-7.69,1.82-3.5,1.54-4.94,4.25-8.3,5.18-18.7-34.96-31.34-74.1-30-114.3l-14.53-8.69c-2.43-.96-1.56,5.98-1.48,7.48.43,7.36,2.03,17.3,3.3,24.69,3.01,17.46,9.64,33.76,13.68,50.81l-14.04-1.45c-3.18-8.24-8.77-15.59-9.97-24.55-1.69-.03-2.18-.56-1.93,1.42,1.01,7.92,2.39,15.77,3.93,23.58l-11.06-.44c-2.69-1.93-6.43-43.7-6.14-49.86-3.39-3.99-7.17-7.47-10.21-11.79-1.54-2.19-3.63-5.42-4.58-7.91,1.67-1.49,21.21,5.02,25.48,5.03,1.98,0,1.61-.1,1.51-2.02-14.94-4.95-28.75-15.71-38.97-27.54-1.36-1.57-10.14-12.36-9.02-13.47,13.96,6.07,28.09,11.94,42.96,15.53,1.07.26,3.4,1.15,4.03-.03-7.75-4.66-16.74-7.04-24.66-11.33-15.65-8.49-35.79-26.24-41.32-43.69-.21-.65-.2-1.69.48-1.47,14.57,9.11,30.96,16.24,47.68,20.32,2.6.63,6.24,1.79,8.82,1.18-4.19-4.23-11.2-4.86-16.68-7.32C30.71,478.67,0,453,0,424.61v-14.5c1.62-.35,2.04.55,3.03,1.47,3.38,3.13,6.43,8.63,9.95,12.05,13.57,13.23,34.78,24.51,53.02,29.47.52-2.48-.54-1.77-1.86-2.59-3.76-2.34-8.52-4.23-12.43-6.6-37.51-22.72-58.94-60.2-45.96-104.57l4.26-10.23c3.31,23.68,16.29,46.61,34.54,61.97,6.08,5.12,14.98,11.21,22.45,13.54-34.08-29.87-49.99-72.76-36.24-117.27,3.41-11.05,9.15-24.21,16.25-33.24-1.59,11.13-2.89,23.22-1.98,34.49,2.96,36.59,50.07,92.95,77.52,116.48,13.65,11.7,29.85,18.61,31.46,39.54.94,12.26-5.09,16.88-8.98,27.48,20.32-3.63,18.38-30.92,12.17-45.67-7.45-17.7-23.54-22.83-36.19-34.81-8.38-7.94-3.35-13.79-6.03-23.97l.04-154.55c10.67.25,21.38-.27,31.9-2.1l-.31-20.01c42.23-11.38,84.36-23.73,125.64-38.17,4.87-1.7,32.16-11.11,33.88-13.12,1.56-1.83.82-7.07-1.41-6.44-56.06,20.31-112.65,41.82-171.68,51.85l4.01,19.99c-10.42.29-20.77-.02-31-2l3.5,178.99c-4.84-5.46-17-15.22-17.47-22.61-.15-2.37,1-4.49,1.01-6.84.3-54.23,1.27-108.27.95-162.55l28.5,2.01c2.95-.36-6.85-17.32-8.08-18.92-13.19-17.26-45.43-19.39-64.41-28.08l1.2,32.29c8.55,10.34,20.47,17.71,26.82,29.69l1.99-.5c1.43-10.56-15.19-22.29-17.54-30.46-1.66-5.76-.95-13.09-2.46-19.03.71-.73,17.11,5.14,19.51,5.98,11.05,3.84,29.78,8.97,33.46,21.54.45,1.53-.08,1.62-1.44,1.46-3.99-.49-26.54-7.99-27.53-6.97,6.56,59.26,3.63,119.33,3.5,178.99-6.08-9.26-19.62-18.5-21.24-29.76-3.79-26.35,5.72-68.22-6.09-91.91-4.44-8.89-11.13-17.02-18.06-24.03-.94-3.59,10.88-10.72,11.94-14.8l-16.84-16.2-1.2-55.29c1.17-1.18,13.87,6.1,16.32,7.17,13.73,6,31.21,12.79,45.68,16.32s36.27-1,51.2-3.78c47.15-8.79,92.4-26.33,135.76-46.24l10.03-50.48c2.64-.21,1.66-.11,1.96,1.52,2.71,14.58,3.26,30.13,7.53,44.48,4.27-4.16,7.02-9.61,10.99-14.01,10.95-12.13,26.18-19.59,42.05-22.95,4.8-17.98,8.41-36.44,12.34-54.69.29-1.36-.69-4,1.62-3.35l11.41,57.6c5.49,2.21,11.23,3.01,16.78,5.22,15.97,6.38,27.84,18.63,37.82,32.18l8.49-46.99,10,50.51c45.35,21.97,95.7,41.4,145.8,49.2,13.41,2.09,27.78,4.79,41,1.57,9.69-2.36,22.05-6.89,31.47-10.53,10.08-3.91,19.79-8.73,29.42-13.61l2.33,1.36v52c0,.96-2.09,4.1-2.94,5.06-2.13,2.42-14.43,10.2-15,12.06-1.35,4.4,13.9,11.77,12.83,15.66-12.78,15.22-23.63,28.38-24.93,49.17-1.44,23.1,1.36,47.57-.18,70.82-5.31,10.07-13.03,18.9-21.28,26.72l-.54-127.54c-.1-2.04.95-3.99,1.04-5.96.69-15.84.39-31.08,5-46.49-9.85,1.59-19.82,6.57-29.61,7.9-1.07.15-3.15.65-2.38-1.39,1.84-4.83,9.38-11.49,13.97-14.03,3.73-2.06,39.38-15.91,41.02-14.47-1.89,6.57-.85,13.76-3.21,20.28-3.88,10.69-18.42,18.54-17.29,31.71,7.62-11.44,18.72-19.96,27.99-30.01,1.51-11.62,3.01-23.25,2.5-34.99-19.23,12.38-50.28,10.85-64.97,29.52-2.13,2.7-10.59,17.05-8.03,19.48l28.01-2.01,1.05,58.46-.81,116.28-15.76,17.25,2.03-177.04c-2.7-2.86-26.14,1.63-31.51.04l6-20.99c-20.57-.11-41.11-7.01-60.77-12.74-37.17-10.82-73.84-23.97-109.77-38.23-2.7-.8-1.39,5.82-1,7.01,51.3,20.06,103.89,37.66,157.44,51.05l-.79,19.8c10.5,2.16,21.2,2.31,31.89,2.1v170.5l-18.5,18.48c-8.41-6.91-16.06-14.99-25.5-20.5,4.61-6.24,8.4-13.11,11-20.49.12-.08-.07-.67,0-1,1.34-1.48,1.66-4.06,2-6,.52-2.91.91-6.03.99-9-.78-.85-7.68,6.15-7.99,7l-8,4.99c7.05-13.75,8-30.1,4.5-44.99l-14.56,15.46c-.74,1.03-3.4,1.13-3.8,1.68-.86,1.19.16,25.12-.11,29.4-.2,3.17-1.51,6.2-1.05,9.46-13.58-6.34-5.82-19.41-7-31-1.9-2.11-15.01,13.28-17.86,5.5,1.93-6.74,15.74-9.14,16.84-15.03,1.03-5.49-1.24-16.75-2.29-22.66-1.75-9.83-4.69-19.35-7.7-28.81-3.24-.17-4.84,2.98-7.05,4.43-2.87,1.89-19.83,11.53-20.47,12.55-1.37,2.18,2.21,16.54,2.52,20.53.1,1.33.84,6.19-.98,6.48-.56-3.35-3.84-4.35-5.09-7.42-1.68-4.12-1.52-12.37-3.41-15.59-1.05-1.78-1.23-.39-2.02,0-3.91,1.9-7.57,6.28-11.48,1.52l11.85-8.19c.56-2.23-8-24.18-9.7-27.99-3.01-6.74-9.38-19.72-13.72-25.28-.74-.95-1.31-2.01-2.76-1.86-6.4,2.59-12.88,4.97-19.69,6.32-4.43.88-12.16,3.99-13.01-2.51,8.86-2.14,21.75-2.32,27.04-10.46,0-8.61-29.93-25.82-37.1-31.01-5.1-1.82-10.99,3.62-16,5.05l13.06,32.4-5.05-1.71-13.62-28.18c-15.23,3.6-30.58,7.78-46.34,7.89v11s-2-5.01-2-5.01l-2.99,3-.15-8.36-1.5-1.5c-6.95-.01-13.85-.33-20.73-1.27-6.13-.84-17.08-4.91-22.08-4.8-1.35.03-2.73.54-3.61,1.64-4.24,5.29-7.04,17.83-10.56,24.18-1.23,2.23-3.2,5.52-5.88,6.12-2.39-5.53,13.16-33.16,11.49-35-4.43.76-11.14-5.84-14.5-5.96-2.46-.09-25.05,14.35-27.98,16.98-2.29,2.05-11.54,13.2-11.57,15.5-.02,1.29.58,1.88,1.73,2.29l32.3,10.18c-11.49,5.17-26.24-2.35-37.68-5.86l-1.33.29c-5.77,10.27-11.98,21.15-15.7,32.36-1.88,5.65-5.29,26.65-9.27,28.76-4.19.72-10.05-2.97-14.03-5.01-4.97-2.55-11.07-6.16-15.71-9.29-3.18-2.14-5.26-5.92-9.26-6.23-4.9,15.21-8.3,30.58-9.74,46.53-.56,6.13-.34,8.41,5.72,10.96l-3,4.08-3.99-.57c-.26,6.31-4.28,13.12-7.01,19h-1l.08-26.57c.3-2.02-1.89-1.25-2.08-1.43-.14-.13.22-1.31-.23-1.76-.61-.6-1.64-.13-1.77-.24-3.95-3.54-8.03-9.47-11.99-12.51-1-.77-1.27-1.94-3-1.49-2.18,15.99-.4,32.51,7.97,46.51l-7.3-3.69c-2.65-1.07-4.45-4.27-6.31-5.65-1.02-.76-1.97-1.56-2.9-.2-1.99,8.28,1.81,15.68,6.53,22.03-.09,2.98,2.28,4.09,4,6,.74.82,1.35,1.33,2,2,.33.34.67.67,1,1s.69.65,1,1c.59.65.85,1.72,2,2,1.54,2.03,2.21,2.45,4,4,2.81,2.44,5.43,3.71,7.91,5.59,2.6,1.98,5.37,7.05,10.09,7.4-1.21-7.94-6.97-15.45,2.5-19.98,2.13,0,4.77,21.87,7.96,25.02,2.49,2.47,17.42,8.75,21.57,10.43,2.3.93,16.11,6.4,16.97,5.52-1.46-8.69-4.29-17.08-5.68-25.81-1.05-6.54-3.78-23.38-.21-28.58,1.19-1.74,1.82-1.85,3.89-1.6.22,10.13,1.46,20.25,3.32,30.18,1.32,7.04,4.22,20.7,7.17,26.83,2.77,5.75,11.73,4.22,16.56,7.64l-.05,4.34-11.99-2c-1.06,1.11,10.08,23.73,11.72,26.73,13.73,25.25,32.74,57.95,30.27,53.26-1.66-10.81-5.54-21.09-7.68-31.81-3.8-19.07-4.62-36.53-.33-55.7-1.47-.7-2.4,2.2-2.84,3.15-3.74,7.97-6.34,17.57-7.14,26.37-1.94,2.54-2.92-5.57-2.98-6.51-1.53-21.82,9.34-36.32,17.16-54.82,1.61-3.81,3.82-9.32,4.78-13.23.3-1.24-.24-2.06-1.44-1.43s-6.81,8.78-8.51,10.49l-5.98,4.01c1.14-5.02,7.52-13.66,7.97-18.1.19-1.9-2.36-11.02-3.5-12.41-1.73-2.12-3.57,2.58-5.14,3.85-2.89,2.33-6.77,4.05-9.86,6.13-.51-7.05,12.38-14.14,1.98-17.95-8.92-3.26-26.3,1.84-35.69,4.25-18.38,4.73-37.27,10.43-53.27,20.73.31-30.77,29.46-54.02,52.17-70.83,4.12-3.05,14.12-8.42,16.86-11.14,2.25-2.23,3.16-8.67,6.8-12.7,28.45-31.41,57.63-47.42,99.44-56.06,30.82-6.37,58.84.82,87.19,13.22,19.26,8.43,40.72,20.19,53.01,37.48-6.64-2.29-12.91-5.53-19.5-7.99-.95-.36-2.85-1.87-3.5-.5l16,14.5-23.98-8.5c26.78,19.22,54.67,42.14,73.36,69.63.63.93,3.43,4.09,2.62,4.87-22.25-8.71-44.6-18.76-68.62-21.88-1.07-.14-4.54-.97-4.37.87,15.5,6.27,31.69,11.18,47.24,17.26,26.18,10.23,42.53,20.32,64.65,37.35,29.97,23.08,58.06,49.54,83.61,77.39,4.29,1.83-2.91-8.18-3.51-8.99,6.37-4.36,16.09-19.47,12.5-27-.79-1.65-2.72-2.28-4.48-2-1.19,3.67-1.57,7.99-2.97,11.54-2.05,5.19-7.41,8.73-7.04,14.46-1.97-2.54-5.09-6.72-7-9,3.17.51,8.52-11.42,8-12l-12,9c-3.93-4.57-7.9-9.07-11.85-13.64,3.11-7.86,8.21-15.57,7.85-24.36-2.62-.66-1.75.94-2.58,1.89-1.87,2.13-11.68,14.77-12.9,14.86l-9.52-9.23c22.32-18.36,42.97-40.84,59.22-64.81,10.55-15.55,20.86-32.37,23.66-51.34,1.86-12.62.96-23.9-.87-36.38l7.16,12.32c16.17,33.48,20.07,66.64,2,100.35-7.41,13.83-17.29,24.3-28.17,35.32,3.9-.74,7.52-3.55,10.72-5.77,22.8-15.81,41.07-37.74,44.28-66.22,2.21-.36,1.6.01,2.23,1.28,10.55,21.17,8.14,51.78-3.43,72.03-12.16,21.28-31.85,33.32-51.79,46.2,17.25-4.65,36.67-14.91,50-26.99,4.66-4.23,7.67-8.72,11.7-13.23.59-.66-.09-1.92,2.28-1.28v19.5c0,21.53-28.13,46.15-45.68,55.32-6.47,3.38-14.54,5.41-20.32,9.68,7.99.77,15.88-3.54,23.51-5.49l28.48-13.01c1.8,1.93-8.5,16.62-10.48,19.01-8.41,10.13-19.5,17.15-29.51,25.49,7.62,1.85,14.77-3.04,21.99-4.5.73.65-4.68,7.1-5.48,8.01-3.56,4.09-8.13,8.28-12.58,11.41l-.96,3.01c13.18,22.67,26.64,45.61,35.03,70.56l-41.99-29.99c7.93,17.96,13.15,36.99,17.99,55.99l-33.5-25.99c-1.8,4.79-2.94,9.83-2.49,14.99-2.9-.41-6.88.05-10,0ZM627,161.12c-63.68-4.39-121.24-30.4-179.75-52.76-3.9-1.49-9.7-2.43-12.97-4.03-3.28-1.6-7.61-11.42-10.77-15.23-31.3-37.94-94.45-28.16-115.79,15.32-25.24,6.96-48.7,18.79-73.21,27.71-38.62,14.06-77.79,23.62-118.53,29.49.03,1.29,4.95,6.48,6.03,6.98,2.94,1.36,18.66-2.1,23.02-2.95,37.71-7.38,74.4-19.14,110.22-32.78,18.05-6.88,35.27-16.62,54.53-19.97,21.88-51.33,100.13-51.44,122.88-.7,52.18,19.15,102.44,41.22,157.32,52.43,4.86.99,28,5.9,30.81,4.27l6.2-7.78ZM392.99,93.12c-19.24-8.27-41.62-5.52-55.51,10.97-17.86,21.21-15.13,54.98,8.18,70.84,33,22.46,76.29.22,75.32-39.83l-7.16,13.32c-25.31,31.58-73.5,5.88-57.59-33.59,6.05-15,17.93-20.12,33.28-20.73,1.21-.05,3.72.75,3.48-.99ZM544.99,188.12c-37.41-10.29-74.38-22.51-110.95-34.98l-.98,4.89c31.81,12.51,65.38,21.13,98.73,28.79,3.07.71,6.83,1.74,9.82,2.19,1.04.15,3.65.84,3.39-.89ZM310,154.11l-122.99,36.99c7.89-.45,16.02-2.85,23.81-4.67,11.5-2.69,96.06-23.85,98.7-28.3.74-1.25.5-2.66.48-4.01ZM441.88,185.23c-5.76-1.91-10.72-6.64-16.86-7.72-2.81-.49-5.25.69-8.01-.39-.41,2,.95,2.35,2.28,3.21,5.12,3.3,13.1,5.11,18.44,8.63l1.67.22.8-1.79,1.79.73-.11-2.89ZM322,179.11c-6.28-.41-11.55,3.69-17.53,4.96l-6.46,4.52c1.5,2.11,2.89,1.61,5,1.05,3.03-.8,11.94-4.61,14.89-6.14,1.61-.83,4.41-2.14,4.1-4.39ZM463.01,182.1c1.58-.03,2.96.42,4.34,1.16,15.31,8.25,30.14,17.43,43.63,28.45,3.13,1.32,5.11-2.19,6.96-4.24.8-3.6-20.52-14.78-24.25-16.54-7.52-3.54-17.57-7.56-25.63-9.36-1.11-.25-5.02-1.54-5.04.53ZM421,193.11c1.07,1.86.32,5.44,4.27,4.86,1.08-.16,7.26-3.47,7.73-4.37,1.01-1.93-2.83-1.67-3.99-2.49-4.23-2.97-7.96-6.06-12.99-8-.19,3.96,3.14,6.78,4.99,10ZM269,184.12c-3.21-2.69-24.94,8.23-29.02,10.47-2.95,1.62-12.43,6.8-14.04,8.95-2.94,3.93.24,4.38,2,6.18.9.92.98,2.3,1.08,2.38,2.02,1.47,2.08-1.7,2.93-2.49,7.21-6.7,20.08-13.86,28.74-19.3,3.17-1.99,7.39-2.25,8.3-6.19ZM326,185.11l-17.72,7.75-1.27,2.23,11.93,3.99,7.06-13.97ZM271,203.11c5.56-5.26,11.48-10.18,16.98-15.51-10.06,1.98-21.41,8.25-30.29,13.7-5.8,3.56-11.96,8.03-16.69,12.81-1.11,1.12-3.52,1.6-2.99,3.98l17.36,9.1,13.63-21.08c.36-.28.69-.67,1-1,.59-.62,1.06-1.04,1-2ZM415,195.11c-1.24-2.61-1.7-8.73-5.45-8.01-1.72.33-9.11,5.98-12.59,7.47-6.72,2.88-13.95,4.55-21.34,4.49-1.24.23-.43,1.53-.63,2.04-1,2.5-1.43,4.03-1,7,15.09.68,29.56-3.58,44.01-7.01.85-2.87-2.24-4.37-3-5.99ZM368,201.11c-.21-.79.23-2.05-.01-2.97-5.14.37-10.08-1.2-14.99-2.53-3.66-.99-18.5-7.53-19.54-7.51-2.16.04-8.5,11.57-7.41,12.98.59.26,1.64-.15,1.95.03.85.48,1.2,1.23,2.7,1.75,4.59,1.59,36.41,7.02,38.3,5.25.54-2.71-.38-4.63-1-7ZM480,200.11c-2.95-2.02-5.91-4.45-9.32-6.18-4.59-2.32-10.66-4.95-15.68-5.81,6.4,5.05,12.65,10.3,17.67,16.37.87,1.05,2.2,2.45,2.33,2.62,4.6,6.24,7.02,14.85,13.64,19.84l16.35-9.36c.34-1.39-6.18-6.26-7.66-7.33-3.36-2.43-9.13-6.34-12.67-8.34-1.48-.84-2.94-1.63-4.67-1.82ZM455,196.11c-.16-.15-.47-2.23-1.94-3.54-.89-.8-5.18-4.09-6.05-3.46l-.89,4.85c2.12.56,3.91,2.58,5.88,3.15.28.08.65-.04,1,0,.27.03.74.07,1,0l2.85,3.65,9.15,6.35c1.09-1.13-6.78-8.39-7.97-9.56-1.11-1.09-2.77-1.2-3.02-1.43ZM293.95,190.15c-.65-.44-2.21-.25-3.01.63-3.6,3.98-6.84,8.49-10.92,11.84l14.55-8.52c.62-.72-.45-3.84-.62-3.95ZM78.99,247.1c-1.01-13.53-.12-32.36-14.44-39.05l-3.54,3.56,8.84,13.14,9.13,22.35ZM679.99,210.12c-3.17-1.36-5.25-.36-7.93,1.56-9.97,7.15-8.03,25.41-9.05,36.42l8.8-23.68,8.18-14.3ZM223,216.11c-2.37-1.05-3.11-5.72-7.26-4.83-3.84.83-16.54,13.74-19.74,17.33-1.97,2.21-6.42,7.2-8.02,9.26-1.09,1.4-7.59,11.14-7.81,12-.78,3.08,2.63,6.32,4.83,8.25.35.31.64.7,1,1,.18,1.05,1.72,1.58,2,2,1,1.52.28,3.69,2.99,3,1.54-5.71,5.21-10.55,7.77-15.74.38-.77.05-1.86.25-2.25.53-.09,1.23.27,1.78-.2l12.22-17.8c.82-.57,1.63-.97,2-2l3-3c2.16-.76,3.59-3.39,5-5,.35-.39,2.58-1.33,2-1.99-.62-.13-1.58.18-2,0ZM552,237.11c-.29-.35-.4-1.84-1.43-3.03-7.22-8.36-16.78-16.89-26.08-22.8l-6.47,6.33c1.66,2.65,5.11,3.99,7.01,5.97,2.86,2.97,8.64,9.95,10.97,13.53.35.54.41,2.14,1.15,3.31,4.62,7.29,9.64,14.4,12.36,22.7l12.51-12.49c-2.15-5.35-6.56-9.29-10.02-13.52ZM569.99,239.1c1.3-13.06-9.24-18.64-19.99-21.99-1.38,1.28,5.92,6.29,7.02,7.47,3.54,3.75,7.08,8.6,10.37,12.65.85,1.05.01,2.5,2.59,1.87ZM190,218.11c-2.15-1.82-13.94,7.62-15.45,10.04-2.42,3.87-1.42,7.61-1.54,11.95l16.99-21.99ZM250.94,232.19c-5.23-.69-13.98-10.12-17.69-10.92-3.44-.74-10.85,7.66-13.26,10.33-6.06,6.7-13.82,17.4-17.97,25.24-1.49,2.8-6.38,11.43-4.82,14.07l31.79,21.19c.42-6.62,2.53-13.61,4.51-19.99,4.42-14.24,10.59-26.79,17.44-39.92ZM519.17,284.34c4.55.29,25.27-13.03,24.71-16.55-5.92-10.93-10.89-23.39-19.34-32.72-1.68-1.86-4.38-2.81-6.09-4.91-2.25-2.75-3.34-7.8-7.77-8.92l-18.57,11.34c10.32,16.96,19.17,35.19,23.91,54.52h2.98s.17-2.77.17-2.77ZM165,249.1l.51-17.99c-5.9,3.74-10.14,9.22-14.98,14.02-2.25,2.23-5.65,3.74-7.53,6.47-5.31,7.69-2.36,17.89-1.98,26.5l4.47-10.02c5.75-8.35,9.59-17.68,13.53-26.97,1.76-.31.6,1.67,1.29,2.68.32.47,1.35.43,2.01,1.55.97,1.65-.39,4.54,2.68,3.76ZM601,278.11v-17.5c0-7.65-15.5-21.88-21.51-26.49-.94-.72-3.39-2.97-4.5-1.5l4.03,19.48c2.09-.22,1.6-10.47,4.48-6.99l17.51,32.99ZM419.99,242.12c-24.77-11.64-53.8-9.99-79-.51l25-1.49-18.99,9.98c14.77,1.68,28.57-3.79,42.99-4.99.56,2.89-.83,1.6-2.19,2.25-1.79.86-3.79,1.31-5.3,2.75l-10,9c20.83-6.2,43.32-4.83,64.49-1.02-2.7-4.19-10.39-6.81-15.2-8.29-6.58-2.04-14.97-3.67-21.8-3.71,3.84-3.93,11.44-2.82,16.51-2.99,1.21-.04,3.72.74,3.48-.99ZM419,262.1c-2.71-2.87-9.47-5.33-13.38-4.95-1.35.13-15.06,4.37-15.61,4.97-2.35,2.55,3.62,1.33,2.99,2.98l-8.99,2,24,3.02c1.64,1.34-.13,1.81-1.5,1.99-5.03.64-10.04.87-15.01,2.02-1.54.36-1.74-.68-1.5,1.98,4.56-.03,10.13,2.09,14.5,2.09,4.01,0,8.46-1.94,12.96-2.12,7.07-.29,13.6,1.69,20.55,2.03-7.67-5.81-17.16-12.58-27-13,1.27-2.35,5.62-3.01,8-3ZM565.99,258.11c-1.52-.41-1.66.39-2.5.98-2.32,1.61-10.52,9.96-10.55,12.47l12.57,49.52c5.5-5.52,14.16-13.26,14.58-21.46.44-8.58-6.7-27.4-10.79-35.27-.81-1.57-3.83-2.77-3.3-6.25ZM174,262.11c-3.94,11-13.04,22.34-13.94,34.64-.45,6.17,1.83,9.04,4.94,13.36.25.34.1,1.11,1,2,.7.69,1.06,1.22,2,2-.35,1.98,7,9.16,7.99,8,.45-17.24,6.05-34.58,11.83-50.7.15-1.89-1.39-1.75-1.83-2.29-.29-.37-.69-.65-1-1-1.15-1.29-1.87-1.89-3-3-1.06-1.04-1.63-1.83-3-3s-1.67-3.84-5-3c-.19.9.24,2.32,0,3ZM127,276.11c-6.55,11.73-5.78,19.77-3.99,33l13.78-22.76c.72-2.24-1.19-3.74-1.79-5.24l-2-16c-2.62-.56-1.55.57-2.09,1.44-1.76,2.9-3.25,6.19-3.91,9.56ZM615,301.11c.18.47,1.82,8.35,4,6-.34-5.73,1.39-10.53.88-16.38-.53-6.08-5.28-18.14-8.64-23.33-.49-.77-.52-2.59-2.22-1.29-.82.63-3.23,19.04-3.02,20.42.29,1.86,7.16,14.09,9,14.57ZM316,267.12c-7.81.8-29.87,7.23-33.06,14.43-.57,1.28-2.5,8.87-1.93,9.56l34.99-23.99ZM371,278.11c-4.32-1.31-6.13,1.5-9,2.56-2.03.75-6.7,1-9.28,1.66-2.81.72-5.4,2.1-8.22,2.78-1.7-1.88,1.87-3.93,3.48-4.03l-.51-1.99c-6.17-.45-18.8,13.65-23.49,18l13-2.98-7,7.5,21-4.5-13,10.98,29-5c.58-1.7-5.24-.34-2.99-2.97,1.24-1.45,6.98-2.05,8.96-2.55l8.03-5.46-13.39-1.07c-.81,2.89-9.26,1.26-13.13,1.07-1.13-.06-2.74.65-2.47-.99,4.59-.66,9.42-3.54,12.5-7.01l.99,1.99c2.03-.68,2.11-4.18,2.76-4.8.99-.96,3.7,1.32,2.75-3.19ZM306.99,285.11c-10.74,1.62-18.45,7.05-21,17.99,15.62,6.35,20.7-3.86,21-17.99ZM465.99,297.13c-20.46-9.94-45.47-9.68-67.21-3.74-5.04,1.38-11.88,3.29-15.78,6.71,25.88-1.63,50.26,7.21,75,13l-10.99-7.98c4.55-1.41,10.36,1.99,15.01,3.48.72.23,3.87,1.45,2.5-.49-3.83-2.58-8.35-3.96-12.71-5.3-3.38-1.04-9.44.04-9.8-4.69l14,1.99-1.01-1.98,10.49,1.01.51-2ZM260.99,306.11c-5.45,1.82-11.23-.25-15.99,3.49,6.12,3.01,10.04,4.5,15.83.35l.16-3.84ZM390,330.11c6.7,2.13,13.87,2.36,20.42,5.07,1.63-3.83,3.77-3.26,7.58-3.07.31-1.5-.3-2.35-.93-3.56-1.25-2.4-3.01-2.59-4.06-4.42l15,.98-13.99-7.98c4.93-.67,9.63.76,14.45,1.04,1.07.06,4.73.66,4.54-1.04-13.44-4.39-27.18-6.44-41.41-4.92-.96.1-3.76.44-3.58,1.9,7.47,2.68,15.17,6.56,19.99,13-8.61-2.77-16.28-2.49-25-2.99-.66-.04-1.34.02-2,0-.33-.01-.67,0-1,0-.42-.01-1.48-.89-2.54-.92-10.87-.29-18.96,3.16-29.46,3.92-.23,1.75,2.27.94,3.48.99,5.98.27,8.7.48,14.51,2l26,13c.77.67.92,1.76,2.25,2.32,2.19.93,4.41-.29,5.24,2.7l3.04-2.05.31-2.26-12.85-13.71ZM349,315.12c-5.91.09-11.59,1.69-17.22,3.27l-8.77,4.71c7.03-2.18,16.5-2.79,23.18-5.09.19-.07,2.85-2.21,2.81-2.89ZM295,326.11c-.41-3.06-7.06-9.41-10.37-9.08l-1.63,4.07c3.41.07,6.95,2.29,9,5.01-31.28,7.45-62.25,17.9-92.51,29-2.75.59-.63-2.16.26-3.03,4.3-4.14,11.98-6.18,17.24-9.98l63-19.99c-5.37.46-10.07-1.36-15.48-.99-3.72.25-23.64,5.89-24.51,4.98-1.24-1.99,2.67-8.53-.51-8.01-4.49.73-19.22,11.68-23.5,15.01-7.16,5.57-19.74,17.09-22.99,25.52-.49,1.27.18,1.86,1.47,1.47,3.96-1.19,10.16-4.9,14.54-6.46,12.87-4.6,27.07-8.85,40.21-12.79,15.02-4.51,30.35-9.21,45.77-11.74-.03-.97.13-2.04,0-2.99ZM511,360.11c-22.01-11.02-51.04-34.46-76.68-23.18-6.27,2.76-16.47,9.94-20.73,15.27-7.44,9.29-6.46,18.71-5.59,29.91-2.87.55-1.6-.78-2.26-2.19-1.49-3.2-2.01-7.8-4.73-9.81-1.21,5.4-5.47,9.61-7.5,15.01-5.78,15.38-.48,30.14,3.49,44.99,2.7.9,2.32-3.07,2.5-4.99.57-5.87.37-12.08.5-18.01,2.34-.5,1.6.29,2.24,1.28,2.31,3.63,4.37,8.47,6.93,12.04,1.04,1.45,6.34,8.75,7.82,7.67,6.33-16.74-5.47-33.01-3.98-49.99,2.21-.37,1.6,0,2.23,1.27,1.62,3.25,2.26,7.54,3.91,11.08,5.79,12.48,12.23,15.61,19.86,24.64.23.28,3.12,4.55,3.86,5.64,1.96,2.88,5.06,9.06,6.14,12.36l-5.39-1.1-14.59-9.41c1.62,2.8,2.33,6.16,4.11,8.88,4.17,6.35,9.44,12.69,14.87,18.63,2.63,2.87,5.31,5.27,8,8l1,1c.33.34.67.67,1,1l1,1c4.28,4.19,9.98,11.2,13.98,14.52,1.21,1,2.53,1.94,4.01,2.48,1.14-1.36-5.72-23.1-6.97-26.51-1.72-4.71-4.18-8.38-5.93-12.27-1.35-3-2.8-9.51-4.03-11.53-1.52-2.49-7.96-3.68-9.76-4.99-3.23-2.37-1.28-2.88-7.3-5.7l-.25-2.77c-.47-.48-1.67-.12-1.75-.23-.13-.16-.09-2.44-.78-3.68-6.44-11.43-13.95-22.39-17.21-35.32.99-1.11,5.79,4.15,6.51,4.98,3.7,4.28,6.77,10.04,10.52,14.48,9.48,11.26,19.9,22.28,33.48,28.51-2.55-12-12.6-20.95-15.5-32.97l32.5,32.99c2.11.39,1.63-.79,1.29-2.29-3.15-13.81-10.94-26.29-14.8-39.7,1.88-.43,2.37,1.06,3.5,1.99,4.81,3.97,9.93,8.27,14.5,12,1.61,1.31,3.4,4.14,4.48,4.98,7.82,6.02,17.26,11.45,26.51,15.02l-8.97-10.52c-4.89-5.43-10.36-9.94-16.03-14.47-4.56-3.65-9.61-6.7-14.12-10.4-1.04-.85-2.51,0-1.87-2.59,11.18,3.04,22.17,6.62,31.98,13,1.61-1.88-8.71-22.35-10.99-25.29-.64-.83-5.33-2.13,0-2.71,1.46,1.19,3.96,1.35,5.32,2.22,13.25,8.49,19.5,17.02,30.66,27.3,7.39,6.81,17.09,12.39,24.04,18.96,4.43,4.19,7.61,10.5,13.48,13.52l-.46-3.54c-8.17-7.85-15.97-16.06-23.93-24.11-.66-.67-4-3.36-3.1-4.34,2.31.3,4.22,3.98,5.31,4.67,1.42.9,3.57,1.04,5.37,2.14,13.22,8.12,25.65,17.59,40.3,23.18l-10.52-9.97c-23.64-20.46-53.04-34.03-77.8-50.7-.59-.4-2.9-1.17-3.67-1.32ZM365,362.11c.18.35-.32,1.54,0,2.2.82,1.66,4.01,1.36,2.98,4.8-2.42-1.87-4.58-4.38-7.99-2.5,6.3,3.97,9.81,6.66,14.71,12.22.59.67-.07,1.92,2.28,1.28.85-7.7-1.1-14.41-4.14-21.35l-5.85-9.64c.41-.38,9.4,3.56,10.35,4.14,1.88,1.13,3.92,4.32,5.16,4.85,3.28,1.41-.29-5.01-1.08-5.92-5.98-6.9-31.62-14.11-40.95-15.06-1.07-.11-3.74-.72-3.47.98,5.95,1.82,10.77,5.83,15.99,9.01.72,3.57,4.3,5.35,6.43,8.07,1.08,1.38,5.35,6.52,5.57,6.93ZM357.68,372.14c-1.37-1.59-9.38-5.66-9.68-7.54-.33-2.15.56-1.61,2.11-1.11,2.28.74,4.27,2.13,6.88,1.61.47-1.98-.24-2.21-1.1-3.38-5.11-6.95-17.39-13.46-25.89-14.61-.67,4.7,6.11,6.47,7.01,10.49.63,2.81-4.05-.16-5.02-.49-1.83-.62-4.03-1.62-5.98-1.51,7.55,10.31,14.27,20.27,16.99,33,0,0-3.03-3.23-4.34-4.92-.96-1.23-4.18-2.55-4.18-2.55-.6.04-.42.62-.5.98-.25,1.13.19,2.76,0,4-.35,2.34-.84,4.89-1.26,7.25-.16.92-.4,3-1.73,2.74,2.47-6.54-11.11-33.21-15.52-34.99-4.04-1.63,1.42,6.58,1.71,7.3.83,2.04,4.8,12.07,4.8,13.2v15.5c-2.33.56-1.65-.46-2.29-1.27-2.52-3.18-2.5-7.6-5.7-9.73l-3.25,10.26-5.75,9.73-1.24-10.27-2.76-5.72c-6.87,14.11-6.66,26.83-4.01,41.99,2.21.35,1.6,0,2.23-1.28,3.17-6.45,5.72-14.25,10.76-19.72l-.99,41.99c2.81.46,1.7-.55,2.13-2.31,4.17-16.99,9.52-32.06,14.41-48.64.49-1.66.51-3.34.45-5.05,1.9-2.37,3.54,6.39,4,7,.21,11.34.53,23.16,2.12,34.38.18,1.26.42,5.44,1.87,5.62.9-11.34,4.99-22.14,8.05-32.98l4.01.53c5.88-8.3,2.22-19.09,1.06-28.19-.24-1.84-1.03-8.06-1.12-10.35-.05-1.33.04-2.67,0-4,.06-.01.2-1.21.97-.57,1.5,2.95,3.62,4.53,6.03,6.57.9.77,4.36,3.77,5.21,5.18,3.15,5.22,4.37,6.29,5.19,13.77,1.69-.51.65-8.43.84-8.97.41-1.18-1.65-7.25-6.55-12.94ZM193,361.12h-1.99v.98h1.99v-.98ZM639,429.1c4.26.77,6.55-1.53,9.52-3.97,14.75-12.12,14.03-30.6,16.47-48.02-3.49,2.92-5.85,7.31-8.97,10.52-2.59,2.67-10.4,8.08-11.5,10.5-1.87,4.1-1.53,12.98-4.21,17.61l.19,8.35c7.57-7.55,6.68-22.12,13.06-29.92.96-1.17,1.62-2.42,3.43-2.06-1.16,3.27-.44,7.49-1.05,10.44-2.06,9.9-11.03,18.72-16.94,26.55ZM109,424.11c-2.5-4.38-6.99-9.03-8.52-13.98-.97-3.14-.77-9.84-2.02-12.02-1.51-2.63-9.39-8.93-11.99-11.97-2-2.35-2.58-5.72-5.46-7.03-.06,10.57.78,22.07,4.51,31.98,5.18,13.74,16.77,21.84,29.97,27.03,2.22-2.22-1.35-1.77-1.5-2.69-.95-5.6-.47-2.52-2.29-5.56-1.22-2.03-1.83-4.26-2.69-5.77.5,0,1.36-.02,1.62.34,6.05,8.15,14.82,15.96,25.38,16.65-8.26-6.59-14.01-15.01-19.81-23.68-3.78-5.66-5.41-12.08-11.7-16.3-1.85,8,2.95,15.45,4.5,23ZM184,437.11c.11,3.09,2.67,2.71,3,3s.65.68,1,1c.61.56,1.27,1.31,2,2,.65.61,1.34,1.35,2,2,1.47,1.44,2.12,3.99,5,4,.3.37.7.65,1,1,4.29,5.09,6.22,3.9,9,6,.11.08.09,1.7,1.05,2.41,2.87,2.13,5.98,3.96,8.46,6.59,1.21-.39.33-2.11-.06-2.94-2.22-4.79-7.53-9.38-10.29-13.71-4.46-7-9.28-16.46-13.02-23.98-1.85-3.71-3.77-12.15-6.77-14.27-1.09-.78-2.36-.68-3.37-1.09-.53-.21-1.17-.67-2-1l-8-5-15.98-11.51c4.34,10.09,16.93,41.57,26.98,45.51ZM406,484.11c7.65,16.15,17.22,30.42,27.53,44.99l5.45,4.52c-6.15-10.78-10.33-22.5-15.08-33.91-4.13-9.9-6.79-19.77-11.9-29.6-.13-9.27-9.66-11.37-14.65-16.35-6.89-6.88-13.35-26.56-13.35-36.15v-19.5c-2.07.35-1.56,2.21-2.01,3.49-4.96,14.07-4.6,15.3-.71,29.72,4.06,15.07,11.27,29.71,18.54,43.46,1.58,2.98,3.72,7.06,6.17,9.33ZM259.42,474.23c-9.14-13.71-15.52-27.91-21.86-43.18l-38.56-13.93c-1.56,1.54,14.48,27.56,16.77,30.71,5.9,8.12,17.04,19.27,24.77,25.42s18.44,11.84,26.94,13.88c-2.02-4.76-4.82-8.02-8.07-12.9ZM93,433.11c-2.91-3.15-8.19-5.17-8.01-9.01l-2.41,1.04-1.14-2.11c-6.71,1.94-5.81,12.54-4.15,18.29,2.38,8.25,14.35,21.26,21.96,25.07,1.57.79,10.77,5.08,9.75.73l-4.06-.44c-1.12-.76-.77-3.59-1.88-5.13-1.79-2.48-9.57-7.8-12.58-11.42-2.38-2.87-9.28-11.71-7.05-15.08l4.57-.93c-1.65,3.88,2.48,6.55,5,9,4.35,4.23,12.16,11.07,18.24,12.36,4.73,1.01,10.37-5.11,14.75-.81-14.01,36.01,1.12,75.34,24.04,103.92l9.99,10.02c-4.55-10.59-12.33-20.22-17.21-30.79-11.74-25.45-19.6-58.49-7.84-85.1-.14-.5-7.89-4.24-9.25-4.8-11.41-4.76-16.05-5.09-26.45-11.81-1.76-1.14-4.42-1.74-6.26-2.98ZM584,428.1v-1.48s-1.99-1.51-1.99-1.51v2.99s1.99,0,1.99,0ZM353,470.11v-24c2.24,2.61,5.03,2.54,7.54,3.96.5.28,5.14,5.81,4.48,1.53-1.21-7.8-9.59-15.54-8.03-24.49-3.61,1.65-2.65,5.83-5,8.52l1.99.49c.28,2.93-3.33,1.53-1.99,5.99-1.69.51-2.88-8.64-4.99-6l-.95,17.44,6.94,16.56ZM619,450.11l1,5.99c-6.28.48-12.42-2.12-18.24-4.25-2.27-.83-11.6-5.79-12.75-4.74.05,2.33,1.9,4.47,3.16,6.33,27.15,39.77,59.69,71.96,89.6,107.05,3.69,4.33,7.74,8.59,7.74,8.59,0,0-2.85-6.76-8.4-14.45-22.07-30.54-50.12-63.89-78.1-97.04.64-1.19,2.94-.34,3.94.06,3.98,1.6,24.78,16.59,27.05,14.44-.43-1.57-.58-3.52-1-4.99,3.94,2.25,6.19,6.22,8.96,9.54,28.34,34.05,36.53,46.67,41.45,52.85,1.51,1.89,4.17,5.39,6.58,7.12-2.44-5.66-5.1-11.5-8.15-16.84-2.87-5.03-10.88-16.23-16.82-25.22-2.1-3.37-6.14-8.21-8.6-11.36-1.22-1.55-2.99-3.53-5.41-6.59-9.06-11.48-35.33-42.55-48.51-46.49-1.28-.38-2,.25-1.47,1.47.6,1.4,15.31,15.65,17.99,18.51ZM555.99,463.1c-1.89.43-2.37-1.07-3.5-1.99-10.18-8.34-24.62-27.52-38.98-27.04-1.51.05-2.93-.67-2.52,1.52l25.99,30.5c-14.49-4.33-26.95-13.79-39.51-21.98l1.5,3.5-2.01,1.1.52,2.38c-7-.8-11.04-6.79-17.51-6.97-.16,1.14,0,1.95.52,2.97,4.87,9.62,27.18,32.85,36,40,1.68,1.36,4.27,3.3,6.46,3.53l-12.98-17.51c2.77,1.17,7.07,5.48,9.8,8.21l-1.31-5.21,44.01,37.98-3.68-7.31-17.83-25.17c.71-1.39,2.62-.05,3.56.44,4.19,2.21,16.9,15.79,20.95,20.05,10.68,11.22,20.74,24.32,31.46,35.54,1,1.05,6.94,7.58,8.02,6.47-3.13-10.84-10.78-17.89-16.81-26.68-8.68-12.64-17.16-25.41-26.2-37.81-.72-3.81,5.87,1.27,6.93,2.07,9.42,7.07,18.88,16.42,27.59,24.4l-31.49-43.49,9.31,5.68,23.18,19.81c-.4-5.82-4.16-10.94-7.53-15.46-8.16-10.98-23.77-22.96-35.09-30.91-2.55-1.79-9.06-6.65-11.41-7.6-1.26-.51-1.85.18-1.47,1.47.52,1.77,4.82,8.62,6.14,10.86,1.72,2.91,5.98,7.95,7.15,10.87.75,1.86.78,3.83.68,5.79ZM117.5,438.11v1c.65-.33.65-.67,0-1ZM418,454.11c2.95,9.04,10.91,17.98,17.5,25,1.76-6.53-1.98-12.99-3.84-19.03-.84-2.72-1.32-5.61-2.33-8.8-1.7-5.36-9.36-4.85-14.34-8.16-1.15-.76-3.1-5.11-5.98-4.51l8.98,15.51ZM292,459.61c-.72,2.71,0,11.39,0,15,0,13.49,31.05,45.93,34.18,61.82l3.83,4.17c-.21-5.18-3.18-9.98-5.49-14.51-6.37-12.52-12.94-20.84-18.57-34.43-2.98-7.2-6.83-15.32-9.41-22.59-1.19-3.36-2.32-7.39-2.55-10.96-.24-.3-1.89,1.11-1.99,1.5ZM328.99,462.1h-2.98c-3.62,12.61-4.41,24.18-.32,36.81.74,2.29,4.11,10.68,4.33,3.68.13-4.03-1.37-7.49-1.02-11.48l3.99,3-1.99-8.99c3.16-.85,2.72,5.54,6.01,3.48l-8.02-26.49ZM87,490.11c.27.37.23,1.62.96,2.5,5.91,7.05,15.03,12.56,24.03,14.5.15-1.92-1.22-3.73-2.49-5-4.8-4.78-15.02-9.39-19.5-15-1.28-1.6-6.32-11.97-6-13.48.68-3.28,5.17,1.08,6,1.48,1.21,2.34,17.04,18.14,18.99,16l-1.5-13.99c-2.39-3.72-7.15-4.27-10.49-6.01-.26-.14-.74.14-1,0-1.38-.72-2.62-1.31-4-2-.37-.18-.87-1.53-1.74-1.99-2.79-1.49-5.8-2.8-8.72-4.03-5.86,11.28-1.05,18.24,5.47,27.03ZM218.99,552.1c.45-1.74-.73-2-1.49-3-4.42-5.79-13.74-7.76-19.53-12.47-7.81-6.36-16.52-22.12-12.22-32.27,2.47-5.83,11.01-6.91,14.26-10.74,7.74-9.11-5.32-16.46-10.52-22.5,1.07,6.23,2.49,12.63,1.03,19-8.7,5.77-20.79,2.13-26.5,12.49,2.71-.69,5.66-4.42,8.51-1.53,1.83,1.86,2.49,13.51,5.3,16.7l14.17,25.32c-14.53-8.63-29.01-20.44-29-39-1.61-1.97-4.01,10.94-4.06,12.49-.26,9.22,6.41,21.85,12.09,28.99,6.44,8.09,24.9,20.3,26.75,29.24,1.03,4.97,1.1,11.4-5.12,12.07l-11.65-9.8c-2.66,3.2,14.48,23.32,13.72,30.38-.48,4.43-14.81,11.02-18.76,10.24-4.59-.91-13.91-13.11-15.44-17.64-1.91-5.64-1.95-10.19-.53-15.97-3.79.08-4.94,6.59-5.06,9.48-.52,12.25,10.23,31.07,20.77,37.32,6.78,4.02,15.32,5.76,20.3,12.19l-22-6.49-13.98-10.01c10.68,23.88,36.9,22.68,56.29,33.7,7.24,4.12,14.9,11.25,21.2,16.8,3.86,3.4,7.5,8.56,11.8,11.2,6.53,4,12.45,2.39,19.69,3.8-3.05-5.69-14.15-4.99-17.45-10.04-2.81-11.49-2.12-23.98-9.23-34.01l-12.3-5.45c3.07,5.75,11.03,9.03,9.97,16.51-1.27,1.27-27.29-12.23-30.31-14.18-7.63-4.91-17.11-17.69-12.1-26.74,1-1.81,9.23-11.61,10.9-13.1,3.78-3.39,9.48-2.98,11.05-8.96,2.23-8.5-5.27-15.13-9.56-21.49l-16.97-17.52c9.32,1.38,16.57,9.54,24.93,13.55l13.05,14.43c-.65-13.4-10.23-24.3-17.97-34.5l5.98,1.5ZM387,495.1c.95-.85-5.68-6.27-6.82-7.67-3.7-4.55-5.98-10.2-8.67-15.32-4.09,8.22-8.48,16.36-15.5,22.5,3.58,1.81,7.79,1.04,11.52,1.49,1.17.14,2-.4,1.45,1.47-2.12,7.33-7.06,8.98-13.97,10.03,4.56,7.05,23.67,6.72,29.33,2.34,1.12-.86,2.06-1.03,1.66-2.83-8.26.39-10.39-4.24-12.99-11l13.99-1.01ZM483.99,490.11c-2.43-1.69-9.09,7.48-12.34,6.85l-16.15-17.85c-1.18.63-.31,2.96,0,4,6.7,22.66,21.67,45.2,38.98,61.02,1.46,1.33,11.34,10.16,12.52,8.97l-23.01-62.99ZM531.31,509.76c-.62-.55-.91-3.11-2.29-2.16l13.96,23.02c-.67.62-2.26-.66-2.89-1.11-15.4-10.91-27.18-26.03-39.08-40.4,1.79,5.95,3.26,12.18,5.51,17.98,9.76,25.24,29.3,61.29,49.98,79.02,1.13.97,1.64,2.41,3.5,1.99l-33.99-53.51c-.06-3.56,2.87-.18,4.02.99,17.29,17.5,33.69,36.89,48.39,56.61,6.06,8.13,11.22,17.01,17.58,24.92.05-2.09.15-4.18-.23-6.26-1.97-10.85-5.74-22.12-7.98-33.02-2.26-10.98-33.34-48.63-42.77-57.23-4.21-3.84-9.41-7-13.7-10.83ZM250,515.12c-8.58-1.33-12.51-9.29-18.98-14.01l-6.01,21.99c6.93-2.12,17.38-2.89,23.73-5.76,1.35-.61,1.58-.1,1.26-2.22ZM98.65,508.47c-1.56-.74-10.97-5.08-11.65-4.36l1.01,11,4.32-3.89c3.49,1.15,24.85,18.74,26.66,16.89-.05-1.99-1.07-3.86-1.83-5.66-3.4-8.03-4.94-6.59-11.91-10.05-1.5-.75-5.08-3.2-6.6-3.92ZM266,515.11v21.5c0,8.84,9.91,26.98,18.08,30.88,3.07,1.46,17.33,4.71,17.92,7.14.63,2.61-10.45,4.57-12.5,4.57-1.93,0-5.6-.84-7.22-1.77-2.03-1.16-1.73-4-4.76-3.3l-1.5,1.98,1.87.44c-2.89,4.73,3.99,5.68,7.4,7.6.8.45.61,2.49,2.19,2.08,4.3-.25,13.7-8.58,16.78-7.94,4.54.95,6.21,8.45,13.11,6.85,1.05-.24.02-3.07,2.63-2.02.08,2.15-.1,4.34,0,6.51.06,1.22-.76,3.72.99,3.48,1.39-11.72,5.49-21.42-7.1-28.38-8.5-4.7-14.42-.81-21.19-2.81-7.26-2.15-14.81-25.14-19.88-31.12l-6.82-15.68ZM123,543.1c.39-1.88-.94-2.41-2.08-3.41-4.86-4.28-12.91-6.76-18.39-11.61-4.75-4.2-6.43-10.78-12.52-11.97,2.57,15.09,18.19,25.64,32.99,26.99ZM376,516.11c-5.39-1.38-19.46,1.67-6.99,4,.97,3.53-3.08,1.32-4.01,2,.77,3.81-.62,8.58,2.02,11.52l-1.86.58,1.86,3.89-3,2c4.36,1.47,8.63,1.45,12.99,0,.87-2.65-2.72-2.63-2.98-3.02-.64-.93,3.83-4.7,1.1-8.39l-4.1-.59c.17-1.88,4.57-1.69,4.99-3.5.69-2.94-4.91-1.55-4-3.98.17-.45,5.04-.69,4-4.5ZM448.98,521.11c-.9-.71-2.24-.33-1.98,1.47.24,1.68,3.67,10.63,4.59,12.42,2.97,5.77,9.12,11.97,15.4,14.09-2.71-9.18-10.07-16.09-15.82-23.68-.95-1.25-2.01-4.16-2.2-4.31ZM251.01,526.11l-13.3-2.87-9.71,12.86c2.38.63,5.22-1.16,7.29-.82,1.35.22,2.98,2.08,4.15,1.79.93-.23,1.24-2.23,2.29-3,2.2-1.61,6.09-3.68,8.65-4.9l.63-3.07ZM319,548.1c1.76-1.74-10.78-18.38-12.78-20.71-.97-1.13-1.09-2.77-3.21-2.28,1.44,9.42,4.91,22.36,15.99,22.99ZM414.99,535.11c-1.09-.12-2.02-.09-3.01.47-2.72,1.53-11.11,22.19-9.96,23.53,7.28-2.52,11.92-9.92,19.99-10l-7.01-13.99ZM584.44,540.6c-.48-.52-1.12-3.39-1.29-.17l18.84,34.67c.91-9.95-2.54-19.05-9.01-26.48-2.43-2.79-5.8-5.1-8.54-8.02ZM376,546.1c-1.01-5.75-7.88-3.8-12-2.99-.54,6.94,7.63,3.01,12,2.99ZM378,551.1c-1.22-4.37-16.6-2.59-13.99,1,5.08,2.09,9.13.57,13.99-1ZM375.86,565.97l-.79-9.42-11.07.57c2.18,3.12,2.25,6.28,1.99,10l9.87-1.15ZM459,557.12c-7.9,3.15-17.15,8.41-23.94,13.55-4.3,3.25-10.08,8.05-11.07,13.43-1.49-.31-2.58-4.55-2.77-5.74-.58-3.65.06-5.54,1.95-8.58.83-1.33,7.02-6.61,5.83-7.66-21.9,5.74-8.67,32.6-11.05,47.44-.8,4.97-7.14,8.08-9.78,12.22-4.22,6.6-7.55,24.27-6.16,31.83,1.14,6.21,8.29-1.21,11.08-2.91,12.77-7.75,21.31-9.75,22.8-27.21.83-9.74-7.64-19.21-9.43-28.33-.46-2.36-.95-5-.25-7.35.88-2.93,14.67-12.35,17.81-15.19,5.33-4.83,9.66-10.67,14.99-15.5ZM437,558.12h-2.99s0,1.99,0,1.99h1.48s1.51-1.99,1.51-1.99ZM433,560.12h-2.99s0,1.99,0,1.99h1.48s1.51-1.99,1.51-1.99ZM359.5,576.11c5.49,1.16,19.4,0,26,0,.42,0,2.19-1.59.52-2.52-.69-.39-14.56-3.33-15.5-3.34-3.87-.05-10.09,3.37-14.52,2.87.18,1.11,2.72,2.83,3.5,2.99ZM515.5,571.11v1c.65-.33.65-.67,0-1ZM259,572.11c-.79-.8-6.27,1.28-7.56,1.92s-2.45-.11-1.42,2.57c1.34,3.48,6.18-1.24,8.37-1.42l.61-3.07ZM533.93,584.18c-8.03.67-12.22-6.24-17.44-11.06-.08,15.75,13.72,26.88,20.03,39.97,2.76,5.71,4.45,12.04,6.48,18.03,3.15-1.4,3.05-6.24,7.34-4.89,4.02,1.29,3.64,13.1-.98,14.76l-22.36,10.13,8.77-13.72c.28-4.41,1.39-9.88-2.28-13.26-1.69.01-4.26,10.52-5.32,12.66-2.29,4.64-8.72,10.78-12.71,14.29-2.98,2.62-9,4.35-8.48,8.02-1.61.27-1.06-1.3-.79-2.28,1.2-4.28,4.24-8.77,3.79-13.72l-18.43,15.05c-2.99,3.6.74,12.09-1.01,17.99-1.77,5.96-11.58,12.25-15.55,16.95,3.91-.88,11.32-2.98,14.53-4.96,4.72-2.9,9.67-11.56,14.45-15.55,2.23-1.86,9.48-7.09,11.84-8.38,17.95-9.77,52.67-11.7,54.22-37.64.38-6.4-5.13-10.26.41-16.52,1.08-1.22,6.9-4.1,5.54-5.95-1.66-2.25-11.91,1.84-14.2,3.07-2.72,1.47-6.44,6.74-9.8,7.48-11.78,2.6-17.08-22.27-18.06-30.5ZM489.82,578.27c-.33-.56-9.46-3.54-9.82-3.16-1.93,3.78,9.21,7.77,9.99,6.99-.13-1.19.39-2.87-.17-3.83ZM260.96,581.06l-1.56-3.92-7.41,1.97c.46,8.83,3.66,3.5,8.96,1.94ZM409.99,595.11c-.44-4.94-.69-11.04-6.55-11.94-12.67-1.94-55.18-2.81-66.67.21-7.04,1.85-5.82,5.07-7.79,11.21-.06,2.36,12.06-3.46,13.21-3.79,8.28-2.38,12.65-1.42,19.28,4.33,2.61,2.26,6.03,8.79,9.92,7.85,1-.24,10.13-12.88,15.3-13.69l23.29,5.82ZM486.91,584.2l-8.9-2.09-1.96,7.37c.65,2.23,11.28,5.31,11.95,4.63l-1.09-9.91ZM265.87,589.99c1.66-10.64-8.6-4.27-12.75-.26.72,7.38,8.72.87,12.75.26ZM561.99,591.1v-1.99h-.98v1.99h.98ZM289.5,603.11c4.25-.71,10.03.51,14.5,0l-3.02-12.99-73.9,28.09c-.85,1.18,2.94,11.86,4.42,11.88,5.5-7.67,14.67-15.99,24.89-14.92,4.69.49,9.46,5.8,12.89,4.8,2.48-.73,8.12-9.34,11.24-11.83,1.91-1.53,6.77-4.66,8.98-5.02ZM512.99,631.11c-1.15-3.84,5.25-10.88,2.01-13.52l-74.98-26.46c-3.97,15.01,3.28,9.83,13.22,12.23,7.75,1.86,12.93,9.16,16.94,15.57,2.55,1.49,12-4.13,15.58-4.62,9.58-1.31,19.19,9.04,24.95,15.52.59.66-.07,1.92,2.28,1.28ZM269.75,593.34c-1.89-.92-11.37,3.05-13.66,4.4-.75.44-1,1.79-1.79,2.41-1.08.84-3.47.26-3.29,1.94,7.35.51,16.48-2.28,21.99-6.98-2.57.99-3.07-1.69-3.25-1.78ZM319.99,597.1v-2.99h-.98v2.99h.98ZM487.99,603.11c-.76-7.64-11.59-9.81-17.99-8.99-3.43,3.18,16.2,9.06,17.99,8.99ZM386,715.1c1.29-33.89,8.09-67.37,8.8-101.29-.65-2.93-8.72-11.27-12.09-11.6-4.4,1.15-12.64,19.22-15.46,23.61-.63.97.11,1.79-2.22,1.29-2.56-7.5-5.72-15.08-9.53-22.02-.42-.76-.27-2.82-1.97-1.97-1.91.95-8.15,10.55-8.17,13.3-.14,15.19,2.94,35.6,4.78,51.07.73,6.11,5.97,47.99,7.89,49.62l1.99-1.48,1-52.03,2-1.48c2.05,16.33.91,33.19,3.01,49.49.23,1.79.32,7.44,2.99,6.51,1.3-21.39,1.3-43.04,1.05-64.55-.06-5.26-1.44-10.19-1.09-15.99.64-10.63,6.49-24.42,13.54-32.43,7.56,6.23,6.96,16.44,6.49,25.47-1.19,22.91-4.18,45.98-5.04,68.96-.15,4.01-.44,10.29.04,14.06.18,1.38.65,3.04,2,1.48ZM316.32,605.79c-.71-.49.27-2.09-1.31-1.68-.22,6.3-4.62,11.61-6.81,17.34,4.91,8.63,16.59,15.06,15.88,26.2-.56,8.78-11.83,6-8.64,19.53,1.37,5.81,18.67,20.45,24.06,24.93,1.13.94,1.62,2.42,3.5,1.99-2.08-9.68-18.18-21.32-15.95-31.27.17-.75,2.37-1.2,1.97-2.72l1,2.99c1.04,1.25,7.87-14.5,8.04-16.5.77-9.07-5.06-18.6-6.06-27.5-5.02-.72,1.03,10.72-3.98,10-1.46-6.4-6.34-11.82-8.55-17.97-.59-1.64-.13-3.15-.42-4.41-.23-1.04-1.89-.35-2.73-.93ZM275,675.11c4.02,8.85,6.48,19.68,12.99,27-.24-4.93-2.49-9.67-4.24-14.25-1.92-5.05-5-9.63-6.75-13.75-2.45-5.75-4.24-11.91-6.82-17.68-1.55-3.46-12.22-22.31-10.17-24.32,4.9-.54,9.61,3.25,13.54,5.95l9.44,19.04c.54-6.68-4.32-14.07-4.06-20.49.06-1.47,4.85-16.08,7.06-13.5.55,12.94,3.87,25.55,7,38,1.05,14.4,12.72,33.59,16.82,47.68l4.17,7.32c-.01-3.08.23-6.16-.25-9.24-2.03-13.19-7.12-31.07-10.8-44.2-1.04-3.71-3.56-7.08-3.94-11.56-.47-5.53-2.24-16.92-5.24-24.26-1.22-2.97-5.41-11.29-9.12-10.58s-5.65,12.26-10.36,13.66c-6.73,2-22.9-11.88-18.79,5.2,2.01,8.37,15.07,30.2,19.51,39.98ZM444,644.11c-3.26,14.22-7.79,28.38-10.73,42.77-1.76,8.59-3.25,17.51-4.26,26.23,2-.74,2.97-2.86,3.87-4.62,9-17.51,12.73-38.51,17.12-57.38.06-.24,1.26-1.11,1-2v-2c3.45-7.71,4.54-15.54,4-24l3.07.62c1.18,4.39,4.72,9.4,4.97,13.91.42,7.46-5.91,16.8-6.03,24.46l4.45-9.03c1.76-3.35,1.93-11.45,4.07-13.93,1.16-1.35,14.5-8.1,15.47-7.03.71,7.76-4.48,15.01-7.52,22.02-.45,1.04-.23,2.4-.48,2.98-1.1,2.51-3.57,5.68-4.86,8.64-5.77,13.27-12,26.46-16.13,40.36,2-.74,2.97-2.86,3.87-4.62,7.19-14.01,12.68-29.2,19.12-43.38,4.65-10.25,14.08-20.32,9.96-31.96-1.64-1.39-12.79,5.11-17.25,3.81-3.78-1.11-5.66-12.62-9.41-13.72-3.18-.86-5.46,2.24-7.28,4.39-6.09,7.22-5.02,14.73-7.02,23.48ZM404.01,706.1c3.09.24,3.34-3.59,4.99-5.5,2.52-2.91,14.22-13.14,14.84-15.21,1.07-3.63-4.68-13.23-7.44-16.21-6.27-1.5-14.57,21.42-14.33,26.28.16,3.26,2.25,7.13,1.94,10.65ZM473.5,693.11v1c.65-.33.65-.67,0-1Z"/>
      <path class="cls-1" d="M135.99,688.11c-2.9-2.34-6.52-3.83-9.48-6.01-8.79-6.46-18.85-16.25-24.31-25.69-2.66-4.59-9.44-18.21-4.76-22.37.97-.86,7.87-2.94,9.15-2.91,2.97.07,2.98,6.23,3.95,8.93,2,5.53,5.53,13.56,8.28,18.72,4.13,7.75,13.45,17.87,16.42,24.58.68,1.54.91,3.08.75,4.74Z"/>
      <path class="cls-1" d="M607.01,688.11c-.28-1.74.22-3.12.77-4.72,4.18-12.1,15.08-24.01,19.73-38.27.97-2.97,2.02-11.51,2.97-13.04,1.28-2.08,11.23.89,12.31,5.75,2.53,11.43-5.78,22.54-12.81,30.76-6.28,7.34-14.6,14.66-22.97,19.52Z"/>
      <g>
        <path class="cls-1" d="M671,627.11c2.06-.44,7.1-.11,9.53,0,1.6.07,1.59-.39,1.5,1.52-.15,3.02-3.95,9.5-5.51,12.51-4.79,9.2-12,16.56-11.51,27.47.41,9.29,3.17,18.91,1.98,28.5l-12.73-20.74-1.73-1.24-18.51,19.48,8.94,4.55-.11,2.29c-16.59,20.29-34.64,39.32-53.37,57.64l-2.98,4.02-86,77c-.52-5.15-.83-10.31-1.54-15.47-.2-1.43.94-2.95-1.44-2.52-29.25,22.81-60.66,43.68-85.03,71.98-2.06.44-1.39-.81-1.78-2.17-.68-2.4-.51-4.05-.74-6.31-.15-1.46.87-2.93-1.46-2.51-18.68,21.54-32.65,46.3-36.52,74.99-1.52.3-.96-1.17-1.27-2.2-2.49-8.06-3.79-16.53-6.45-24.56-6.17-18.62-17.47-35.55-31.25-49.23l-2.51,12.99c-25.08-28.02-55.3-50.76-85.5-73v18c-3.41.54-3.89-2.61-5.48-3.98-38.78-33.55-78.15-66.29-113.04-104.01-9.14-9.88-17.27-20.74-27.03-30.02-2.22-4.3,10.31-4.91,9.51-8.44-.1-.45-5.04-6.07-5.94-7.08-9.02-10.21-20.28-18.55-28.44-29.56l-17.58-29.91c2.76.14,5.67-.32,8.41.08s10.65,2.49,13.62,3.38c3.49,1.05,11.31,3.18,11.95,7.05.71,4.38-.24,6.27,1.83,11.17,7.46,17.69,25.89,33.05,42.19,42.33.93,1.36-13.74,9.04-16.43,7.99l-.55,1.97c8.49,4.86,13.97,15.31,23.97,18.01l2.01-38.99c1.43-.27,2.46.25,3.71.78,5.82,2.46,12.79,8.33,19.61,11.39,4.65,2.09,9.57,3.88,14.58,4.92l-2.91,40.9c-2.46,2.51-15.45-13.7-20.01-11.5,2.56.8,2.04,2.9,3.44,4.55,12.82,15.16,33.69,27.29,51.21,35.81,15.96,7.76,43.72,15.29,56.63,25.11,2.53,1.93,5.98,10.07,8.25,11.02,2.04.86,1.4-1.4,1.49-2.48.38-4.9.07-10.67-4.67-13.35-22.7-11.06-46.99-19.31-69.69-30.31-7.82-3.79-12.56-9.66-20.48-13.01l3.85-54.84,73.99,31.01c.49,4.2-2.75.58-4.64.25-4.47-.78-10.88-2.12-16.38-3.75-6.72-2-13.09-5.14-19.99-6.5.25,1.54,1.86,1.89,3.01,2.48,8.6,4.37,17.96,7.35,26.75,11.25,1.22.54,2.96.5,3.23,2.26l-31-7.98,21.99,10c0,1.55.6,2.27-1.33,1.84-5.12-1.14-10.84-3.58-16.07-4.74l-1.6,1.88,19.99,7.02c.25,1.77-2.25.98-3.26.76-3.14-.69-5.8-2.37-9.24-2.78-1.02-.12-3.77-.67-3.49,1l19.99,8.02c.19,1.87-3.25.96-4.25.75-7.27-1.54-14.61-6.08-22.23-6.77l6.13,3.87,17.35,7.15c.02,1.95-4.12.92-5.23.73-6.26-1.11-11.48-5.94-17.76-5.24l23.99,12.49-30.99-8.98,25.99,12-2.99,1.98,5.99,3c-10.26-.91-19.24-8.25-28.73-10.77-.97-.26-3.52-1-3.26.77,16.46,7.99,33.16,15.57,50.78,20.73,67.84,19.87,151.54,19.92,218.74-2.69,6.98-2.35,30.72-10.81,35.48-14.52.44-.34,1.34-1.22,1-1.49l-36.99,11.99c-.56-2.66.66-1.72,1.97-2.48,7.07-4.13,14.75-6.98,22.02-10.52,5.95-2.9,13.04-5.78,18-9.99l-24,7.99c-4.46,1.29-8.82,2.98-13.33,4.17-.86.23-2.78,1.97-2.66-.16l26.99-14c-7.5-.46-15.17,3.89-22.26,5.29-1.58.31-2.04.93-2.74-1.29,9.24-2.4,18.54-7.04,27.02-11.49,2.22-1.16,5.52-2.56,6.98-4.51-10.73,2.58-21.29,8.52-31.94,11.56-.96.28-3.3,1.27-3.06-.56,9.39-4.09,19.99-8.61,28.95-13.55,1.12-.62,2.8-.84,3.04-2.45-10.81,2.87-21.08,7.42-32.17,9.32-1.03.18-3.06,1.58-2.82-.32l19.67-7.84,20.33-10.16-32.59,9.91-3.41-.91c8.25-2.35,17.92-6.03,25.67-9.83,1.54-.75,3.76-1.34,4.32-3.17-11.37,2.48-23.54,8.38-34.74,10.75-1,.21-4.44,1.12-4.25-.75l73.99-32.01,4.01,53.51c.03.89-.5,1.37-1.01,1.98-2.19,2.62-17.16,10.8-21.11,12.89-19.39,10.25-40.82,16.35-60.07,25.93-8.32,4.14-16.3,7.43-13.1,18.51.27.94.01,3.05,1.77,2.17.87-.43,5.7-8.96,7.97-11.04,9.69-8.9,26.66-12.6,38.5-17.5,13.87-5.73,27.73-11.75,40.72-19.28,2.13-1.23,12.66-6.77,13.15-7.35.39-.47.16-2.75,1.11-4.37,2.47-4.19,12.76-11.81,16.63-16.4l3.43-5.04-20.99,13.99c-2-13.15-4.33-26.53-3.87-39.86,13.82-3.91,26.02-11.31,37.85-19.14l2.15,39.36,1.9,1.21c3.25-.85,18.78-14.86,20.97-18.06.58-.85,1.4-.98.98-2.51-2.81.98-15.59-3.71-14.99-6.49.21-.98,13.75-10.07,16.01-12.01,10.78-9.26,20.08-20.85,24.49-34.51,2.8-8.67-.67-10.96,9.5-14.01,3.14-.94,10.09-3.6,12-4ZM521,710.12h-1.99v.98h1.99v-.98ZM585.5,721.11v1c.65-.33.65-.67,0-1ZM596.99,739.1l.52-2.98-1.5,1.5v1.48h.98ZM595,739.11c-1.88-.43-2.37,1.06-3.5,1.99-18.57,15.44-35.99,30.41-56.58,43.42-3.09,1.95-16.98,10.79-19.2,10.43-1.8-.29-3.76-2.6-5.71-3.36-16.33-6.33-30.82-.94-28,18.5,2.78.7,2.12-2.19,3.53-3.94,4.27-5.33,9.97-10.58,17.01-8.09s5.33,5.91,8.22,10.78c.36.61.07,1.95,1.71,1.26,1.44-.61,7.08-6.47,9.04-7.97,23.41-17.82,52.73-36.92,71.48-59.52.93-1.13,2.42-1.62,1.99-3.5ZM261,811.1c1.96-13.63-7.67-23.79-21.41-21.91-5.17.71-11.59,6.48-15.58,5.49-10.22-5.97-20.61-12-30.32-18.77-12.12-8.45-22.92-18.85-34.64-27.36-1.36-.99-2.07-1.87-4.05-1.44,17.86,22.15,43.12,36.16,64.48,54.02,2.28,1.9,7.85,9.65,10.59,7.54,1.31-1.01,2.3-7.25,7.02-9.99,10.65-6.17,14.92,5.42,20.89,10.95.98.91,1.42,1.83,3.03,1.47ZM423,816.11v17.5c0,1.33-2.79,5.76-3.96,7.04-6.59,7.23-18.88,14.16-26.57,21.43-7.69,7.26-14.13,15.99-20.97,24.01-6.67-9.22-14.52-18.39-22.97-26.01-6.05-5.46-24.31-17.14-27.3-22.7-3.94-7.34-1.03-13.59-1.22-21.27,7.55,2.88,15.85,5.44,23.99,5.5-8.01-11.47-19.18-13.01-30.67-18.33-7.61-3.52-14.69-9.26-23.3-10.69,12.42,10.75,20.72,22.73,27.18,37.82,2.16,5.04,3.05,11.08,5.63,16.37,5.2,10.67,14.88,17.74,22.15,26.85,5.15,6.45,9.33,13.39,13.53,20.47,1.58-4.44-.38-8.98-.55-13.46-.04-1.1-.63-3.8,1.03-3.53l12.52,23.99c3.01-7.27,5.43-15.72,11.49-21,.33,3.59-.86,6.9-1.04,10.46-.05,1.08-.67,4.73,1.03,4.54,7.39-21.21,29.43-32.24,38.19-52.31,3.33-7.62,5.13-16.46,9-24,4.84-9.44,12.47-17.66,19.8-25.19-7.3,1.39-13.28,6.1-20.01,8.98-9.14,3.9-17.6,4.92-25.44,11.56-1.03.87-5.21,4.75-5.52,5.49-.84,2.01,1.38,1.45,2.5,1.51,7.55.41,14.49-2.89,21.49-5.03ZM374.01,829.1c-1.74-6.3-.08-25.51-3.49-30.02-1.62-2.15-11.41-.44-14.53-.98l14.01,52,2.76-1.73,12.23-46.26-3.08.59-7.91,26.4ZM480,813.12c-8-2.38-17.01,4.34-23.72,8.77-15.26,10.05-31.67,23.88-39.25,40.74,1.22.41,3.11-1.23,4.01-1.98,8.17-6.73,15.79-15.65,24.49-22.51,11.13-8.77,23.95-15.64,34.47-25.02ZM262,813.11c-.38,1.67.54,2.02,1.52,2.98,8.05,7.89,23.84,14.22,32.38,22.62l30.08,24.91c-6.32-13.74-19.52-25.45-31.52-34.47-4.34-3.27-18.59-13.68-22.74-15.26-3.28-1.25-6.35-.74-9.72-.77ZM350.99,837.11c-.07-10.51-10.65-11.27-18.99-11.99,4.75,6.22,12.55,8.2,18.99,11.99ZM409,826.12c-2.88.5-12.93,1.12-14.77,2.22-.26.16-3.21,4.96-3.21,5.27.03,1.82,1.89.91,2.71.76,5.42-.99,11.3-4.44,15.26-8.25ZM346,839.11l4.49,6,6.48,3.51c-1.73-5.45-4.8-9.23-10.97-9.51ZM397,839.12c-5.18-.33-10.31,2.48-11,7.99,1.77,1.65,9.8-6.34,11-7.99Z"/>
        <path class="cls-1" d="M547,667.11c12.39-3,28.44-4.93,40.78-1.28,3.34.99,8.42,2.04,7.08,6.56-1.56,5.27-33.61,22.05-35.85,19.71-.3-2.85.4-6.26,0-9l4.07-1.6c.4-3.63-2.48-6.51-6.06-6.41l3.99-2.49-3.99-2.5,3-2.98c-4.24.25-8.84-.35-13,0Z"/>
        <g>
          <path class="cls-1" d="M186,665.11l-4,3.01,2,2.98-5.99,1.02,6.99,2-5.99,1.99c-1.68,1.49,4.3,3.95,5,4-2,3.55-.52,7.82-1,11.52-.15,1.15.42,2.01-1.46,1.45-12.72-3.79-26.44-12.93-36.52-21.47,9.21-10.94,28.14-7.54,40.98-6.5Z"/>
          <polygon class="cls-1" points="259 726.11 258.99 728.1 257.51 728.1 256 726.6 259 726.11"/>
          <rect class="cls-1" x="250" y="754.11" width="1.99" height="1.99"/>
          <rect class="cls-1" x="247" y="730.12" width="2.99" height=".98"/>
        </g>
      </g>
      <path class="cls-1" d="M465.72,370.4c.53.61,4.05,8.21,4.21,9.27.45,2.9.71,7.22-1.93,8.96-4.87,2.44-18.73-6.49-24.01-8.01l-.98-7.51,3.97.51-11.97-20.51,30.71,17.28Z"/>
      <path class="cls-1" d="M488.69,357.43c3.74,2.89,7.57,7.16,8.18,12.07-.95,4.17-11.17,1.89-14.07,1.31-12.24-2.45-25.78-8.59-30.79-20.7l21.29,9.2,4.7.79-14.51-14.97c6.48,2.92,13.48,4.6,19.42,8.57,1.41.94,5.22,3.29,5.79,3.73Z"/>
      <path class="cls-1" d="M436,374.1c-12.17,2.09-15.42-14.93-14.99-23.99l13.78,20.71,1.21,3.28Z"/>
      <path class="cls-1" d="M576.99,573.1l-5.23-5.27-15.76-24.72c1.86-.31,2.89,1.3,4.02,2.47,4.29,4.44,15.49,16.85,16.75,22.25.4,1.74.25,3.52.22,5.27Z"/>
      <path class="cls-1" d="M525.5,531.11c.65.33.65.67,0,1v-1Z"/>
      <path class="cls-1" d="M554.5,541.11c.65.33.65.67,0,1v-1Z"/>
      <path class="cls-1" d="M418,621.1c-1.31,4.08,2.39,3.86,2.84,6.72.85,5.46-4.3,7.26-8.74,5.2-.99-1.14,1.23-14.14,5.91-11.92Z"/>
      <path class="cls-1" d="M330.5,630.11c.65.33.65.67,0,1v-1Z"/>
      <path class="cls-1" d="M102.99,429.11c-1.44-.25-2.02-1.72-2.71-2.78-6.95-10.54-13.54-22.29-14.27-35.22l10.83,24.66c2.05,4.36,6.64,8.17,6.15,13.34Z"/>
    </g>
  </g>
</svg>