<?xml version="1.0" encoding="UTF-8"?>
<svg id="_レイヤー_2" data-name="レイヤー 2" xmlns="http://www.w3.org/2000/svg" viewBox="0 0 584.1 318.04">
  <defs>
    <style>
      .cls-1 {
        fill: #af1e1e;
      }

      path:not(.cls-1) {
        fill: #f4f0e8;
      }
    </style>
  </defs>
  <g id="_レイヤー_1" data-name="レイヤー 1">
    <g>
      <path d="M209.37,217.75c17.44-16.48,23.67-24.81,23.67-24.81,0,0,9.32,8.96,16.11,15.69s15.84,14.83,15.84,14.83H47.38c-14.55,0-27.09.29-43.64,2l-2.57-9.7c17.97,1.71,31.09,2,46.2,2h62.17v-32.23h-33.37c-14.54,0-27.09.28-43.63,2l-2.57-9.7c17.97,1.71,31.09,2,46.2,2h33.37v-35.08h-41.92v4.28c0,8.84-7.13,13.69-21.96,13.69-12.26,0-14.26-1.43-14.26-11.12,0-4.56,1.71-34.22,1.71-55.33,0-23.1,0-40.78-.86-54.76,28.81,7.7,38.5,11.12,41.64,13.69h110.94c15.97-10.2,17.68-15.4,17.68-15.4,0,0,3.07,3.21,16.76,14.33,11.69,9.7,16.33,11.91,16.33,11.91,0,0-.85,3.99-8.84,10.84v23.67c0,19.11,1.43,31.66,1.43,42.5,0,8.55-10.27,13.12-23.96,13.12s-14.83-1.43-14.83-10.84v-.57h-43.06v35.08h36.22c12.2-7.31,21.68-21.39,21.68-21.39,0,0,2.36,2.21,14.05,12.47,10.84,9.41,17.89,14.62,17.89,14.62h-89.83v32.23h63.03ZM73.61,60.89c-1.14.85-2.85,2-5.99,3.14v33.08h41.92c0-15.12-.28-25.67-1.14-36.22h-34.79ZM109.55,139.03v-36.22h-41.92v36.22h41.92ZM146.34,97.11h43.06v-36.22h-35.36c-.57,2.28-2.85,3.99-7.7,7.13v29.09ZM189.4,139.03v-36.22h-43.06v36.22h43.06Z"/>
      <path d="M32.67,306.97c0-5.24-27.83-35.34-32.67-35.34,4.84,0,32.67-30.11,32.67-35.34,0,5.24,27.83,35.34,32.67,35.34-4.84,0-32.67,30.11-32.67,35.34Z"/>
      <path d="M97.38,306.97c0-5.24-27.83-35.34-32.67-35.34,4.84,0,32.67-30.11,32.67-35.34,0,5.24,27.83,35.34,32.67,35.34-4.84,0-32.67,30.11-32.67,35.34Z"/>
      <path d="M162.09,306.97c0-5.24-27.83-35.34-32.67-35.34,4.84,0,32.67-30.11,32.67-35.34,0,5.24,27.83,35.34,32.67,35.34-4.84,0-32.67,30.11-32.67,35.34Z"/>
      <path d="M226.8,306.97c0-5.24-27.83-35.34-32.67-35.34,4.84,0,32.67-30.11,32.67-35.34,0,5.24,27.83,35.34,32.67,35.34-4.84,0-32.67,30.11-32.67,35.34Z"/>
    </g>
    <g>
      <path d="M346.48,94.05c-2.95-3-11.43-4.04-32.41-9.49,1.43,13.69,1.14,24.81,1.14,73.58,0,27.14-.89,64.69-1.39,80.97,8.77-4.47,17.78-7.46,27.62-10.72v-122.73c2-1.43,5.04-11.62,5.04-11.62Z"/>
      <g>
        <path class="cls-1" d="M372.57,70.26c0-1.25,0-2.55,0-3.8l6.02-.24v-16.16c.2-.28,6.43-.18,6.97-.08l-.48,40.64,1.11.08-7.6.08v-20.28l-6.02-.24Z"/>
        <path class="cls-1" d="M372.57,70.26c-.01,4.77.64,16.97-.16,20.83-.07.34-1.88,3.18-2.22,3.25-1.91.38.32-2.39.79-3.09v-42.46l-2.22-4.28V2.85c-.26-1.34-1.16-1.9-2.06-2.77,1.57.05,3.94-.63,4.28,1.35l-.16,44.04c.12,1.03,1.44,2.44,1.58,3.17.68,3.42.14,13.64.16,17.82,0,1.25,0,2.55,0,3.8Z"/>
        <path class="cls-1" d="M370.04,270.27c.07-16.63-.17-153.28.16-169.91.72.37,1.4-.14,1.9.71v168.64c-.54.8-1.31.44-2.06.55Z"/>
        <path class="cls-1" d="M386.51,73.59s-.32-.05-.32.08c0,5.68,0,11.36,0,17.03l-1.11-.08.48-40.64c.17.03.54-.08.63.08,0,6.87,0,13.73,0,20.6,0,.13.32.06.32.08,0,.24-.32.12-.32.24v2.38c0,.12.32,0,.32.24Z"/>
        <path class="cls-1" d="M386.51,73.59c0-.24-.32-.12-.32-.24v-2.38c0-.12.32,0,.32-.24l10.14.24c-.1.48.23,2.41-.24,2.61-1.21.54-8.09-.41-9.9,0Z"/>
        <path class="cls-1" d="M366.71.08c.9.88,1.8,1.43,2.06,2.77v41.67l2.22,4.28v42.46c-.47.7-2.7,3.47-.79,3.09-.03,2,.04,4.02,0,6.02-.33,16.63-.08,153.27-.16,169.91-.42.06-.95-.18-1.27.24l.55.87,12.28,10.06-16.64.32v19.8c.19.43.96.1,1.11.32.46.66-.35,14.21,0,16.16l-6.5-.16v-15.84l1.27-.48v-31.05c-.14-.32-1-.32-1.11-.16-.4.56.48,9.84,0,10.93-.15.34-1.16.31-1.27.16-.32-.45-.16-10.56,0-11.09.12-.42,1.12.01.16-.79V101.4c.31-1.15,1.96-.97,2.06-1.11.19-.27-.14-5.09,0-5.86-13.84-.48-32.54,4.14-45.6,8.39l-.98-18.21c.05-.44,4.81-1.89,5.62-2.14,8.39-2.56,17.12-3.92,25.74-5.47-1.87-1.83-1.81-7.87-1.43-10.3.34-2.12,2.33-3.68,4.28-4.28l-15.84-6.5v-12.2c.41-.77.77-1,1.66-.87,5.74,1.23,22.81,15.88,23.84,4.04l-16.48-44.36c-.23-1.02-.4-1.92.71-2.46,8.15.19,16.34-.25,24.48,0Z"/>
        <path class="cls-1" d="M353.56,66.22c0,.17.06.61-.08.71-2.37-.35-5.11-.36-6.73,1.66.7.13,1.56-.76,2.3-.87.72-.11,4.23.14,4.52.87.46,1.16-.34,6.04,0,7.6-2.42.42-7.45,1.2-8.08-2.22-.23-1.27-.08-7.2.48-8.24,1.51-2.82,7.52-2.08,7.6.48Z"/>
        <polygon class="cls-1" points="367.34 50.06 367.34 93.95 366.16 94.19 365.92 50.06 367.34 50.06"/>
        <polygon class="cls-1" points="373.52 279.07 367.74 279.14 367.66 273.68 373.52 279.07"/>
      </g>
      <path d="M537.47,240.62c-5.26-4.46-10.21-9.29-14.78-14.46,15.54-7.67,36.2-14.94,52.34-22.05-7.05-3.05-31.45-18.81-36.2-24.61-6.33,13.45-13.9,26.31-22.58,38.37-9.05-14.02-15.63-29.62-19.36-45.89l81.54.02c-6.15-4.38-24.2-22.65-27.98-27.63-2.39,4.31-16.48,19.5-20.19,21.22-1.65.73-3.51.74-5.31.74-18.29-.02-36.59-.04-54.88-.06v-25.51h-.04v-2.38h.04v-6.73s74.62-.53,87.04-.92c-5.63-4.89-20.15-19.23-22.58-23.46-2.21,3.66-13.86,17.28-17.98,18.75h-46.46l-.06-17.89h.04v-2.98s0-6.73,0-6.73c0,0,74.63-.53,87.04-.92-5.63-4.89-20.15-19.23-22.58-23.46-2.21,3.66-13.86,17.28-17.98,18.75h-46.46l-.06-18.32-.03-8.6c6.18-4.37,14.3-4.5,21.86-4.46,25.02.12,56.03.36,77.15.36-5.9-6.6-21.66-22.96-25.61-27.39-4.34,5.6-19.54,18.74-26.1,21.03-14.84.15-32,1.35-47.51-2.37-11.56-2.77-22.76-7.15-34.53-8.74,1.9,40.63,2.42,81.33,1.55,122.01l-18.46.03c-.23-16.68-.45-33.35-.68-50.03-.03-1.95-.03-3.99.84-5.73,1.86-3.73,7.39-5.57,6.13-10.32-.33-1.23-1.08-2.31-2.03-3.16l-13.73-12.29c-1.36-1.21-2.79-2.47-4.56-2.89-4.69-1.12-8.36,3.76-11.17,7.67-1.89,2.62-4.88,5.27-8.22,5.61-1.2.12-2.67-.33-3.68.59-1.1,1.01-.86,3.31-.68,4.61,3.39.4,7.05.05,10.47.05.03,33.16.06,66.32.09,99.48,0,3.6-.04,7.37-1.8,10.51-1.66,2.95-6.14,4.76-10.43,4.03,4.41,6.21,13.39,20.79,14.34,26.11,9.22,2.14,18.82-4.15,23.18-12.55,4.36-8.39,3.54-18.32,2.7-27.75-.86-9.76-1.7-19.53-.56-29.28,11.48.63,6.75.37,18.23,1.01l.25,83-32.51,2.62c6.97,14.25,14.09,34.18,17.68,45.48,6.09-6.38,12.49-11.92,15.09-13.42,23.24-13.39,46.47-26.78,69.71-40.17,8.17,19.72,21.98,37.07,39.38,49.44,9.56-13.57,22.68-24.6,37.69-31.69-17.01-5.88-32.9-14.99-46.63-26.62ZM470.06,250.43v-72.15c5.42-2.57,6.85-3.99,6.85-6.27h15.12c2.28,33.94,5.13,53.9,12.83,72.72-11.69,2-23.39,3.99-34.79,5.7Z"/>
    </g>
  </g>
</svg>
